<svg width="854" height="269" viewBox="0 0 854 269" fill="none" xmlns="http://www.w3.org/2000/svg">
<path d="M17.3027 161.184C17.3027 161.184 33.0795 95.0101 43.5973 95.0101C54.1152 95.0101 59.3741 106.602 69.892 106.602C80.4098 106.602 85.6688 102.985 96.1866 83.4426C106.704 63.9002 111.963 12.8863 122.481 8.88984C132.999 4.89337 138.258 4.89338 148.776 4.89338C159.294 4.89338 164.553 27.2049 175.071 27.5095C185.588 27.8142 190.847 27.8142 201.365 27.8142C211.883 27.8142 217.142 4.49881 227.66 4.49881C238.178 4.49881 243.437 4.49881 253.955 4.8187C264.472 5.13858 269.731 20.076 280.249 20.076C290.767 20.076 296.026 17.0623 306.544 17.0623C317.062 17.0623 322.321 41.1075 332.838 41.1075C343.356 41.1075 348.615 32.7758 359.133 32.7758C369.651 32.7758 374.91 32.7758 385.428 37.7337C395.946 42.6916 401.205 84.6063 411.722 118.546C422.24 152.487 427.499 200.403 438.017 207.435C448.535 214.466 453.794 210.413 464.312 214.466C474.83 218.52 480.088 222.458 490.606 227.702C501.124 232.947 506.383 240.689 516.901 240.689C527.419 240.689 532.678 240.689 543.196 240.145C553.714 239.602 558.972 236.415 569.49 236.415C580.008 236.415 585.267 256.416 595.785 256.416C606.303 256.416 611.562 251.875 622.08 251.875C632.597 251.875 637.856 264.2 648.374 264.2C658.892 264.2 664.151 171.225 674.669 170.416C685.187 169.608 690.446 169.608 700.964 169.608C711.481 169.608 716.74 188.014 727.258 188.014C737.776 188.014 743.035 185.864 753.553 185.864C764.071 185.864 769.33 185.864 779.848 189.945C790.365 194.026 795.624 217.383 806.142 217.383C816.66 217.383 832.437 205.63 832.437 205.63" stroke="#2E8FC1" stroke-width="2"/>
<path d="M17.3027 165.922C15.5735 165.922 13.9151 165.443 12.6922 164.591C11.4693 163.739 10.782 162.583 10.7816 161.377C10.7812 160.172 11.4676 159.016 12.6899 158.163C13.9121 157.31 15.5702 156.831 17.2994 156.83C19.0286 156.83 20.6874 157.308 21.9109 158.16C23.1344 159.011 23.8225 160.167 23.8238 161.373C23.825 162.578 23.1395 163.734 21.9178 164.588C20.6961 165.441 19.0384 165.921 17.3092 165.922H17.3027Z" fill="#2E8FC1"/>
<path d="M43.387 100.008C41.6578 100.008 39.9993 99.5296 38.7765 98.6773C37.5536 97.8251 36.8663 96.6691 36.8659 95.4637C36.8655 94.2583 37.5519 93.1021 38.7742 92.2494C39.9964 91.3968 41.6545 90.9174 43.3837 90.9168C45.1129 90.9162 46.7717 91.3944 47.9952 92.2462C49.2187 93.098 49.9067 94.2537 49.908 95.4592C49.9093 96.6646 49.2238 97.821 48.0021 98.6741C46.7804 99.5272 45.1227 100.007 43.3935 100.008H43.387Z" fill="#2E8FC1"/>
<path d="M69.4713 111.373C67.7421 111.373 66.0836 110.894 64.8607 110.042C63.6379 109.189 62.9506 108.033 62.9502 106.828C62.9498 105.623 63.6362 104.466 64.8584 103.614C66.0807 102.761 67.7388 102.282 69.468 102.281C71.1972 102.281 72.856 102.759 74.0795 103.611C75.303 104.462 75.991 105.618 75.9923 106.824C75.9936 108.029 75.3081 109.185 74.0864 110.038C72.8647 110.892 71.207 111.371 69.4778 111.373H69.4713Z" fill="#2E8FC1"/>
<path d="M95.5556 87.5075C93.8263 87.5075 92.1679 87.0287 90.945 86.1765C89.7221 85.3242 89.0349 84.1683 89.0345 82.9628C89.0341 81.7574 89.7205 80.6013 90.9427 79.7486C92.165 78.8959 93.8231 78.4166 95.5523 78.416C97.2815 78.4154 98.9403 78.8935 100.164 79.7454C101.387 80.5972 102.075 81.7529 102.077 82.9583C102.078 84.1637 101.392 85.3201 100.171 86.1732C98.949 87.0263 97.2913 87.5063 95.5621 87.5075H95.5556Z" fill="#2E8FC1"/>
<path d="M121.64 13.6389C119.911 13.6389 118.252 13.1602 117.029 12.3079C115.806 11.4557 115.119 10.2997 115.119 9.09432C115.118 7.88891 115.805 6.73273 117.027 5.88005C118.249 5.02738 119.907 4.54803 121.637 4.54742C123.366 4.54682 125.025 5.02502 126.248 5.87684C127.472 6.72866 128.16 7.88436 128.161 9.08977C128.162 10.2952 127.477 11.4516 126.255 12.3047C125.033 13.1578 123.376 13.6377 121.646 13.6389L121.64 13.6389Z" fill="#2E8FC1"/>
<path d="M147.724 9.09316C145.995 9.09316 144.337 8.61439 143.114 7.76214C141.891 6.90989 141.203 5.75395 141.203 4.54854C141.203 3.34313 141.889 2.18695 143.111 1.33428C144.334 0.481601 145.992 0.00225122 147.721 0.00164852C149.45 0.00104581 151.109 0.479239 152.332 1.33106C153.556 2.18288 154.244 3.33858 154.245 4.544C154.247 5.74941 153.561 6.90583 152.339 7.75893C151.118 8.61203 149.46 9.09196 147.731 9.09316L147.724 9.09316Z" fill="#2E8FC1"/>
<path d="M173.808 31.822C172.079 31.822 170.421 31.3432 169.198 30.4909C167.975 29.6387 167.288 28.4827 167.287 27.2773C167.287 26.0719 167.973 24.9157 169.196 24.0631C170.418 23.2104 172.076 22.731 173.805 22.7304C175.534 22.7298 177.193 23.208 178.417 24.0599C179.64 24.9117 180.328 26.0674 180.329 27.2728C180.331 28.4782 179.645 29.6346 178.424 30.4877C177.202 31.3408 175.544 31.8207 173.815 31.8219L173.808 31.822Z" fill="#2E8FC1"/>
<path d="M199.893 31.822C198.164 31.822 196.505 31.3432 195.282 30.4909C194.059 29.6387 193.372 28.4827 193.372 27.2773C193.371 26.0719 194.058 24.9157 195.28 24.0631C196.502 23.2104 198.16 22.731 199.889 22.7304C201.619 22.7298 203.277 23.208 204.501 24.0599C205.724 24.9117 206.412 26.0674 206.414 27.2728C206.415 28.4782 205.73 29.6346 204.508 30.4877C203.286 31.3408 201.628 31.8207 199.899 31.8219L199.893 31.822Z" fill="#2E8FC1"/>
<path d="M227.607 9.09316C225.878 9.09316 224.22 8.61439 222.997 7.76214C221.774 6.90989 221.087 5.75395 221.086 4.54854C221.086 3.34313 221.772 2.18695 222.994 1.33428C224.217 0.481601 225.875 0.00225122 227.604 0.00164852C229.333 0.00104581 230.992 0.479239 232.215 1.33106C233.439 2.18288 234.127 3.33858 234.128 4.544C234.13 5.74941 233.444 6.90583 232.222 7.75893C231.001 8.61203 229.343 9.09196 227.614 9.09316L227.607 9.09316Z" fill="#2E8FC1"/>
<path d="M253.692 9.09316C251.962 9.09316 250.304 8.61439 249.081 7.76214C247.858 6.90989 247.171 5.75395 247.171 4.54854C247.17 3.34313 247.856 2.18695 249.079 1.33428C250.301 0.481601 251.959 0.00225122 253.688 0.00164852C255.418 0.00104581 257.076 0.479239 258.3 1.33106C259.523 2.18288 260.211 3.33858 260.213 4.544C260.214 5.74941 259.528 6.90583 258.307 7.75893C257.085 8.61203 255.427 9.09196 253.698 9.09316L253.692 9.09316Z" fill="#2E8FC1"/>
<path d="M279.776 25.0033C278.047 25.0033 276.388 24.5245 275.165 23.6723C273.942 22.8201 273.255 21.6641 273.255 20.4587C273.254 19.2533 273.941 18.0971 275.163 17.2444C276.385 16.3918 278.043 15.9124 279.773 15.9118C281.502 15.9112 283.161 16.3894 284.384 17.2412C285.608 18.093 286.296 19.2487 286.297 20.4542C286.298 21.6596 285.613 22.816 284.391 23.6691C283.169 24.5222 281.512 25.0021 279.782 25.0033L279.776 25.0033Z" fill="#2E8FC1"/>
<path d="M305.86 21.594C304.131 21.594 302.473 21.1152 301.25 20.263C300.027 19.4107 299.34 18.2548 299.339 17.0494C299.339 15.844 300.025 14.6878 301.247 13.8351C302.47 12.9825 304.128 12.5031 305.857 12.5025C307.586 12.5019 309.245 12.9801 310.468 13.8319C311.692 14.6837 312.38 15.8394 312.381 17.0449C312.383 18.2503 311.697 19.4067 310.475 20.2598C309.254 21.1129 307.596 21.5928 305.867 21.594L305.86 21.594Z" fill="#2E8FC1"/>
<path d="M331.944 45.4593C330.215 45.4593 328.557 44.9805 327.334 44.1282C326.111 43.276 325.424 42.12 325.423 40.9146C325.423 39.7092 326.109 38.553 327.332 37.7004C328.554 36.8477 330.212 36.3683 331.941 36.3677C333.67 36.3671 335.329 36.8453 336.553 37.6972C337.776 38.549 338.464 39.7047 338.466 40.9101C338.467 42.1155 337.781 43.2719 336.56 44.125C335.338 44.9781 333.68 45.458 331.951 45.4592L331.944 45.4593Z" fill="#2E8FC1"/>
<path d="M358.029 37.5042C356.3 37.5042 354.641 37.0254 353.418 36.1732C352.195 35.3209 351.508 34.165 351.508 32.9596C351.507 31.7541 352.194 30.598 353.416 29.7453C354.638 28.8926 356.296 28.4133 358.026 28.4127C359.755 28.4121 361.413 28.8903 362.637 29.7421C363.86 30.5939 364.549 31.7496 364.55 32.955C364.551 34.1604 363.866 35.3168 362.644 36.1699C361.422 37.023 359.764 37.503 358.035 37.5042L358.029 37.5042Z" fill="#2E8FC1"/>
<path d="M384.113 42.0499C382.384 42.0499 380.725 41.5711 379.502 40.7189C378.28 39.8667 377.592 38.7107 377.592 37.5053C377.592 36.2999 378.278 35.1437 379.5 34.291C380.722 33.4384 382.381 32.959 384.11 32.9584C385.839 32.9578 387.498 33.436 388.721 34.2878C389.945 35.1396 390.633 36.2953 390.634 37.5008C390.635 38.7062 389.95 39.8626 388.728 40.7157C387.506 41.5688 385.849 42.0487 384.12 42.0499L384.113 42.0499Z" fill="#2E8FC1"/>
<path d="M410.197 122.737C408.468 122.737 406.81 122.258 405.587 121.406C404.364 120.554 403.677 119.398 403.676 118.192C403.676 116.987 404.362 115.831 405.584 114.978C406.807 114.126 408.465 113.646 410.194 113.646C411.923 113.645 413.582 114.123 414.806 114.975C416.029 115.827 416.717 116.983 416.718 118.188C416.72 119.393 416.034 120.55 414.812 121.403C413.591 122.256 411.933 122.736 410.204 122.737H410.197Z" fill="#2E8FC1"/>
<path d="M437.912 212.516C436.183 212.516 434.524 212.037 433.301 211.185C432.078 210.333 431.391 209.177 431.391 207.971C431.39 206.766 432.077 205.61 433.299 204.757C434.521 203.904 436.179 203.425 437.909 203.424C439.638 203.424 441.297 203.902 442.52 204.754C443.744 205.606 444.432 206.761 444.433 207.967C444.434 209.172 443.749 210.329 442.527 211.182C441.305 212.035 439.648 212.515 437.918 212.516H437.912Z" fill="#2E8FC1"/>
<path d="M463.996 219.334C462.267 219.334 460.609 218.856 459.386 218.003C458.163 217.151 457.476 215.995 457.475 214.79C457.475 213.584 458.161 212.428 459.383 211.576C460.606 210.723 462.264 210.244 463.993 210.243C465.722 210.242 467.381 210.721 468.604 211.572C469.828 212.424 470.516 213.58 470.517 214.785C470.519 215.991 469.833 217.147 468.611 218C467.39 218.853 465.732 219.333 464.003 219.334H463.996Z" fill="#2E8FC1"/>
<path d="M490.08 231.835C488.351 231.835 486.693 231.357 485.47 230.504C484.247 229.652 483.56 228.496 483.559 227.291C483.559 226.085 484.245 224.929 485.468 224.076C486.69 223.224 488.348 222.744 490.077 222.744C491.806 222.743 493.465 223.221 494.689 224.073C495.912 224.925 496.6 226.081 496.602 227.286C496.603 228.492 495.917 229.648 494.696 230.501C493.474 231.354 491.816 231.834 490.087 231.835H490.08Z" fill="#2E8FC1"/>
<path d="M516.165 245.473C514.436 245.473 512.777 244.994 511.554 244.142C510.331 243.289 509.644 242.133 509.644 240.928C509.643 239.723 510.33 238.566 511.552 237.714C512.774 236.861 514.432 236.382 516.161 236.381C517.891 236.38 519.549 236.859 520.773 237.71C521.996 238.562 522.685 239.718 522.686 240.923C522.687 242.129 522.002 243.285 520.78 244.138C519.558 244.991 517.9 245.471 516.171 245.473H516.165Z" fill="#2E8FC1"/>
<path d="M542.249 244.336C540.52 244.336 538.861 243.857 537.639 243.005C536.416 242.153 535.728 240.997 535.728 239.792C535.728 238.586 536.414 237.43 537.636 236.577C538.858 235.725 540.517 235.245 542.246 235.245C543.975 235.244 545.634 235.722 546.857 236.574C548.081 237.426 548.769 238.582 548.77 239.787C548.771 240.992 548.086 242.149 546.864 243.002C545.642 243.855 543.985 244.335 542.256 244.336H542.249Z" fill="#2E8FC1"/>
<path d="M568.333 240.927C566.604 240.927 564.946 240.448 563.723 239.596C562.5 238.744 561.813 237.588 561.812 236.382C561.812 235.177 562.498 234.021 563.72 233.168C564.943 232.315 566.601 231.836 568.33 231.835C570.059 231.835 571.718 232.313 572.942 233.165C574.165 234.016 574.853 235.172 574.854 236.378C574.856 237.583 574.17 238.739 572.948 239.593C571.727 240.446 570.069 240.926 568.34 240.927H568.333Z" fill="#2E8FC1"/>
<path d="M594.418 261.383C592.688 261.383 591.03 260.904 589.807 260.052C588.584 259.199 587.897 258.043 587.897 256.838C587.896 255.633 588.583 254.476 589.805 253.624C591.027 252.771 592.685 252.292 594.414 252.291C596.144 252.291 597.802 252.769 599.026 253.621C600.249 254.472 600.937 255.628 600.939 256.833C600.94 258.039 600.254 259.195 599.033 260.048C597.811 260.902 596.153 261.381 594.424 261.383H594.418Z" fill="#2E8FC1"/>
<path d="M620.502 256.837C618.773 256.837 617.114 256.358 615.891 255.506C614.669 254.654 613.981 253.498 613.981 252.292C613.98 251.087 614.667 249.931 615.889 249.078C617.111 248.225 618.769 247.746 620.499 247.745C622.228 247.745 623.887 248.223 625.11 249.075C626.334 249.927 627.022 251.082 627.023 252.288C627.024 253.493 626.339 254.65 625.117 255.503C623.895 256.356 622.238 256.836 620.508 256.837H620.502Z" fill="#2E8FC1"/>
<path d="M648.216 268.201C646.487 268.201 644.829 267.723 643.606 266.87C642.383 266.018 641.696 264.862 641.695 263.657C641.695 262.451 642.381 261.295 643.604 260.442C644.826 259.59 646.484 259.11 648.213 259.11C649.942 259.109 651.601 259.587 652.825 260.439C654.048 261.291 654.736 262.447 654.738 263.652C654.739 264.858 654.053 266.014 652.832 266.867C651.61 267.72 649.952 268.2 648.223 268.201H648.216Z" fill="#2E8FC1"/>
<path d="M674.301 175.013C672.572 175.013 670.913 174.535 669.69 173.682C668.467 172.83 667.78 171.674 667.78 170.469C667.779 169.263 668.466 168.107 669.688 167.254C670.91 166.402 672.568 165.922 674.297 165.922C676.027 165.921 677.685 166.399 678.909 167.251C680.132 168.103 680.821 169.259 680.822 170.464C680.823 171.67 680.138 172.826 678.916 173.679C677.694 174.532 676.036 175.012 674.307 175.013H674.301Z" fill="#2E8FC1"/>
<path d="M700.385 173.877C698.656 173.877 696.997 173.398 695.775 172.546C694.552 171.694 693.864 170.538 693.864 169.332C693.864 168.127 694.55 166.971 695.772 166.118C696.995 165.265 698.653 164.786 700.382 164.785C702.111 164.785 703.77 165.263 704.993 166.115C706.217 166.967 706.905 168.122 706.906 169.328C706.907 170.533 706.222 171.69 705 172.543C703.779 173.396 702.121 173.876 700.392 173.877H700.385Z" fill="#2E8FC1"/>
<path d="M726.469 192.06C724.74 192.06 723.082 191.581 721.859 190.729C720.636 189.877 719.949 188.721 719.948 187.515C719.948 186.31 720.634 185.154 721.857 184.301C723.079 183.448 724.737 182.969 726.466 182.968C728.195 182.968 729.854 183.446 731.078 184.298C732.301 185.15 732.989 186.305 732.99 187.511C732.992 188.716 732.306 189.873 731.085 190.726C729.863 191.579 728.205 192.059 726.476 192.06H726.469Z" fill="#2E8FC1"/>
<path d="M752.554 190.923C750.824 190.923 749.166 190.445 747.943 189.592C746.72 188.74 746.033 187.584 746.033 186.379C746.032 185.173 746.719 184.017 747.941 183.165C749.163 182.312 750.821 181.833 752.55 181.832C754.28 181.831 755.938 182.309 757.162 183.161C758.385 184.013 759.073 185.169 759.075 186.374C759.076 187.58 758.39 188.736 757.169 189.589C755.947 190.442 754.289 190.922 752.56 190.923H752.554Z" fill="#2E8FC1"/>
<path d="M778.638 194.333C776.909 194.333 775.25 193.854 774.027 193.002C772.805 192.15 772.117 190.994 772.117 189.788C772.116 188.583 772.803 187.427 774.025 186.574C775.247 185.721 776.905 185.242 778.635 185.241C780.364 185.241 782.023 185.719 783.246 186.571C784.47 187.423 785.158 188.578 785.159 189.784C785.16 190.989 784.475 192.145 783.253 192.999C782.031 193.852 780.374 194.332 778.644 194.333H778.638Z" fill="#2E8FC1"/>
<path d="M804.722 221.607C802.993 221.607 801.335 221.129 800.112 220.276C798.889 219.424 798.202 218.268 798.201 217.063C798.201 215.857 798.887 214.701 800.109 213.848C801.332 212.996 802.99 212.516 804.719 212.516C806.448 212.515 808.107 212.993 809.33 213.845C810.554 214.697 811.242 215.853 811.243 217.058C811.245 218.264 810.559 219.42 809.337 220.273C808.116 221.126 806.458 221.606 804.729 221.607H804.722Z" fill="#2E8FC1"/>
<path d="M832.437 210.243C830.708 210.243 829.049 209.764 827.826 208.912C826.603 208.06 825.916 206.904 825.916 205.698C825.915 204.493 826.602 203.337 827.824 202.484C829.046 201.631 830.704 201.152 832.433 201.151C834.163 201.151 835.821 201.629 837.045 202.481C838.268 203.333 838.957 204.488 838.958 205.694C838.959 206.899 838.274 208.056 837.052 208.909C835.83 209.762 834.173 210.242 832.443 210.243H832.437Z" fill="#2E8FC1"/>
<path d="M1 72.6358C94.7333 48.8375 308.018 20.9594 411.289 99.8339C540.378 198.427 591.356 204.133 715.511 240.924C797.733 265.289 842.681 247.723 852 240.924" stroke="white" stroke-width="6"/>
</svg>
