<svg width="202" height="145" viewBox="0 0 202 145" fill="none" xmlns="http://www.w3.org/2000/svg">
<path d="M197 116.496L195.824 110.844L191.517 114.688L197 116.496ZM15.9777 123.643C19.8913 110.996 25.9967 96.2977 34.6893 83.3019C43.3834 70.3041 54.6439 59.0406 68.8575 53.2066C97.2193 41.5655 137.702 51.4325 193.621 113.461L194.363 112.791C138.379 50.6904 97.4629 40.3845 68.4778 52.2815C54.0178 58.2166 42.6179 69.6499 33.8581 82.746C25.097 95.8441 18.9554 110.637 15.0223 123.347L15.9777 123.643Z" fill="white"/>
<path d="M201.364 141.354C201.559 141.158 201.559 140.842 201.364 140.646L198.182 137.464C197.986 137.269 197.67 137.269 197.475 137.464C197.279 137.66 197.279 137.976 197.475 138.172L200.303 141L197.475 143.828C197.279 144.024 197.279 144.34 197.475 144.536C197.67 144.731 197.986 144.731 198.182 144.536L201.364 141.354ZM4 141.5L201.01 141.5V140.5L4 140.5V141.5Z" fill="white"/>
<path d="M4.35355 0.646447C4.15829 0.451184 3.84171 0.451184 3.64645 0.646447L0.464466 3.82843C0.269204 4.02369 0.269204 4.34027 0.464466 4.53553C0.659728 4.7308 0.976311 4.7308 1.17157 4.53553L4 1.70711L6.82843 4.53553C7.02369 4.7308 7.34027 4.7308 7.53553 4.53553C7.7308 4.34027 7.7308 4.02369 7.53553 3.82843L4.35355 0.646447ZM4.5 142L4.5 1H3.5L3.5 142H4.5Z" fill="white"/>
<circle cx="75.5" cy="29.5" r="1.5" fill="white"/>
<circle cx="85.5" cy="59.5" r="1.5" fill="white"/>
<circle cx="85.5" cy="59.5" r="1.5" fill="white"/>
<circle cx="162.5" cy="70.5" r="1.5" fill="white"/>
<circle cx="136.5" cy="73.5" r="1.5" fill="white"/>
<circle cx="136.5" cy="73.5" r="1.5" fill="white"/>
<circle cx="32.5" cy="107.5" r="1.5" fill="white"/>
<circle cx="37.5" cy="91.5" r="1.5" fill="white"/>
<circle cx="101.5" cy="38.5" r="1.5" fill="white"/>
<circle cx="117.5" cy="42.5" r="1.5" fill="white"/>
<circle cx="117.5" cy="42.5" r="1.5" fill="white"/>
<circle cx="183.5" cy="89.5" r="1.5" fill="white"/>
<circle cx="168.5" cy="87.5" r="1.5" fill="white"/>
<circle cx="20.5" cy="130.5" r="1.5" fill="white"/>
<circle cx="117.5" cy="42.5" r="1.5" fill="white"/>
<circle cx="160.5" cy="109.5" r="1.5" fill="white"/>
<circle cx="17.5" cy="109.5" r="1.5" fill="white"/>
<circle cx="153.5" cy="84.5" r="1.5" fill="white"/>
<circle cx="131.5" cy="54.5" r="1.5" fill="white"/>
<circle cx="151.5" cy="27.5" r="1.5" fill="white"/>
<circle cx="49.5" cy="90.5" r="1.5" fill="white"/>
<circle cx="130.5" cy="107.5" r="1.5" fill="white"/>
<circle cx="83.5" cy="41.5" r="1.5" fill="white"/>
<circle cx="109.5" cy="49.5" r="1.5" fill="white"/>
<circle cx="59.5" cy="51.5" r="1.5" fill="white"/>
<circle cx="47.5" cy="53.5" r="1.5" fill="white"/>
<circle cx="60.5" cy="66.5" r="1.5" fill="white"/>
<circle cx="42.5" cy="76.5" r="1.5" fill="white"/>
<circle cx="150.5" cy="64.5" r="1.5" fill="white"/>
<circle cx="117.5" cy="62.5" r="1.5" fill="white"/>
</svg>
