<svg width="620" height="142" viewBox="0 0 620 142" fill="none" xmlns="http://www.w3.org/2000/svg">
<g filter="url(#filter0_d_210_31)">
<path d="M269 100L254.924 103.192L264.726 113.787L269 100ZM214.179 125.237C225.378 123.618 247.483 118.34 261.456 108.667L260.033 106.611C246.545 115.949 224.908 121.16 213.821 122.763L214.179 125.237Z" fill="#10A64A"/>
</g>
<path d="M4.844 5.56L4.228 8.976H5.348V12.756H1.568V8.92L2.576 5.56H4.844ZM10.108 5.56L9.492 8.976H10.612V12.756H6.832V8.92L7.84 5.56H10.108ZM30.4246 26V12.952L25.3286 22.668H23.1726L18.0766 12.952V26H14.2126V6.12H18.3566L24.2366 17.432L30.1726 6.12H34.2886V26H30.4246ZM37.9352 20.512V11.328H41.6872V19.7C41.6872 21.9587 42.4992 23.088 44.1232 23.088C44.8512 23.088 45.5512 22.8733 46.2232 22.444C46.9139 21.996 47.4739 21.324 47.9032 20.428V11.328H51.6552V21.8C51.6552 22.2107 51.7205 22.5 51.8512 22.668C51.9819 22.8173 52.2152 22.9107 52.5512 22.948V26C52.1779 26.0747 51.8605 26.1213 51.5992 26.14C51.3565 26.1587 51.1325 26.168 50.9272 26.168C50.2552 26.168 49.7045 26.0187 49.2752 25.72C48.8645 25.4027 48.6219 24.9733 48.5472 24.432L48.4632 23.256C47.8099 24.264 46.9699 25.02 45.9432 25.524C44.9165 26.028 43.7872 26.28 42.5552 26.28C41.0432 26.28 39.8952 25.7947 39.1112 24.824C38.3272 23.8347 37.9352 22.3973 37.9352 20.512ZM60.7878 26.28C59.5371 26.28 58.3424 26.0747 57.2038 25.664C56.0651 25.2533 55.0851 24.6467 54.2638 23.844L55.6078 21.408C56.4851 22.1173 57.3438 22.64 58.1838 22.976C59.0238 23.312 59.8451 23.48 60.6478 23.48C61.3758 23.48 61.9544 23.3493 62.3838 23.088C62.8318 22.8267 63.0558 22.4347 63.0558 21.912C63.0558 21.3707 62.7851 21.0067 62.2438 20.82C61.7024 20.6147 60.9464 20.3627 59.9758 20.064C58.8931 19.728 57.9878 19.3827 57.2598 19.028C56.5318 18.6733 55.9811 18.244 55.6078 17.74C55.2531 17.236 55.0758 16.5827 55.0758 15.78C55.0758 14.3427 55.6171 13.1947 56.6998 12.336C57.7824 11.4773 59.2198 11.048 61.0118 11.048C62.0571 11.048 63.0464 11.216 63.9798 11.552C64.9131 11.8693 65.7624 12.392 66.5278 13.12L65.0158 15.5C63.5784 14.38 62.1878 13.82 60.8438 13.82C60.2464 13.82 59.7144 13.932 59.2478 14.156C58.7998 14.38 58.5758 14.772 58.5758 15.332C58.5758 15.8547 58.7904 16.228 59.2198 16.452C59.6678 16.676 60.3398 16.9187 61.2358 17.18C62.3931 17.5347 63.3731 17.88 64.1758 18.216C64.9971 18.552 65.6131 18.9813 66.0238 19.504C66.4531 20.0267 66.6678 20.736 66.6678 21.632C66.6678 23.088 66.1358 24.2267 65.0718 25.048C64.0078 25.8693 62.5798 26.28 60.7878 26.28ZM69.1917 5.56H72.9437V21.296C72.9437 21.9867 73.0557 22.444 73.2797 22.668C73.5037 22.892 73.8117 23.004 74.2037 23.004C74.5024 23.004 74.8104 22.9667 75.1277 22.892C75.4451 22.8173 75.7251 22.724 75.9677 22.612L76.4717 25.468C75.9677 25.7107 75.3797 25.8973 74.7077 26.028C74.0357 26.1587 73.4291 26.224 72.8877 26.224C71.7117 26.224 70.7971 25.916 70.1437 25.3C69.5091 24.6653 69.1917 23.7693 69.1917 22.612V5.56ZM78.1064 9.284V5.56H81.8584V9.284H78.1064ZM78.1064 26V11.328H81.8584V26H78.1064ZM108.035 26H104.283V17.768C104.283 16.6107 104.078 15.7613 103.667 15.22C103.275 14.66 102.724 14.38 102.015 14.38C101.268 14.38 100.568 14.6693 99.9152 15.248C99.2618 15.808 98.7952 16.5453 98.5152 17.46V26H94.7632V17.768C94.7632 16.592 94.5578 15.7333 94.1472 15.192C93.7552 14.6507 93.2045 14.38 92.4952 14.38C91.7672 14.38 91.0672 14.66 90.3952 15.22C89.7418 15.78 89.2752 16.5173 88.9952 17.432V26H85.2432V11.328H88.6312V14.044C89.1725 13.092 89.9098 12.364 90.8432 11.86C91.7952 11.3373 92.8778 11.076 94.0912 11.076C95.3045 11.076 96.2472 11.3747 96.9192 11.972C97.6098 12.5693 98.0485 13.3067 98.2352 14.184C98.8138 13.176 99.5698 12.4107 100.503 11.888C101.436 11.3467 102.482 11.076 103.639 11.076C104.554 11.076 105.291 11.244 105.851 11.58C106.43 11.8973 106.878 12.336 107.195 12.896C107.512 13.4373 107.727 14.0533 107.839 14.744C107.97 15.4347 108.035 16.1347 108.035 16.844V26ZM116.706 26.28C115.455 26.28 114.26 26.0747 113.122 25.664C111.983 25.2533 111.003 24.6467 110.182 23.844L111.526 21.408C112.403 22.1173 113.262 22.64 114.102 22.976C114.942 23.312 115.763 23.48 116.566 23.48C117.294 23.48 117.872 23.3493 118.302 23.088C118.75 22.8267 118.974 22.4347 118.974 21.912C118.974 21.3707 118.703 21.0067 118.162 20.82C117.62 20.6147 116.864 20.3627 115.894 20.064C114.811 19.728 113.906 19.3827 113.178 19.028C112.45 18.6733 111.899 18.244 111.526 17.74C111.171 17.236 110.994 16.5827 110.994 15.78C110.994 14.3427 111.535 13.1947 112.618 12.336C113.7 11.4773 115.138 11.048 116.93 11.048C117.975 11.048 118.964 11.216 119.898 11.552C120.831 11.8693 121.68 12.392 122.446 13.12L120.934 15.5C119.496 14.38 118.106 13.82 116.762 13.82C116.164 13.82 115.632 13.932 115.166 14.156C114.718 14.38 114.494 14.772 114.494 15.332C114.494 15.8547 114.708 16.228 115.138 16.452C115.586 16.676 116.258 16.9187 117.154 17.18C118.311 17.5347 119.291 17.88 120.094 18.216C120.915 18.552 121.531 18.9813 121.942 19.504C122.371 20.0267 122.586 20.736 122.586 21.632C122.586 23.088 122.054 24.2267 120.99 25.048C119.926 25.8693 118.498 26.28 116.706 26.28ZM130.856 21.66C130.856 20.708 131.118 19.8773 131.64 19.168C132.182 18.44 132.928 17.88 133.88 17.488C134.832 17.096 135.924 16.9 137.156 16.9C137.772 16.9 138.398 16.956 139.032 17.068C139.667 17.1613 140.218 17.3013 140.684 17.488V16.704C140.684 15.7707 140.404 15.052 139.844 14.548C139.303 14.044 138.491 13.792 137.408 13.792C136.606 13.792 135.84 13.932 135.112 14.212C134.384 14.492 133.619 14.9027 132.816 15.444L131.612 12.98C132.583 12.3453 133.572 11.8693 134.58 11.552C135.607 11.2347 136.68 11.076 137.8 11.076C139.891 11.076 141.515 11.5987 142.672 12.644C143.848 13.6893 144.436 15.1827 144.436 17.124V21.8C144.436 22.2107 144.502 22.5 144.632 22.668C144.763 22.8173 144.996 22.9107 145.332 22.948V26C144.996 26.0747 144.688 26.1213 144.408 26.14C144.147 26.1773 143.923 26.196 143.736 26.196C142.99 26.196 142.42 26.028 142.028 25.692C141.636 25.356 141.403 24.9453 141.328 24.46L141.244 23.704C140.591 24.544 139.788 25.188 138.836 25.636C137.903 26.0653 136.942 26.28 135.952 26.28C134.963 26.28 134.086 26.084 133.32 25.692C132.555 25.2813 131.948 24.7307 131.5 24.04C131.071 23.3307 130.856 22.5373 130.856 21.66ZM139.984 22.416C140.451 21.968 140.684 21.5387 140.684 21.128V19.644C139.714 19.252 138.734 19.056 137.744 19.056C136.755 19.056 135.952 19.2707 135.336 19.7C134.72 20.1107 134.412 20.6613 134.412 21.352C134.412 21.912 134.636 22.416 135.084 22.864C135.532 23.312 136.176 23.536 137.016 23.536C137.576 23.536 138.118 23.4333 138.64 23.228C139.182 23.0227 139.63 22.752 139.984 22.416ZM156.678 14.576C155.54 14.576 154.522 14.8 153.626 15.248C152.73 15.6773 152.086 16.3027 151.694 17.124V26H147.942V11.328H151.386V14.464C151.89 13.456 152.544 12.6627 153.346 12.084C154.168 11.5053 155.026 11.188 155.922 11.132C156.314 11.132 156.566 11.1413 156.678 11.16V14.576ZM165.383 26.28C163.796 26.28 162.424 25.9347 161.267 25.244C160.128 24.5533 159.242 23.6387 158.607 22.5C157.972 21.3427 157.655 20.092 157.655 18.748C157.655 17.3667 157.963 16.0973 158.579 14.94C159.214 13.764 160.11 12.8307 161.267 12.14C162.424 11.4307 163.806 11.076 165.411 11.076C167.016 11.076 168.388 11.4307 169.527 12.14C170.666 12.8307 171.534 13.7547 172.131 14.912C172.747 16.0507 173.055 17.2827 173.055 18.608C173.055 19.0933 173.027 19.5133 172.971 19.868H161.631C161.724 21.0067 162.144 21.9027 162.891 22.556C163.656 23.2093 164.534 23.536 165.523 23.536C166.27 23.536 166.97 23.3587 167.623 23.004C168.295 22.6307 168.752 22.1453 168.995 21.548L172.215 22.444C171.674 23.564 170.806 24.488 169.611 25.216C168.416 25.9253 167.007 26.28 165.383 26.28ZM161.547 17.488H169.219C169.107 16.3867 168.687 15.5 167.959 14.828C167.25 14.1373 166.382 13.792 165.355 13.792C164.347 13.792 163.479 14.1373 162.751 14.828C162.042 15.5 161.64 16.3867 161.547 17.488ZM196.479 9.508H190.123V26H186.287V9.508H179.931V6.12H196.479V9.508ZM202.625 26.28C201.039 26.28 199.667 25.9347 198.509 25.244C197.371 24.5533 196.484 23.6387 195.849 22.5C195.215 21.3427 194.897 20.092 194.897 18.748C194.897 17.3667 195.205 16.0973 195.821 14.94C196.456 13.764 197.352 12.8307 198.509 12.14C199.667 11.4307 201.048 11.076 202.653 11.076C204.259 11.076 205.631 11.4307 206.769 12.14C207.908 12.8307 208.776 13.7547 209.373 14.912C209.989 16.0507 210.297 17.2827 210.297 18.608C210.297 19.0933 210.269 19.5133 210.213 19.868H198.873C198.967 21.0067 199.387 21.9027 200.133 22.556C200.899 23.2093 201.776 23.536 202.765 23.536C203.512 23.536 204.212 23.3587 204.865 23.004C205.537 22.6307 205.995 22.1453 206.237 21.548L209.457 22.444C208.916 23.564 208.048 24.488 206.853 25.216C205.659 25.9253 204.249 26.28 202.625 26.28ZM198.789 17.488H206.461C206.349 16.3867 205.929 15.5 205.201 14.828C204.492 14.1373 203.624 13.792 202.597 13.792C201.589 13.792 200.721 14.1373 199.993 14.828C199.284 15.5 198.883 16.3867 198.789 17.488ZM221.319 14.576C220.18 14.576 219.163 14.8 218.267 15.248C217.371 15.6773 216.727 16.3027 216.335 17.124V26H212.583V11.328H216.027V14.464C216.531 13.456 217.184 12.6627 217.987 12.084C218.808 11.5053 219.667 11.188 220.563 11.132C220.955 11.132 221.207 11.1413 221.319 11.16V14.576ZM232.147 14.576C231.008 14.576 229.991 14.8 229.095 15.248C228.199 15.6773 227.555 16.3027 227.163 17.124V26H223.411V11.328H226.855V14.464C227.359 13.456 228.012 12.6627 228.815 12.084C229.636 11.5053 230.495 11.188 231.391 11.132C231.783 11.132 232.035 11.1413 232.147 11.16V14.576ZM240.824 26.28C239.219 26.28 237.837 25.9347 236.68 25.244C235.541 24.5347 234.664 23.6013 234.048 22.444C233.432 21.2867 233.124 20.036 233.124 18.692C233.124 17.3293 233.432 16.0693 234.048 14.912C234.683 13.7547 235.569 12.8307 236.708 12.14C237.865 11.4307 239.237 11.076 240.824 11.076C242.411 11.076 243.773 11.4307 244.912 12.14C246.069 12.8307 246.956 13.7547 247.572 14.912C248.188 16.0693 248.496 17.3293 248.496 18.692C248.496 20.036 248.188 21.2867 247.572 22.444C246.956 23.6013 246.069 24.5347 244.912 25.244C243.773 25.9347 242.411 26.28 240.824 26.28ZM236.988 18.692C236.988 19.5507 237.156 20.316 237.492 20.988C237.828 21.6413 238.285 22.1547 238.864 22.528C239.443 22.9013 240.096 23.088 240.824 23.088C241.533 23.088 242.177 22.9013 242.756 22.528C243.335 22.136 243.792 21.6133 244.128 20.96C244.483 20.288 244.66 19.5227 244.66 18.664C244.66 17.824 244.483 17.0773 244.128 16.424C243.792 15.752 243.335 15.2293 242.756 14.856C242.177 14.464 241.533 14.268 240.824 14.268C240.096 14.268 239.443 14.464 238.864 14.856C238.285 15.2293 237.828 15.752 237.492 16.424C237.156 17.0773 236.988 17.8333 236.988 18.692ZM259.764 14.576C258.626 14.576 257.608 14.8 256.712 15.248C255.816 15.6773 255.172 16.3027 254.78 17.124V26H251.028V11.328H254.472V14.464C254.976 13.456 255.63 12.6627 256.432 12.084C257.254 11.5053 258.112 11.188 259.008 11.132C259.4 11.132 259.652 11.1413 259.764 11.16V14.576ZM261.856 9.284V5.56H265.608V9.284H261.856ZM261.856 26V11.328H265.608V26H261.856ZM274.397 26.28C273.146 26.28 271.952 26.0747 270.813 25.664C269.674 25.2533 268.694 24.6467 267.873 23.844L269.217 21.408C270.094 22.1173 270.953 22.64 271.793 22.976C272.633 23.312 273.454 23.48 274.257 23.48C274.985 23.48 275.564 23.3493 275.993 23.088C276.441 22.8267 276.665 22.4347 276.665 21.912C276.665 21.3707 276.394 21.0067 275.853 20.82C275.312 20.6147 274.556 20.3627 273.585 20.064C272.502 19.728 271.597 19.3827 270.869 19.028C270.141 18.6733 269.59 18.244 269.217 17.74C268.862 17.236 268.685 16.5827 268.685 15.78C268.685 14.3427 269.226 13.1947 270.309 12.336C271.392 11.4773 272.829 11.048 274.621 11.048C275.666 11.048 276.656 11.216 277.589 11.552C278.522 11.8693 279.372 12.392 280.137 13.12L278.625 15.5C277.188 14.38 275.797 13.82 274.453 13.82C273.856 13.82 273.324 13.932 272.857 14.156C272.409 14.38 272.185 14.772 272.185 15.332C272.185 15.8547 272.4 16.228 272.829 16.452C273.277 16.676 273.949 16.9187 274.845 17.18C276.002 17.5347 276.982 17.88 277.785 18.216C278.606 18.552 279.222 18.9813 279.633 19.504C280.062 20.0267 280.277 20.736 280.277 21.632C280.277 23.088 279.745 24.2267 278.681 25.048C277.617 25.8693 276.189 26.28 274.397 26.28ZM291.539 25.244C291.035 25.468 290.41 25.692 289.663 25.916C288.935 26.14 288.179 26.252 287.395 26.252C286.704 26.252 286.07 26.1307 285.491 25.888C284.912 25.6453 284.446 25.2627 284.091 24.74C283.755 24.1987 283.587 23.4987 283.587 22.64V14.212H281.655V11.328H283.587V6.568H287.339V11.328H290.419V14.212H287.339V21.38C287.339 21.884 287.47 22.248 287.731 22.472C288.011 22.696 288.347 22.808 288.739 22.808C289.131 22.808 289.514 22.7427 289.887 22.612C290.26 22.4813 290.559 22.3693 290.783 22.276L291.539 25.244ZM298.897 26.28C297.646 26.28 296.452 26.0747 295.313 25.664C294.174 25.2533 293.194 24.6467 292.373 23.844L293.717 21.408C294.594 22.1173 295.453 22.64 296.293 22.976C297.133 23.312 297.954 23.48 298.757 23.48C299.485 23.48 300.064 23.3493 300.493 23.088C300.941 22.8267 301.165 22.4347 301.165 21.912C301.165 21.3707 300.894 21.0067 300.353 20.82C299.812 20.6147 299.056 20.3627 298.085 20.064C297.002 19.728 296.097 19.3827 295.369 19.028C294.641 18.6733 294.09 18.244 293.717 17.74C293.362 17.236 293.185 16.5827 293.185 15.78C293.185 14.3427 293.726 13.1947 294.809 12.336C295.892 11.4773 297.329 11.048 299.121 11.048C300.166 11.048 301.156 11.216 302.089 11.552C303.022 11.8693 303.872 12.392 304.637 13.12L303.125 15.5C301.688 14.38 300.297 13.82 298.953 13.82C298.356 13.82 297.824 13.932 297.357 14.156C296.909 14.38 296.685 14.772 296.685 15.332C296.685 15.8547 296.9 16.228 297.329 16.452C297.777 16.676 298.449 16.9187 299.345 17.18C300.502 17.5347 301.482 17.88 302.285 18.216C303.106 18.552 303.722 18.9813 304.133 19.504C304.562 20.0267 304.777 20.736 304.777 21.632C304.777 23.088 304.245 24.2267 303.181 25.048C302.117 25.8693 300.689 26.28 298.897 26.28ZM307.245 26V21.968H310.325V26H307.245ZM310.89 12.588L311.534 9.144H310.414V5.392H314.166V9.228L313.186 12.588H310.89ZM316.154 12.588L316.798 9.144H315.678V5.392H319.43V9.228L318.45 12.588H316.154ZM328.822 17.012V14.576H337.586V17.012H328.822ZM328.822 21.968V19.532H337.586V21.968H328.822Z" fill="white"/>
<path d="M348.08 26V6.12H351.944V26H348.08ZM360.967 26.28C359.717 26.28 358.522 26.0747 357.383 25.664C356.245 25.2533 355.265 24.6467 354.443 23.844L355.787 21.408C356.665 22.1173 357.523 22.64 358.363 22.976C359.203 23.312 360.025 23.48 360.827 23.48C361.555 23.48 362.134 23.3493 362.563 23.088C363.011 22.8267 363.235 22.4347 363.235 21.912C363.235 21.3707 362.965 21.0067 362.423 20.82C361.882 20.6147 361.126 20.3627 360.155 20.064C359.073 19.728 358.167 19.3827 357.439 19.028C356.711 18.6733 356.161 18.244 355.787 17.74C355.433 17.236 355.255 16.5827 355.255 15.78C355.255 14.3427 355.797 13.1947 356.879 12.336C357.962 11.4773 359.399 11.048 361.191 11.048C362.237 11.048 363.226 11.216 364.159 11.552C365.093 11.8693 365.942 12.392 366.707 13.12L365.195 15.5C363.758 14.38 362.367 13.82 361.023 13.82C360.426 13.82 359.894 13.932 359.427 14.156C358.979 14.38 358.755 14.772 358.755 15.332C358.755 15.8547 358.97 16.228 359.399 16.452C359.847 16.676 360.519 16.9187 361.415 17.18C362.573 17.5347 363.553 17.88 364.355 18.216C365.177 18.552 365.793 18.9813 366.203 19.504C366.633 20.0267 366.847 20.736 366.847 21.632C366.847 23.088 366.315 24.2267 365.251 25.048C364.187 25.8693 362.759 26.28 360.967 26.28ZM369.371 5.56H373.123V21.296C373.123 21.9867 373.235 22.444 373.459 22.668C373.683 22.892 373.991 23.004 374.383 23.004C374.682 23.004 374.99 22.9667 375.307 22.892C375.625 22.8173 375.905 22.724 376.147 22.612L376.651 25.468C376.147 25.7107 375.559 25.8973 374.887 26.028C374.215 26.1587 373.609 26.224 373.067 26.224C371.891 26.224 370.977 25.916 370.323 25.3C369.689 24.6653 369.371 23.7693 369.371 22.612V5.56ZM377.278 21.66C377.278 20.708 377.539 19.8773 378.062 19.168C378.603 18.44 379.35 17.88 380.302 17.488C381.254 17.096 382.346 16.9 383.578 16.9C384.194 16.9 384.819 16.956 385.454 17.068C386.089 17.1613 386.639 17.3013 387.106 17.488V16.704C387.106 15.7707 386.826 15.052 386.266 14.548C385.725 14.044 384.913 13.792 383.83 13.792C383.027 13.792 382.262 13.932 381.534 14.212C380.806 14.492 380.041 14.9027 379.238 15.444L378.034 12.98C379.005 12.3453 379.994 11.8693 381.002 11.552C382.029 11.2347 383.102 11.076 384.222 11.076C386.313 11.076 387.937 11.5987 389.094 12.644C390.27 13.6893 390.858 15.1827 390.858 17.124V21.8C390.858 22.2107 390.923 22.5 391.054 22.668C391.185 22.8173 391.418 22.9107 391.754 22.948V26C391.418 26.0747 391.11 26.1213 390.83 26.14C390.569 26.1773 390.345 26.196 390.158 26.196C389.411 26.196 388.842 26.028 388.45 25.692C388.058 25.356 387.825 24.9453 387.75 24.46L387.666 23.704C387.013 24.544 386.21 25.188 385.258 25.636C384.325 26.0653 383.363 26.28 382.374 26.28C381.385 26.28 380.507 26.084 379.742 25.692C378.977 25.2813 378.37 24.7307 377.922 24.04C377.493 23.3307 377.278 22.5373 377.278 21.66ZM386.406 22.416C386.873 21.968 387.106 21.5387 387.106 21.128V19.644C386.135 19.252 385.155 19.056 384.166 19.056C383.177 19.056 382.374 19.2707 381.758 19.7C381.142 20.1107 380.834 20.6613 380.834 21.352C380.834 21.912 381.058 22.416 381.506 22.864C381.954 23.312 382.598 23.536 383.438 23.536C383.998 23.536 384.539 23.4333 385.062 23.228C385.603 23.0227 386.051 22.752 386.406 22.416ZM417.156 26H413.404V17.768C413.404 16.6107 413.199 15.7613 412.788 15.22C412.396 14.66 411.846 14.38 411.136 14.38C410.39 14.38 409.69 14.6693 409.036 15.248C408.383 15.808 407.916 16.5453 407.636 17.46V26H403.884V17.768C403.884 16.592 403.679 15.7333 403.268 15.192C402.876 14.6507 402.326 14.38 401.616 14.38C400.888 14.38 400.188 14.66 399.516 15.22C398.863 15.78 398.396 16.5173 398.116 17.432V26H394.364V11.328H397.752V14.044C398.294 13.092 399.031 12.364 399.964 11.86C400.916 11.3373 401.999 11.076 403.212 11.076C404.426 11.076 405.368 11.3747 406.04 11.972C406.731 12.5693 407.17 13.3067 407.356 14.184C407.935 13.176 408.691 12.4107 409.624 11.888C410.558 11.3467 411.603 11.076 412.76 11.076C413.675 11.076 414.412 11.244 414.972 11.58C415.551 11.8973 415.999 12.336 416.316 12.896C416.634 13.4373 416.848 14.0533 416.96 14.744C417.091 15.4347 417.156 16.1347 417.156 16.844V26ZM429.215 26.28C428.058 26.28 427.05 26.0187 426.191 25.496C425.332 24.9733 424.66 24.2827 424.175 23.424V31.964H420.423V11.328H423.699V13.848C424.24 12.9893 424.94 12.3173 425.799 11.832C426.676 11.328 427.666 11.076 428.767 11.076C430.092 11.076 431.268 11.4213 432.295 12.112C433.322 12.784 434.134 13.6987 434.731 14.856C435.328 15.9947 435.627 17.2547 435.627 18.636C435.627 20.0733 435.347 21.3707 434.787 22.528C434.246 23.6667 433.49 24.5813 432.519 25.272C431.567 25.944 430.466 26.28 429.215 26.28ZM427.955 23.088C428.72 23.088 429.383 22.8827 429.943 22.472C430.522 22.0427 430.97 21.492 431.287 20.82C431.623 20.1293 431.791 19.4013 431.791 18.636C431.791 17.8147 431.614 17.0773 431.259 16.424C430.904 15.752 430.419 15.2293 429.803 14.856C429.206 14.464 428.515 14.268 427.731 14.268C427.022 14.268 426.312 14.5013 425.603 14.968C424.894 15.4347 424.418 16.0227 424.175 16.732V20.176C424.511 20.9973 425.024 21.688 425.715 22.248C426.406 22.808 427.152 23.088 427.955 23.088ZM451.805 26H448.053V17.768C448.053 16.6293 447.829 15.78 447.381 15.22C446.952 14.66 446.354 14.38 445.589 14.38C445.122 14.38 444.637 14.5107 444.133 14.772C443.648 15.0333 443.2 15.3973 442.789 15.864C442.397 16.312 442.108 16.8347 441.921 17.432V26H438.169V5.56H441.921V14.044C442.462 13.1107 443.2 12.3827 444.133 11.86C445.066 11.3373 446.084 11.076 447.185 11.076C448.436 11.076 449.397 11.356 450.069 11.916C450.741 12.476 451.198 13.1947 451.441 14.072C451.684 14.9493 451.805 15.8733 451.805 16.844V26ZM461.843 26.28C460.238 26.28 458.857 25.9347 457.699 25.244C456.561 24.5347 455.683 23.6013 455.067 22.444C454.451 21.2867 454.143 20.036 454.143 18.692C454.143 17.3293 454.451 16.0693 455.067 14.912C455.702 13.7547 456.589 12.8307 457.727 12.14C458.885 11.4307 460.257 11.076 461.843 11.076C463.43 11.076 464.793 11.4307 465.931 12.14C467.089 12.8307 467.975 13.7547 468.591 14.912C469.207 16.0693 469.515 17.3293 469.515 18.692C469.515 20.036 469.207 21.2867 468.591 22.444C467.975 23.6013 467.089 24.5347 465.931 25.244C464.793 25.9347 463.43 26.28 461.843 26.28ZM458.007 18.692C458.007 19.5507 458.175 20.316 458.511 20.988C458.847 21.6413 459.305 22.1547 459.883 22.528C460.462 22.9013 461.115 23.088 461.843 23.088C462.553 23.088 463.197 22.9013 463.775 22.528C464.354 22.136 464.811 21.6133 465.147 20.96C465.502 20.288 465.679 19.5227 465.679 18.664C465.679 17.824 465.502 17.0773 465.147 16.424C464.811 15.752 464.354 15.2293 463.775 14.856C463.197 14.464 462.553 14.268 461.843 14.268C461.115 14.268 460.462 14.464 459.883 14.856C459.305 15.2293 458.847 15.752 458.511 16.424C458.175 17.0773 458.007 17.8333 458.007 18.692ZM480.392 26.28C479.272 26.28 478.273 26.028 477.396 25.524C476.519 25.02 475.828 24.3293 475.324 23.452V26H472.048V5.56H475.8V13.904C476.323 13.0267 477.004 12.336 477.844 11.832C478.703 11.328 479.701 11.076 480.84 11.076C482.109 11.076 483.22 11.4307 484.172 12.14C485.143 12.8307 485.899 13.7547 486.44 14.912C486.981 16.0693 487.252 17.3387 487.252 18.72C487.252 20.1387 486.953 21.4173 486.356 22.556C485.759 23.6947 484.937 24.6 483.892 25.272C482.865 25.944 481.699 26.28 480.392 26.28ZM479.356 23.088C480.159 23.088 480.859 22.892 481.456 22.5C482.072 22.108 482.548 21.5853 482.884 20.932C483.239 20.26 483.416 19.532 483.416 18.748C483.416 17.9453 483.248 17.208 482.912 16.536C482.595 15.8453 482.147 15.2947 481.568 14.884C480.989 14.4733 480.327 14.268 479.58 14.268C478.759 14.268 478.003 14.548 477.312 15.108C476.64 15.6493 476.136 16.3213 475.8 17.124V20.624C476.043 21.352 476.519 21.9493 477.228 22.416C477.937 22.864 478.647 23.088 479.356 23.088ZM489.794 9.284V5.56H493.546V9.284H489.794ZM489.794 26V11.328H493.546V26H489.794ZM495.923 21.66C495.923 20.708 496.184 19.8773 496.707 19.168C497.248 18.44 497.995 17.88 498.947 17.488C499.899 17.096 500.991 16.9 502.223 16.9C502.839 16.9 503.464 16.956 504.099 17.068C504.733 17.1613 505.284 17.3013 505.751 17.488V16.704C505.751 15.7707 505.471 15.052 504.911 14.548C504.369 14.044 503.557 13.792 502.475 13.792C501.672 13.792 500.907 13.932 500.179 14.212C499.451 14.492 498.685 14.9027 497.883 15.444L496.679 12.98C497.649 12.3453 498.639 11.8693 499.647 11.552C500.673 11.2347 501.747 11.076 502.867 11.076C504.957 11.076 506.581 11.5987 507.739 12.644C508.915 13.6893 509.503 15.1827 509.503 17.124V21.8C509.503 22.2107 509.568 22.5 509.699 22.668C509.829 22.8173 510.063 22.9107 510.399 22.948V26C510.063 26.0747 509.755 26.1213 509.475 26.14C509.213 26.1773 508.989 26.196 508.803 26.196C508.056 26.196 507.487 26.028 507.095 25.692C506.703 25.356 506.469 24.9453 506.395 24.46L506.311 23.704C505.657 24.544 504.855 25.188 503.903 25.636C502.969 26.0653 502.008 26.28 501.019 26.28C500.029 26.28 499.152 26.084 498.387 25.692C497.621 25.2813 497.015 24.7307 496.567 24.04C496.137 23.3307 495.923 22.5373 495.923 21.66ZM505.051 22.416C505.517 21.968 505.751 21.5387 505.751 21.128V19.644C504.78 19.252 503.8 19.056 502.811 19.056C501.821 19.056 501.019 19.2707 500.403 19.7C499.787 20.1107 499.479 20.6613 499.479 21.352C499.479 21.912 499.703 22.416 500.151 22.864C500.599 23.312 501.243 23.536 502.083 23.536C502.643 23.536 503.184 23.4333 503.707 23.228C504.248 23.0227 504.696 22.752 505.051 22.416Z" fill="#B40303"/>
<path d="M56.5785 36.5515C56.5785 37.3068 56.6702 38.0493 56.8535 38.779C57.0368 39.5087 57.299 40.1943 57.64 40.836C57.6767 40.9093 57.6968 40.9735 57.7005 41.0285C57.7078 41.0872 57.7042 41.1367 57.6895 41.177C57.6748 41.221 57.651 41.2577 57.618 41.287C57.5887 41.32 57.5557 41.3475 57.519 41.3695L56.914 41.738C56.6427 41.32 56.4117 40.9002 56.221 40.4785C56.0303 40.0568 55.8745 39.6315 55.7535 39.2025C55.6325 38.7735 55.5427 38.339 55.484 37.899C55.429 37.459 55.4015 37.0098 55.4015 36.5515C55.4015 36.0932 55.429 35.644 55.484 35.204C55.5427 34.7603 55.6325 34.324 55.7535 33.895C55.8745 33.466 56.0303 33.0425 56.221 32.6245C56.4117 32.2028 56.6427 31.783 56.914 31.365L57.519 31.728C57.5557 31.75 57.5887 31.7775 57.618 31.8105C57.651 31.8398 57.6748 31.8765 57.6895 31.9205C57.7042 31.9608 57.7078 32.0103 57.7005 32.069C57.6968 32.124 57.6767 32.19 57.64 32.267C57.299 32.905 57.0368 33.5907 56.8535 34.324C56.6702 35.0537 56.5785 35.7962 56.5785 36.5515ZM63.7111 38.9825V40H59.3111V38.9825H60.9226V34.346C60.9226 34.1627 60.9281 33.9738 60.9391 33.7795L59.7951 34.7365C59.7291 34.7878 59.6631 34.8208 59.5971 34.8355C59.5347 34.8465 59.4742 34.8465 59.4156 34.8355C59.3606 34.8245 59.3111 34.8062 59.2671 34.7805C59.2231 34.7512 59.1901 34.72 59.1681 34.687L58.7391 34.0985L61.1646 32.036H62.2811V38.9825H63.7111ZM64.8724 39.252C64.8724 39.1383 64.8926 39.0302 64.9329 38.9275C64.9769 38.8248 65.0356 38.7368 65.1089 38.6635C65.1822 38.5902 65.2702 38.5315 65.3729 38.4875C65.4756 38.4435 65.5856 38.4215 65.7029 38.4215C65.8202 38.4215 65.9284 38.4435 66.0274 38.4875C66.1301 38.5315 66.2181 38.5902 66.2914 38.6635C66.3684 38.7368 66.4289 38.8248 66.4729 38.9275C66.5169 39.0302 66.5389 39.1383 66.5389 39.252C66.5389 39.3693 66.5169 39.4793 66.4729 39.582C66.4289 39.681 66.3684 39.7672 66.2914 39.8405C66.2181 39.9138 66.1301 39.9707 66.0274 40.011C65.9284 40.055 65.8202 40.077 65.7029 40.077C65.5856 40.077 65.4756 40.055 65.3729 40.011C65.2702 39.9707 65.1822 39.9138 65.1089 39.8405C65.0356 39.7672 64.9769 39.681 64.9329 39.582C64.8926 39.4793 64.8724 39.3693 64.8724 39.252ZM73.1148 36.0235C73.1148 36.7165 73.0396 37.3197 72.8893 37.833C72.7426 38.3427 72.5373 38.7643 72.2733 39.098C72.0129 39.4317 71.7031 39.681 71.3438 39.846C70.9881 40.0073 70.6031 40.088 70.1888 40.088C69.7744 40.088 69.3894 40.0073 69.0338 39.846C68.6818 39.681 68.3756 39.4317 68.1153 39.098C67.8549 38.7643 67.6514 38.3427 67.5048 37.833C67.3581 37.3197 67.2848 36.7165 67.2848 36.0235C67.2848 35.3268 67.3581 34.7237 67.5048 34.214C67.6514 33.7043 67.8549 33.2827 68.1153 32.949C68.3756 32.6153 68.6818 32.3678 69.0338 32.2065C69.3894 32.0415 69.7744 31.959 70.1888 31.959C70.6031 31.959 70.9881 32.0415 71.3438 32.2065C71.7031 32.3678 72.0129 32.6153 72.2733 32.949C72.5373 33.2827 72.7426 33.7043 72.8893 34.214C73.0396 34.7237 73.1148 35.3268 73.1148 36.0235ZM71.7123 36.0235C71.7123 35.4478 71.6701 34.9712 71.5858 34.5935C71.5014 34.2158 71.3878 33.9152 71.2448 33.6915C71.1054 33.4678 70.9441 33.312 70.7608 33.224C70.5774 33.1323 70.3868 33.0865 70.1888 33.0865C69.9944 33.0865 69.8056 33.1323 69.6223 33.224C69.4426 33.312 69.2831 33.4678 69.1438 33.6915C69.0044 33.9152 68.8926 34.2158 68.8083 34.5935C68.7276 34.9712 68.6873 35.4478 68.6873 36.0235C68.6873 36.5992 68.7276 37.0758 68.8083 37.4535C68.8926 37.8312 69.0044 38.1318 69.1438 38.3555C69.2831 38.5792 69.4426 38.7368 69.6223 38.8285C69.8056 38.9165 69.9944 38.9605 70.1888 38.9605C70.3868 38.9605 70.5774 38.9165 70.7608 38.8285C70.9441 38.7368 71.1054 38.5792 71.2448 38.3555C71.3878 38.1318 71.5014 37.8312 71.5858 37.4535C71.6701 37.0758 71.7123 36.5992 71.7123 36.0235ZM79.4956 36.0235C79.4956 36.7165 79.4205 37.3197 79.2701 37.833C79.1235 38.3427 78.9181 38.7643 78.6541 39.098C78.3938 39.4317 78.084 39.681 77.7246 39.846C77.369 40.0073 76.984 40.088 76.5696 40.088C76.1553 40.088 75.7703 40.0073 75.4146 39.846C75.0626 39.681 74.7565 39.4317 74.4961 39.098C74.2358 38.7643 74.0323 38.3427 73.8856 37.833C73.739 37.3197 73.6656 36.7165 73.6656 36.0235C73.6656 35.3268 73.739 34.7237 73.8856 34.214C74.0323 33.7043 74.2358 33.2827 74.4961 32.949C74.7565 32.6153 75.0626 32.3678 75.4146 32.2065C75.7703 32.0415 76.1553 31.959 76.5696 31.959C76.984 31.959 77.369 32.0415 77.7246 32.2065C78.084 32.3678 78.3938 32.6153 78.6541 32.949C78.9181 33.2827 79.1235 33.7043 79.2701 34.214C79.4205 34.7237 79.4956 35.3268 79.4956 36.0235ZM78.0931 36.0235C78.0931 35.4478 78.051 34.9712 77.9666 34.5935C77.8823 34.2158 77.7686 33.9152 77.6256 33.6915C77.4863 33.4678 77.325 33.312 77.1416 33.224C76.9583 33.1323 76.7676 33.0865 76.5696 33.0865C76.3753 33.0865 76.1865 33.1323 76.0031 33.224C75.8235 33.312 75.664 33.4678 75.5246 33.6915C75.3853 33.9152 75.2735 34.2158 75.1891 34.5935C75.1085 34.9712 75.0681 35.4478 75.0681 36.0235C75.0681 36.5992 75.1085 37.0758 75.1891 37.4535C75.2735 37.8312 75.3853 38.1318 75.5246 38.3555C75.664 38.5792 75.8235 38.7368 76.0031 38.8285C76.1865 38.9165 76.3753 38.9605 76.5696 38.9605C76.7676 38.9605 76.9583 38.9165 77.1416 38.8285C77.325 38.7368 77.4863 38.5792 77.6256 38.3555C77.7686 38.1318 77.8823 37.8312 77.9666 37.4535C78.051 37.0758 78.0931 36.5992 78.0931 36.0235ZM81.207 36.5515C81.207 35.7962 81.1153 35.0537 80.932 34.324C80.7523 33.5907 80.492 32.905 80.151 32.267C80.1107 32.19 80.0868 32.124 80.0795 32.069C80.0758 32.0103 80.0813 31.9608 80.096 31.9205C80.1107 31.8765 80.1327 31.8398 80.162 31.8105C80.195 31.7775 80.2317 31.75 80.272 31.728L80.877 31.365C81.1483 31.783 81.3793 32.2028 81.57 32.6245C81.7607 33.0425 81.9165 33.466 82.0375 33.895C82.1585 34.324 82.2465 34.7603 82.3015 35.204C82.3565 35.644 82.384 36.0932 82.384 36.5515C82.384 37.0098 82.3565 37.459 82.3015 37.899C82.2465 38.339 82.1585 38.7735 82.0375 39.2025C81.9165 39.6315 81.7607 40.0568 81.57 40.4785C81.3793 40.9002 81.1483 41.32 80.877 41.738L80.272 41.3695C80.2317 41.3475 80.195 41.32 80.162 41.287C80.1327 41.2577 80.1107 41.221 80.096 41.177C80.0813 41.1367 80.0758 41.0872 80.0795 41.0285C80.0868 40.9735 80.1107 40.9093 80.151 40.836C80.492 40.1943 80.7523 39.5087 80.932 38.779C81.1153 38.0493 81.207 37.3068 81.207 36.5515Z" fill="white"/>
<path d="M56.5785 102.551C56.5785 103.307 56.6702 104.049 56.8535 104.779C57.0368 105.509 57.299 106.194 57.64 106.836C57.6767 106.909 57.6968 106.974 57.7005 107.029C57.7078 107.087 57.7042 107.137 57.6895 107.177C57.6748 107.221 57.651 107.258 57.618 107.287C57.5887 107.32 57.5557 107.348 57.519 107.37L56.914 107.738C56.6427 107.32 56.4117 106.9 56.221 106.479C56.0303 106.057 55.8745 105.631 55.7535 105.202C55.6325 104.773 55.5427 104.339 55.484 103.899C55.429 103.459 55.4015 103.01 55.4015 102.551C55.4015 102.093 55.429 101.644 55.484 101.204C55.5427 100.76 55.6325 100.324 55.7535 99.895C55.8745 99.466 56.0303 99.0425 56.221 98.6245C56.4117 98.2028 56.6427 97.783 56.914 97.365L57.519 97.728C57.5557 97.75 57.5887 97.7775 57.618 97.8105C57.651 97.8398 57.6748 97.8765 57.6895 97.9205C57.7042 97.9608 57.7078 98.0103 57.7005 98.069C57.6968 98.124 57.6767 98.19 57.64 98.267C57.299 98.905 57.0368 99.5907 56.8535 100.324C56.6702 101.054 56.5785 101.796 56.5785 102.551ZM63.7111 104.982V106H59.3111V104.982H60.9226V100.346C60.9226 100.163 60.9281 99.9738 60.9391 99.7795L59.7951 100.736C59.7291 100.788 59.6631 100.821 59.5971 100.835C59.5347 100.846 59.4742 100.846 59.4156 100.835C59.3606 100.824 59.3111 100.806 59.2671 100.78C59.2231 100.751 59.1901 100.72 59.1681 100.687L58.7391 100.098L61.1646 98.036H62.2811V104.982H63.7111ZM64.8724 105.252C64.8724 105.138 64.8926 105.03 64.9329 104.927C64.9769 104.825 65.0356 104.737 65.1089 104.663C65.1822 104.59 65.2702 104.531 65.3729 104.487C65.4756 104.443 65.5856 104.421 65.7029 104.421C65.8202 104.421 65.9284 104.443 66.0274 104.487C66.1301 104.531 66.2181 104.59 66.2914 104.663C66.3684 104.737 66.4289 104.825 66.4729 104.927C66.5169 105.03 66.5389 105.138 66.5389 105.252C66.5389 105.369 66.5169 105.479 66.4729 105.582C66.4289 105.681 66.3684 105.767 66.2914 105.84C66.2181 105.914 66.1301 105.971 66.0274 106.011C65.9284 106.055 65.8202 106.077 65.7029 106.077C65.5856 106.077 65.4756 106.055 65.3729 106.011C65.2702 105.971 65.1822 105.914 65.1089 105.84C65.0356 105.767 64.9769 105.681 64.9329 105.582C64.8926 105.479 64.8724 105.369 64.8724 105.252ZM73.1148 102.023C73.1148 102.716 73.0396 103.32 72.8893 103.833C72.7426 104.343 72.5373 104.764 72.2733 105.098C72.0129 105.432 71.7031 105.681 71.3438 105.846C70.9881 106.007 70.6031 106.088 70.1888 106.088C69.7744 106.088 69.3894 106.007 69.0338 105.846C68.6818 105.681 68.3756 105.432 68.1153 105.098C67.8549 104.764 67.6514 104.343 67.5048 103.833C67.3581 103.32 67.2848 102.716 67.2848 102.023C67.2848 101.327 67.3581 100.724 67.5048 100.214C67.6514 99.7043 67.8549 99.2827 68.1153 98.949C68.3756 98.6153 68.6818 98.3678 69.0338 98.2065C69.3894 98.0415 69.7744 97.959 70.1888 97.959C70.6031 97.959 70.9881 98.0415 71.3438 98.2065C71.7031 98.3678 72.0129 98.6153 72.2733 98.949C72.5373 99.2827 72.7426 99.7043 72.8893 100.214C73.0396 100.724 73.1148 101.327 73.1148 102.023ZM71.7123 102.023C71.7123 101.448 71.6701 100.971 71.5858 100.593C71.5014 100.216 71.3878 99.9152 71.2448 99.6915C71.1054 99.4678 70.9441 99.312 70.7608 99.224C70.5774 99.1323 70.3868 99.0865 70.1888 99.0865C69.9944 99.0865 69.8056 99.1323 69.6223 99.224C69.4426 99.312 69.2831 99.4678 69.1438 99.6915C69.0044 99.9152 68.8926 100.216 68.8083 100.593C68.7276 100.971 68.6873 101.448 68.6873 102.023C68.6873 102.599 68.7276 103.076 68.8083 103.453C68.8926 103.831 69.0044 104.132 69.1438 104.355C69.2831 104.579 69.4426 104.737 69.6223 104.828C69.8056 104.916 69.9944 104.96 70.1888 104.96C70.3868 104.96 70.5774 104.916 70.7608 104.828C70.9441 104.737 71.1054 104.579 71.2448 104.355C71.3878 104.132 71.5014 103.831 71.5858 103.453C71.6701 103.076 71.7123 102.599 71.7123 102.023ZM79.4956 102.023C79.4956 102.716 79.4205 103.32 79.2701 103.833C79.1235 104.343 78.9181 104.764 78.6541 105.098C78.3938 105.432 78.084 105.681 77.7246 105.846C77.369 106.007 76.984 106.088 76.5696 106.088C76.1553 106.088 75.7703 106.007 75.4146 105.846C75.0626 105.681 74.7565 105.432 74.4961 105.098C74.2358 104.764 74.0323 104.343 73.8856 103.833C73.739 103.32 73.6656 102.716 73.6656 102.023C73.6656 101.327 73.739 100.724 73.8856 100.214C74.0323 99.7043 74.2358 99.2827 74.4961 98.949C74.7565 98.6153 75.0626 98.3678 75.4146 98.2065C75.7703 98.0415 76.1553 97.959 76.5696 97.959C76.984 97.959 77.369 98.0415 77.7246 98.2065C78.084 98.3678 78.3938 98.6153 78.6541 98.949C78.9181 99.2827 79.1235 99.7043 79.2701 100.214C79.4205 100.724 79.4956 101.327 79.4956 102.023ZM78.0931 102.023C78.0931 101.448 78.051 100.971 77.9666 100.593C77.8823 100.216 77.7686 99.9152 77.6256 99.6915C77.4863 99.4678 77.325 99.312 77.1416 99.224C76.9583 99.1323 76.7676 99.0865 76.5696 99.0865C76.3753 99.0865 76.1865 99.1323 76.0031 99.224C75.8235 99.312 75.664 99.4678 75.5246 99.6915C75.3853 99.9152 75.2735 100.216 75.1891 100.593C75.1085 100.971 75.0681 101.448 75.0681 102.023C75.0681 102.599 75.1085 103.076 75.1891 103.453C75.2735 103.831 75.3853 104.132 75.5246 104.355C75.664 104.579 75.8235 104.737 76.0031 104.828C76.1865 104.916 76.3753 104.96 76.5696 104.96C76.7676 104.96 76.9583 104.916 77.1416 104.828C77.325 104.737 77.4863 104.579 77.6256 104.355C77.7686 104.132 77.8823 103.831 77.9666 103.453C78.051 103.076 78.0931 102.599 78.0931 102.023ZM81.207 102.551C81.207 101.796 81.1153 101.054 80.932 100.324C80.7523 99.5907 80.492 98.905 80.151 98.267C80.1107 98.19 80.0868 98.124 80.0795 98.069C80.0758 98.0103 80.0813 97.9608 80.096 97.9205C80.1107 97.8765 80.1327 97.8398 80.162 97.8105C80.195 97.7775 80.2317 97.75 80.272 97.728L80.877 97.365C81.1483 97.783 81.3793 98.2028 81.57 98.6245C81.7607 99.0425 81.9165 99.466 82.0375 99.895C82.1585 100.324 82.2465 100.76 82.3015 101.204C82.3565 101.644 82.384 102.093 82.384 102.551C82.384 103.01 82.3565 103.459 82.3015 103.899C82.2465 104.339 82.1585 104.773 82.0375 105.202C81.9165 105.631 81.7607 106.057 81.57 106.479C81.3793 106.9 81.1483 107.32 80.877 107.738L80.272 107.37C80.2317 107.348 80.195 107.32 80.162 107.287C80.1327 107.258 80.1107 107.221 80.096 107.177C80.0813 107.137 80.0758 107.087 80.0795 107.029C80.0868 106.974 80.1107 106.909 80.151 106.836C80.492 106.194 80.7523 105.509 80.932 104.779C81.1153 104.049 81.207 103.307 81.207 102.551Z" fill="white"/>
<path d="M239.579 36.5515C239.579 37.3068 239.67 38.0493 239.854 38.779C240.037 39.5087 240.299 40.1943 240.64 40.836C240.677 40.9093 240.697 40.9735 240.701 41.0285C240.708 41.0872 240.704 41.1367 240.69 41.177C240.675 41.221 240.651 41.2577 240.618 41.287C240.589 41.32 240.556 41.3475 240.519 41.3695L239.914 41.738C239.643 41.32 239.412 40.9002 239.221 40.4785C239.03 40.0568 238.875 39.6315 238.754 39.2025C238.633 38.7735 238.543 38.339 238.484 37.899C238.429 37.459 238.402 37.0098 238.402 36.5515C238.402 36.0932 238.429 35.644 238.484 35.204C238.543 34.7603 238.633 34.324 238.754 33.895C238.875 33.466 239.03 33.0425 239.221 32.6245C239.412 32.2028 239.643 31.783 239.914 31.365L240.519 31.728C240.556 31.75 240.589 31.7775 240.618 31.8105C240.651 31.8398 240.675 31.8765 240.69 31.9205C240.704 31.9608 240.708 32.0103 240.701 32.069C240.697 32.124 240.677 32.19 240.64 32.267C240.299 32.905 240.037 33.5907 239.854 34.324C239.67 35.0537 239.579 35.7962 239.579 36.5515ZM246.414 38.735C246.561 38.735 246.676 38.7772 246.761 38.8615C246.849 38.9422 246.893 39.0503 246.893 39.186V40H241.437V39.549C241.437 39.4573 241.455 39.362 241.492 39.263C241.532 39.1603 241.594 39.0687 241.679 38.988L244.093 36.568C244.295 36.3627 244.474 36.1665 244.632 35.9795C244.793 35.7925 244.927 35.6073 245.034 35.424C245.14 35.2407 245.221 35.0555 245.276 34.8685C245.334 34.6778 245.364 34.478 245.364 34.269C245.364 34.0783 245.336 33.9115 245.281 33.7685C245.226 33.6218 245.147 33.499 245.045 33.4C244.946 33.301 244.825 33.2277 244.682 33.18C244.542 33.1287 244.385 33.103 244.209 33.103C244.047 33.103 243.897 33.1268 243.758 33.1745C243.622 33.2185 243.501 33.2827 243.395 33.367C243.288 33.4477 243.198 33.543 243.125 33.653C243.052 33.763 242.997 33.884 242.96 34.016C242.898 34.1847 242.817 34.2965 242.718 34.3515C242.619 34.4065 242.476 34.4193 242.289 34.39L241.574 34.2635C241.629 33.8822 241.735 33.5485 241.893 33.2625C242.051 32.9728 242.247 32.7327 242.482 32.542C242.72 32.3477 242.991 32.2028 243.296 32.1075C243.604 32.0085 243.934 31.959 244.286 31.959C244.652 31.959 244.988 32.014 245.292 32.124C245.596 32.2303 245.857 32.3825 246.073 32.5805C246.289 32.7785 246.458 33.0168 246.579 33.2955C246.7 33.5742 246.761 33.884 246.761 34.225C246.761 34.5183 246.717 34.7897 246.629 35.039C246.544 35.2883 246.429 35.5267 246.282 35.754C246.139 35.9813 245.97 36.2013 245.776 36.414C245.582 36.6267 245.378 36.843 245.166 37.063L243.373 38.8945C243.545 38.8432 243.715 38.8047 243.884 38.779C244.056 38.7497 244.22 38.735 244.374 38.735H246.414ZM247.872 39.252C247.872 39.1383 247.893 39.0302 247.933 38.9275C247.977 38.8248 248.036 38.7368 248.109 38.6635C248.182 38.5902 248.27 38.5315 248.373 38.4875C248.476 38.4435 248.586 38.4215 248.703 38.4215C248.82 38.4215 248.928 38.4435 249.027 38.4875C249.13 38.5315 249.218 38.5902 249.291 38.6635C249.368 38.7368 249.429 38.8248 249.473 38.9275C249.517 39.0302 249.539 39.1383 249.539 39.252C249.539 39.3693 249.517 39.4793 249.473 39.582C249.429 39.681 249.368 39.7672 249.291 39.8405C249.218 39.9138 249.13 39.9707 249.027 40.011C248.928 40.055 248.82 40.077 248.703 40.077C248.586 40.077 248.476 40.055 248.373 40.011C248.27 39.9707 248.182 39.9138 248.109 39.8405C248.036 39.7672 247.977 39.681 247.933 39.582C247.893 39.4793 247.872 39.3693 247.872 39.252ZM256.115 36.0235C256.115 36.7165 256.04 37.3197 255.889 37.833C255.743 38.3427 255.537 38.7643 255.273 39.098C255.013 39.4317 254.703 39.681 254.344 39.846C253.988 40.0073 253.603 40.088 253.189 40.088C252.774 40.088 252.389 40.0073 252.034 39.846C251.682 39.681 251.376 39.4317 251.115 39.098C250.855 38.7643 250.651 38.3427 250.505 37.833C250.358 37.3197 250.285 36.7165 250.285 36.0235C250.285 35.3268 250.358 34.7237 250.505 34.214C250.651 33.7043 250.855 33.2827 251.115 32.949C251.376 32.6153 251.682 32.3678 252.034 32.2065C252.389 32.0415 252.774 31.959 253.189 31.959C253.603 31.959 253.988 32.0415 254.344 32.2065C254.703 32.3678 255.013 32.6153 255.273 32.949C255.537 33.2827 255.743 33.7043 255.889 34.214C256.04 34.7237 256.115 35.3268 256.115 36.0235ZM254.712 36.0235C254.712 35.4478 254.67 34.9712 254.586 34.5935C254.501 34.2158 254.388 33.9152 254.245 33.6915C254.105 33.4678 253.944 33.312 253.761 33.224C253.577 33.1323 253.387 33.0865 253.189 33.0865C252.994 33.0865 252.806 33.1323 252.622 33.224C252.443 33.312 252.283 33.4678 252.144 33.6915C252.004 33.9152 251.893 34.2158 251.808 34.5935C251.728 34.9712 251.687 35.4478 251.687 36.0235C251.687 36.5992 251.728 37.0758 251.808 37.4535C251.893 37.8312 252.004 38.1318 252.144 38.3555C252.283 38.5792 252.443 38.7368 252.622 38.8285C252.806 38.9165 252.994 38.9605 253.189 38.9605C253.387 38.9605 253.577 38.9165 253.761 38.8285C253.944 38.7368 254.105 38.5792 254.245 38.3555C254.388 38.1318 254.501 37.8312 254.586 37.4535C254.67 37.0758 254.712 36.5992 254.712 36.0235ZM262.496 36.0235C262.496 36.7165 262.42 37.3197 262.27 37.833C262.123 38.3427 261.918 38.7643 261.654 39.098C261.394 39.4317 261.084 39.681 260.725 39.846C260.369 40.0073 259.984 40.088 259.57 40.088C259.155 40.088 258.77 40.0073 258.415 39.846C258.063 39.681 257.756 39.4317 257.496 39.098C257.236 38.7643 257.032 38.3427 256.886 37.833C256.739 37.3197 256.666 36.7165 256.666 36.0235C256.666 35.3268 256.739 34.7237 256.886 34.214C257.032 33.7043 257.236 33.2827 257.496 32.949C257.756 32.6153 258.063 32.3678 258.415 32.2065C258.77 32.0415 259.155 31.959 259.57 31.959C259.984 31.959 260.369 32.0415 260.725 32.2065C261.084 32.3678 261.394 32.6153 261.654 32.949C261.918 33.2827 262.123 33.7043 262.27 34.214C262.42 34.7237 262.496 35.3268 262.496 36.0235ZM261.093 36.0235C261.093 35.4478 261.051 34.9712 260.967 34.5935C260.882 34.2158 260.769 33.9152 260.626 33.6915C260.486 33.4678 260.325 33.312 260.142 33.224C259.958 33.1323 259.768 33.0865 259.57 33.0865C259.375 33.0865 259.186 33.1323 259.003 33.224C258.823 33.312 258.664 33.4678 258.525 33.6915C258.385 33.9152 258.273 34.2158 258.189 34.5935C258.108 34.9712 258.068 35.4478 258.068 36.0235C258.068 36.5992 258.108 37.0758 258.189 37.4535C258.273 37.8312 258.385 38.1318 258.525 38.3555C258.664 38.5792 258.823 38.7368 259.003 38.8285C259.186 38.9165 259.375 38.9605 259.57 38.9605C259.768 38.9605 259.958 38.9165 260.142 38.8285C260.325 38.7368 260.486 38.5792 260.626 38.3555C260.769 38.1318 260.882 37.8312 260.967 37.4535C261.051 37.0758 261.093 36.5992 261.093 36.0235ZM264.207 36.5515C264.207 35.7962 264.115 35.0537 263.932 34.324C263.752 33.5907 263.492 32.905 263.151 32.267C263.111 32.19 263.087 32.124 263.079 32.069C263.076 32.0103 263.081 31.9608 263.096 31.9205C263.111 31.8765 263.133 31.8398 263.162 31.8105C263.195 31.7775 263.232 31.75 263.272 31.728L263.877 31.365C264.148 31.783 264.379 32.2028 264.57 32.6245C264.761 33.0425 264.916 33.466 265.037 33.895C265.158 34.324 265.246 34.7603 265.301 35.204C265.356 35.644 265.384 36.0932 265.384 36.5515C265.384 37.0098 265.356 37.459 265.301 37.899C265.246 38.339 265.158 38.7735 265.037 39.2025C264.916 39.6315 264.761 40.0568 264.57 40.4785C264.379 40.9002 264.148 41.32 263.877 41.738L263.272 41.3695C263.232 41.3475 263.195 41.32 263.162 41.287C263.133 41.2577 263.111 41.221 263.096 41.177C263.081 41.1367 263.076 41.0872 263.079 41.0285C263.087 40.9735 263.111 40.9093 263.151 40.836C263.492 40.1943 263.752 39.5087 263.932 38.779C264.115 38.0493 264.207 37.3068 264.207 36.5515Z" fill="white"/>
<path d="M292.579 102.551C292.579 103.307 292.67 104.049 292.854 104.779C293.037 105.509 293.299 106.194 293.64 106.836C293.677 106.909 293.697 106.974 293.701 107.029C293.708 107.087 293.704 107.137 293.69 107.177C293.675 107.221 293.651 107.258 293.618 107.287C293.589 107.32 293.556 107.348 293.519 107.37L292.914 107.738C292.643 107.32 292.412 106.9 292.221 106.479C292.03 106.057 291.875 105.631 291.754 105.202C291.633 104.773 291.543 104.339 291.484 103.899C291.429 103.459 291.402 103.01 291.402 102.551C291.402 102.093 291.429 101.644 291.484 101.204C291.543 100.76 291.633 100.324 291.754 99.895C291.875 99.466 292.03 99.0425 292.221 98.6245C292.412 98.2028 292.643 97.783 292.914 97.365L293.519 97.728C293.556 97.75 293.589 97.7775 293.618 97.8105C293.651 97.8398 293.675 97.8765 293.69 97.9205C293.704 97.9608 293.708 98.0103 293.701 98.069C293.697 98.124 293.677 98.19 293.64 98.267C293.299 98.905 293.037 99.5907 292.854 100.324C292.67 101.054 292.579 101.796 292.579 102.551ZM299.414 104.735C299.561 104.735 299.676 104.777 299.761 104.861C299.849 104.942 299.893 105.05 299.893 105.186V106H294.437V105.549C294.437 105.457 294.455 105.362 294.492 105.263C294.532 105.16 294.594 105.069 294.679 104.988L297.093 102.568C297.295 102.363 297.474 102.166 297.632 101.979C297.793 101.792 297.927 101.607 298.034 101.424C298.14 101.241 298.221 101.055 298.276 100.868C298.334 100.678 298.364 100.478 298.364 100.269C298.364 100.078 298.336 99.9115 298.281 99.7685C298.226 99.6218 298.147 99.499 298.045 99.4C297.946 99.301 297.825 99.2277 297.682 99.18C297.542 99.1287 297.385 99.103 297.209 99.103C297.047 99.103 296.897 99.1268 296.758 99.1745C296.622 99.2185 296.501 99.2827 296.395 99.367C296.288 99.4477 296.198 99.543 296.125 99.653C296.052 99.763 295.997 99.884 295.96 100.016C295.898 100.185 295.817 100.296 295.718 100.351C295.619 100.406 295.476 100.419 295.289 100.39L294.574 100.263C294.629 99.8822 294.735 99.5485 294.893 99.2625C295.051 98.9728 295.247 98.7327 295.482 98.542C295.72 98.3477 295.991 98.2028 296.296 98.1075C296.604 98.0085 296.934 97.959 297.286 97.959C297.652 97.959 297.988 98.014 298.292 98.124C298.596 98.2303 298.857 98.3825 299.073 98.5805C299.289 98.7785 299.458 99.0168 299.579 99.2955C299.7 99.5742 299.761 99.884 299.761 100.225C299.761 100.518 299.717 100.79 299.629 101.039C299.544 101.288 299.429 101.527 299.282 101.754C299.139 101.981 298.97 102.201 298.776 102.414C298.582 102.627 298.378 102.843 298.166 103.063L296.373 104.894C296.545 104.843 296.715 104.805 296.884 104.779C297.056 104.75 297.22 104.735 297.374 104.735H299.414ZM300.872 105.252C300.872 105.138 300.893 105.03 300.933 104.927C300.977 104.825 301.036 104.737 301.109 104.663C301.182 104.59 301.27 104.531 301.373 104.487C301.476 104.443 301.586 104.421 301.703 104.421C301.82 104.421 301.928 104.443 302.027 104.487C302.13 104.531 302.218 104.59 302.291 104.663C302.368 104.737 302.429 104.825 302.473 104.927C302.517 105.03 302.539 105.138 302.539 105.252C302.539 105.369 302.517 105.479 302.473 105.582C302.429 105.681 302.368 105.767 302.291 105.84C302.218 105.914 302.13 105.971 302.027 106.011C301.928 106.055 301.82 106.077 301.703 106.077C301.586 106.077 301.476 106.055 301.373 106.011C301.27 105.971 301.182 105.914 301.109 105.84C301.036 105.767 300.977 105.681 300.933 105.582C300.893 105.479 300.872 105.369 300.872 105.252ZM309.115 102.023C309.115 102.716 309.04 103.32 308.889 103.833C308.743 104.343 308.537 104.764 308.273 105.098C308.013 105.432 307.703 105.681 307.344 105.846C306.988 106.007 306.603 106.088 306.189 106.088C305.774 106.088 305.389 106.007 305.034 105.846C304.682 105.681 304.376 105.432 304.115 105.098C303.855 104.764 303.651 104.343 303.505 103.833C303.358 103.32 303.285 102.716 303.285 102.023C303.285 101.327 303.358 100.724 303.505 100.214C303.651 99.7043 303.855 99.2827 304.115 98.949C304.376 98.6153 304.682 98.3678 305.034 98.2065C305.389 98.0415 305.774 97.959 306.189 97.959C306.603 97.959 306.988 98.0415 307.344 98.2065C307.703 98.3678 308.013 98.6153 308.273 98.949C308.537 99.2827 308.743 99.7043 308.889 100.214C309.04 100.724 309.115 101.327 309.115 102.023ZM307.712 102.023C307.712 101.448 307.67 100.971 307.586 100.593C307.501 100.216 307.388 99.9152 307.245 99.6915C307.105 99.4678 306.944 99.312 306.761 99.224C306.577 99.1323 306.387 99.0865 306.189 99.0865C305.994 99.0865 305.806 99.1323 305.622 99.224C305.443 99.312 305.283 99.4678 305.144 99.6915C305.004 99.9152 304.893 100.216 304.808 100.593C304.728 100.971 304.687 101.448 304.687 102.023C304.687 102.599 304.728 103.076 304.808 103.453C304.893 103.831 305.004 104.132 305.144 104.355C305.283 104.579 305.443 104.737 305.622 104.828C305.806 104.916 305.994 104.96 306.189 104.96C306.387 104.96 306.577 104.916 306.761 104.828C306.944 104.737 307.105 104.579 307.245 104.355C307.388 104.132 307.501 103.831 307.586 103.453C307.67 103.076 307.712 102.599 307.712 102.023ZM315.496 102.023C315.496 102.716 315.42 103.32 315.27 103.833C315.123 104.343 314.918 104.764 314.654 105.098C314.394 105.432 314.084 105.681 313.725 105.846C313.369 106.007 312.984 106.088 312.57 106.088C312.155 106.088 311.77 106.007 311.415 105.846C311.063 105.681 310.756 105.432 310.496 105.098C310.236 104.764 310.032 104.343 309.886 103.833C309.739 103.32 309.666 102.716 309.666 102.023C309.666 101.327 309.739 100.724 309.886 100.214C310.032 99.7043 310.236 99.2827 310.496 98.949C310.756 98.6153 311.063 98.3678 311.415 98.2065C311.77 98.0415 312.155 97.959 312.57 97.959C312.984 97.959 313.369 98.0415 313.725 98.2065C314.084 98.3678 314.394 98.6153 314.654 98.949C314.918 99.2827 315.123 99.7043 315.27 100.214C315.42 100.724 315.496 101.327 315.496 102.023ZM314.093 102.023C314.093 101.448 314.051 100.971 313.967 100.593C313.882 100.216 313.769 99.9152 313.626 99.6915C313.486 99.4678 313.325 99.312 313.142 99.224C312.958 99.1323 312.768 99.0865 312.57 99.0865C312.375 99.0865 312.186 99.1323 312.003 99.224C311.823 99.312 311.664 99.4678 311.525 99.6915C311.385 99.9152 311.273 100.216 311.189 100.593C311.108 100.971 311.068 101.448 311.068 102.023C311.068 102.599 311.108 103.076 311.189 103.453C311.273 103.831 311.385 104.132 311.525 104.355C311.664 104.579 311.823 104.737 312.003 104.828C312.186 104.916 312.375 104.96 312.57 104.96C312.768 104.96 312.958 104.916 313.142 104.828C313.325 104.737 313.486 104.579 313.626 104.355C313.769 104.132 313.882 103.831 313.967 103.453C314.051 103.076 314.093 102.599 314.093 102.023ZM317.207 102.551C317.207 101.796 317.115 101.054 316.932 100.324C316.752 99.5907 316.492 98.905 316.151 98.267C316.111 98.19 316.087 98.124 316.079 98.069C316.076 98.0103 316.081 97.9608 316.096 97.9205C316.111 97.8765 316.133 97.8398 316.162 97.8105C316.195 97.7775 316.232 97.75 316.272 97.728L316.877 97.365C317.148 97.783 317.379 98.2028 317.57 98.6245C317.761 99.0425 317.916 99.466 318.037 99.895C318.158 100.324 318.246 100.76 318.301 101.204C318.356 101.644 318.384 102.093 318.384 102.551C318.384 103.01 318.356 103.459 318.301 103.899C318.246 104.339 318.158 104.773 318.037 105.202C317.916 105.631 317.761 106.057 317.57 106.479C317.379 106.9 317.148 107.32 316.877 107.738L316.272 107.37C316.232 107.348 316.195 107.32 316.162 107.287C316.133 107.258 316.111 107.221 316.096 107.177C316.081 107.137 316.076 107.087 316.079 107.029C316.087 106.974 316.111 106.909 316.151 106.836C316.492 106.194 316.752 105.509 316.932 104.779C317.115 104.049 317.207 103.307 317.207 102.551Z" fill="white"/>
<g filter="url(#filter1_d_210_31)">
<path d="M188.579 103.551C188.579 104.307 188.67 105.049 188.854 105.779C189.037 106.509 189.299 107.194 189.64 107.836C189.677 107.909 189.697 107.974 189.701 108.029C189.708 108.087 189.704 108.137 189.69 108.177C189.675 108.221 189.651 108.258 189.618 108.287C189.589 108.32 189.556 108.348 189.519 108.37L188.914 108.738C188.643 108.32 188.412 107.9 188.221 107.479C188.03 107.057 187.875 106.631 187.754 106.202C187.633 105.773 187.543 105.339 187.484 104.899C187.429 104.459 187.402 104.01 187.402 103.551C187.402 103.093 187.429 102.644 187.484 102.204C187.543 101.76 187.633 101.324 187.754 100.895C187.875 100.466 188.03 100.042 188.221 99.6245C188.412 99.2028 188.643 98.783 188.914 98.365L189.519 98.728C189.556 98.75 189.589 98.7775 189.618 98.8105C189.651 98.8398 189.675 98.8765 189.69 98.9205C189.704 98.9608 189.708 99.0103 189.701 99.069C189.697 99.124 189.677 99.19 189.64 99.267C189.299 99.905 189.037 100.591 188.854 101.324C188.67 102.054 188.579 102.796 188.579 103.551ZM190.646 103.111H193.495V104.244H190.646V103.111ZM199.815 105.982V107H195.415V105.982H197.026V101.346C197.026 101.163 197.032 100.974 197.043 100.779L195.899 101.736C195.833 101.788 195.767 101.821 195.701 101.835C195.638 101.846 195.578 101.846 195.519 101.835C195.464 101.824 195.415 101.806 195.371 101.78C195.327 101.751 195.294 101.72 195.272 101.687L194.843 101.098L197.268 99.036H198.385V105.982H199.815ZM200.976 106.252C200.976 106.138 200.996 106.03 201.036 105.927C201.08 105.825 201.139 105.737 201.212 105.663C201.286 105.59 201.374 105.531 201.476 105.487C201.579 105.443 201.689 105.421 201.806 105.421C201.924 105.421 202.032 105.443 202.131 105.487C202.234 105.531 202.322 105.59 202.395 105.663C202.472 105.737 202.532 105.825 202.576 105.927C202.62 106.03 202.642 106.138 202.642 106.252C202.642 106.369 202.62 106.479 202.576 106.582C202.532 106.681 202.472 106.767 202.395 106.84C202.322 106.914 202.234 106.971 202.131 107.011C202.032 107.055 201.924 107.077 201.806 107.077C201.689 107.077 201.579 107.055 201.476 107.011C201.374 106.971 201.286 106.914 201.212 106.84C201.139 106.767 201.08 106.681 201.036 106.582C200.996 106.479 200.976 106.369 200.976 106.252ZM209.218 103.023C209.218 103.716 209.143 104.32 208.993 104.833C208.846 105.343 208.641 105.764 208.377 106.098C208.116 106.432 207.807 106.681 207.447 106.846C207.092 107.007 206.707 107.088 206.292 107.088C205.878 107.088 205.493 107.007 205.137 106.846C204.785 106.681 204.479 106.432 204.219 106.098C203.958 105.764 203.755 105.343 203.608 104.833C203.462 104.32 203.388 103.716 203.388 103.023C203.388 102.327 203.462 101.724 203.608 101.214C203.755 100.704 203.958 100.283 204.219 99.949C204.479 99.6153 204.785 99.3678 205.137 99.2065C205.493 99.0415 205.878 98.959 206.292 98.959C206.707 98.959 207.092 99.0415 207.447 99.2065C207.807 99.3678 208.116 99.6153 208.377 99.949C208.641 100.283 208.846 100.704 208.993 101.214C209.143 101.724 209.218 102.327 209.218 103.023ZM207.816 103.023C207.816 102.448 207.774 101.971 207.689 101.593C207.605 101.216 207.491 100.915 207.348 100.691C207.209 100.468 207.048 100.312 206.864 100.224C206.681 100.132 206.49 100.086 206.292 100.086C206.098 100.086 205.909 100.132 205.726 100.224C205.546 100.312 205.387 100.468 205.247 100.691C205.108 100.915 204.996 101.216 204.912 101.593C204.831 101.971 204.791 102.448 204.791 103.023C204.791 103.599 204.831 104.076 204.912 104.453C204.996 104.831 205.108 105.132 205.247 105.355C205.387 105.579 205.546 105.737 205.726 105.828C205.909 105.916 206.098 105.96 206.292 105.96C206.49 105.96 206.681 105.916 206.864 105.828C207.048 105.737 207.209 105.579 207.348 105.355C207.491 105.132 207.605 104.831 207.689 104.453C207.774 104.076 207.816 103.599 207.816 103.023ZM215.599 103.023C215.599 103.716 215.524 104.32 215.374 104.833C215.227 105.343 215.022 105.764 214.758 106.098C214.497 106.432 214.187 106.681 213.828 106.846C213.472 107.007 213.087 107.088 212.673 107.088C212.259 107.088 211.874 107.007 211.518 106.846C211.166 106.681 210.86 106.432 210.6 106.098C210.339 105.764 210.136 105.343 209.989 104.833C209.842 104.32 209.769 103.716 209.769 103.023C209.769 102.327 209.842 101.724 209.989 101.214C210.136 100.704 210.339 100.283 210.6 99.949C210.86 99.6153 211.166 99.3678 211.518 99.2065C211.874 99.0415 212.259 98.959 212.673 98.959C213.087 98.959 213.472 99.0415 213.828 99.2065C214.187 99.3678 214.497 99.6153 214.758 99.949C215.022 100.283 215.227 100.704 215.374 101.214C215.524 101.724 215.599 102.327 215.599 103.023ZM214.197 103.023C214.197 102.448 214.154 101.971 214.07 101.593C213.986 101.216 213.872 100.915 213.729 100.691C213.59 100.468 213.428 100.312 213.245 100.224C213.062 100.132 212.871 100.086 212.673 100.086C212.479 100.086 212.29 100.132 212.107 100.224C211.927 100.312 211.767 100.468 211.628 100.691C211.489 100.915 211.377 101.216 211.293 101.593C211.212 101.971 211.172 102.448 211.172 103.023C211.172 103.599 211.212 104.076 211.293 104.453C211.377 104.831 211.489 105.132 211.628 105.355C211.767 105.579 211.927 105.737 212.107 105.828C212.29 105.916 212.479 105.96 212.673 105.96C212.871 105.96 213.062 105.916 213.245 105.828C213.428 105.737 213.59 105.579 213.729 105.355C213.872 105.132 213.986 104.831 214.07 104.453C214.154 104.076 214.197 103.599 214.197 103.023ZM217.311 103.551C217.311 102.796 217.219 102.054 217.036 101.324C216.856 100.591 216.596 99.905 216.255 99.267C216.214 99.19 216.19 99.124 216.183 99.069C216.179 99.0103 216.185 98.9608 216.2 98.9205C216.214 98.8765 216.236 98.8398 216.266 98.8105C216.299 98.7775 216.335 98.75 216.376 98.728L216.981 98.365C217.252 98.783 217.483 99.2028 217.674 99.6245C217.864 100.042 218.02 100.466 218.141 100.895C218.262 101.324 218.35 101.76 218.405 102.204C218.46 102.644 218.488 103.093 218.488 103.551C218.488 104.01 218.46 104.459 218.405 104.899C218.35 105.339 218.262 105.773 218.141 106.202C218.02 106.631 217.864 107.057 217.674 107.479C217.483 107.9 217.252 108.32 216.981 108.738L216.376 108.37C216.335 108.348 216.299 108.32 216.266 108.287C216.236 108.258 216.214 108.221 216.2 108.177C216.185 108.137 216.179 108.087 216.183 108.029C216.19 107.974 216.214 107.909 216.255 107.836C216.596 107.194 216.856 106.509 217.036 105.779C217.219 105.049 217.311 104.307 217.311 103.551Z" fill="white"/>
</g>
<path d="M153.348 106H151.874C151.771 106 151.689 105.974 151.627 105.923C151.568 105.872 151.52 105.813 151.484 105.747L149.641 102.694C149.612 102.786 149.577 102.865 149.537 102.931L147.771 105.747C147.727 105.809 147.676 105.868 147.617 105.923C147.562 105.974 147.489 106 147.397 106H146.017L148.657 101.908L146.121 98.047H147.595C147.698 98.047 147.771 98.0617 147.815 98.091C147.863 98.1167 147.907 98.1607 147.947 98.223L149.757 101.138C149.793 101.046 149.837 100.955 149.889 100.863L151.55 98.2505C151.59 98.1808 151.634 98.1295 151.681 98.0965C151.729 98.0635 151.79 98.047 151.863 98.047H153.277L150.719 101.847L153.348 106Z" fill="white"/>
<path d="M154.348 40H152.874C152.771 40 152.689 39.9743 152.627 39.923C152.568 39.8717 152.52 39.813 152.484 39.747L150.641 36.6945C150.612 36.7862 150.577 36.865 150.537 36.931L148.771 39.747C148.727 39.8093 148.676 39.868 148.617 39.923C148.562 39.9743 148.489 40 148.397 40H147.017L149.657 35.908L147.121 32.047H148.595C148.698 32.047 148.771 32.0617 148.815 32.091C148.863 32.1167 148.907 32.1607 148.947 32.223L150.757 35.138C150.793 35.0463 150.837 34.9547 150.889 34.863L152.55 32.2505C152.59 32.1808 152.634 32.1295 152.681 32.0965C152.729 32.0635 152.79 32.047 152.863 32.047H154.277L151.719 35.8475L154.348 40Z" fill="white"/>
<path d="M4.844 71.56L4.228 74.976H5.348V78.756H1.568V74.92L2.576 71.56H4.844ZM10.108 71.56L9.492 74.976H10.612V78.756H6.832V74.92L7.84 71.56H10.108ZM30.4246 92V78.952L25.3286 88.668H23.1726L18.0766 78.952V92H14.2126V72.12H18.3566L24.2366 83.432L30.1726 72.12H34.2886V92H30.4246ZM37.9352 86.512V77.328H41.6872V85.7C41.6872 87.9587 42.4992 89.088 44.1232 89.088C44.8512 89.088 45.5512 88.8733 46.2232 88.444C46.9139 87.996 47.4739 87.324 47.9032 86.428V77.328H51.6552V87.8C51.6552 88.2107 51.7205 88.5 51.8512 88.668C51.9819 88.8173 52.2152 88.9107 52.5512 88.948V92C52.1779 92.0747 51.8605 92.1213 51.5992 92.14C51.3565 92.1587 51.1325 92.168 50.9272 92.168C50.2552 92.168 49.7045 92.0187 49.2752 91.72C48.8645 91.4027 48.6219 90.9733 48.5472 90.432L48.4632 89.256C47.8099 90.264 46.9699 91.02 45.9432 91.524C44.9165 92.028 43.7872 92.28 42.5552 92.28C41.0432 92.28 39.8952 91.7947 39.1112 90.824C38.3272 89.8347 37.9352 88.3973 37.9352 86.512ZM60.7878 92.28C59.5371 92.28 58.3424 92.0747 57.2038 91.664C56.0651 91.2533 55.0851 90.6467 54.2638 89.844L55.6078 87.408C56.4851 88.1173 57.3438 88.64 58.1838 88.976C59.0238 89.312 59.8451 89.48 60.6478 89.48C61.3758 89.48 61.9544 89.3493 62.3838 89.088C62.8318 88.8267 63.0558 88.4347 63.0558 87.912C63.0558 87.3707 62.7851 87.0067 62.2438 86.82C61.7024 86.6147 60.9464 86.3627 59.9758 86.064C58.8931 85.728 57.9878 85.3827 57.2598 85.028C56.5318 84.6733 55.9811 84.244 55.6078 83.74C55.2531 83.236 55.0758 82.5827 55.0758 81.78C55.0758 80.3427 55.6171 79.1947 56.6998 78.336C57.7824 77.4773 59.2198 77.048 61.0118 77.048C62.0571 77.048 63.0464 77.216 63.9798 77.552C64.9131 77.8693 65.7624 78.392 66.5278 79.12L65.0158 81.5C63.5784 80.38 62.1878 79.82 60.8438 79.82C60.2464 79.82 59.7144 79.932 59.2478 80.156C58.7998 80.38 58.5758 80.772 58.5758 81.332C58.5758 81.8547 58.7904 82.228 59.2198 82.452C59.6678 82.676 60.3398 82.9187 61.2358 83.18C62.3931 83.5347 63.3731 83.88 64.1758 84.216C64.9971 84.552 65.6131 84.9813 66.0238 85.504C66.4531 86.0267 66.6678 86.736 66.6678 87.632C66.6678 89.088 66.1358 90.2267 65.0718 91.048C64.0078 91.8693 62.5798 92.28 60.7878 92.28ZM69.1917 71.56H72.9437V87.296C72.9437 87.9867 73.0557 88.444 73.2797 88.668C73.5037 88.892 73.8117 89.004 74.2037 89.004C74.5024 89.004 74.8104 88.9667 75.1277 88.892C75.4451 88.8173 75.7251 88.724 75.9677 88.612L76.4717 91.468C75.9677 91.7107 75.3797 91.8973 74.7077 92.028C74.0357 92.1587 73.4291 92.224 72.8877 92.224C71.7117 92.224 70.7971 91.916 70.1437 91.3C69.5091 90.6653 69.1917 89.7693 69.1917 88.612V71.56ZM78.1064 75.284V71.56H81.8584V75.284H78.1064ZM78.1064 92V77.328H81.8584V92H78.1064ZM108.035 92H104.283V83.768C104.283 82.6107 104.078 81.7613 103.667 81.22C103.275 80.66 102.724 80.38 102.015 80.38C101.268 80.38 100.568 80.6693 99.9152 81.248C99.2618 81.808 98.7952 82.5453 98.5152 83.46V92H94.7632V83.768C94.7632 82.592 94.5578 81.7333 94.1472 81.192C93.7552 80.6507 93.2045 80.38 92.4952 80.38C91.7672 80.38 91.0672 80.66 90.3952 81.22C89.7418 81.78 89.2752 82.5173 88.9952 83.432V92H85.2432V77.328H88.6312V80.044C89.1725 79.092 89.9098 78.364 90.8432 77.86C91.7952 77.3373 92.8778 77.076 94.0912 77.076C95.3045 77.076 96.2472 77.3747 96.9192 77.972C97.6098 78.5693 98.0485 79.3067 98.2352 80.184C98.8138 79.176 99.5698 78.4107 100.503 77.888C101.436 77.3467 102.482 77.076 103.639 77.076C104.554 77.076 105.291 77.244 105.851 77.58C106.43 77.8973 106.878 78.336 107.195 78.896C107.512 79.4373 107.727 80.0533 107.839 80.744C107.97 81.4347 108.035 82.1347 108.035 82.844V92ZM116.706 92.28C115.455 92.28 114.26 92.0747 113.122 91.664C111.983 91.2533 111.003 90.6467 110.182 89.844L111.526 87.408C112.403 88.1173 113.262 88.64 114.102 88.976C114.942 89.312 115.763 89.48 116.566 89.48C117.294 89.48 117.872 89.3493 118.302 89.088C118.75 88.8267 118.974 88.4347 118.974 87.912C118.974 87.3707 118.703 87.0067 118.162 86.82C117.62 86.6147 116.864 86.3627 115.894 86.064C114.811 85.728 113.906 85.3827 113.178 85.028C112.45 84.6733 111.899 84.244 111.526 83.74C111.171 83.236 110.994 82.5827 110.994 81.78C110.994 80.3427 111.535 79.1947 112.618 78.336C113.7 77.4773 115.138 77.048 116.93 77.048C117.975 77.048 118.964 77.216 119.898 77.552C120.831 77.8693 121.68 78.392 122.446 79.12L120.934 81.5C119.496 80.38 118.106 79.82 116.762 79.82C116.164 79.82 115.632 79.932 115.166 80.156C114.718 80.38 114.494 80.772 114.494 81.332C114.494 81.8547 114.708 82.228 115.138 82.452C115.586 82.676 116.258 82.9187 117.154 83.18C118.311 83.5347 119.291 83.88 120.094 84.216C120.915 84.552 121.531 84.9813 121.942 85.504C122.371 86.0267 122.586 86.736 122.586 87.632C122.586 89.088 122.054 90.2267 120.99 91.048C119.926 91.8693 118.498 92.28 116.706 92.28ZM130.856 87.66C130.856 86.708 131.118 85.8773 131.64 85.168C132.182 84.44 132.928 83.88 133.88 83.488C134.832 83.096 135.924 82.9 137.156 82.9C137.772 82.9 138.398 82.956 139.032 83.068C139.667 83.1613 140.218 83.3013 140.684 83.488V82.704C140.684 81.7707 140.404 81.052 139.844 80.548C139.303 80.044 138.491 79.792 137.408 79.792C136.606 79.792 135.84 79.932 135.112 80.212C134.384 80.492 133.619 80.9027 132.816 81.444L131.612 78.98C132.583 78.3453 133.572 77.8693 134.58 77.552C135.607 77.2347 136.68 77.076 137.8 77.076C139.891 77.076 141.515 77.5987 142.672 78.644C143.848 79.6893 144.436 81.1827 144.436 83.124V87.8C144.436 88.2107 144.502 88.5 144.632 88.668C144.763 88.8173 144.996 88.9107 145.332 88.948V92C144.996 92.0747 144.688 92.1213 144.408 92.14C144.147 92.1773 143.923 92.196 143.736 92.196C142.99 92.196 142.42 92.028 142.028 91.692C141.636 91.356 141.403 90.9453 141.328 90.46L141.244 89.704C140.591 90.544 139.788 91.188 138.836 91.636C137.903 92.0653 136.942 92.28 135.952 92.28C134.963 92.28 134.086 92.084 133.32 91.692C132.555 91.2813 131.948 90.7307 131.5 90.04C131.071 89.3307 130.856 88.5373 130.856 87.66ZM139.984 88.416C140.451 87.968 140.684 87.5387 140.684 87.128V85.644C139.714 85.252 138.734 85.056 137.744 85.056C136.755 85.056 135.952 85.2707 135.336 85.7C134.72 86.1107 134.412 86.6613 134.412 87.352C134.412 87.912 134.636 88.416 135.084 88.864C135.532 89.312 136.176 89.536 137.016 89.536C137.576 89.536 138.118 89.4333 138.64 89.228C139.182 89.0227 139.63 88.752 139.984 88.416ZM156.678 80.576C155.54 80.576 154.522 80.8 153.626 81.248C152.73 81.6773 152.086 82.3027 151.694 83.124V92H147.942V77.328H151.386V80.464C151.89 79.456 152.544 78.6627 153.346 78.084C154.168 77.5053 155.026 77.188 155.922 77.132C156.314 77.132 156.566 77.1413 156.678 77.16V80.576ZM165.383 92.28C163.796 92.28 162.424 91.9347 161.267 91.244C160.128 90.5533 159.242 89.6387 158.607 88.5C157.972 87.3427 157.655 86.092 157.655 84.748C157.655 83.3667 157.963 82.0973 158.579 80.94C159.214 79.764 160.11 78.8307 161.267 78.14C162.424 77.4307 163.806 77.076 165.411 77.076C167.016 77.076 168.388 77.4307 169.527 78.14C170.666 78.8307 171.534 79.7547 172.131 80.912C172.747 82.0507 173.055 83.2827 173.055 84.608C173.055 85.0933 173.027 85.5133 172.971 85.868H161.631C161.724 87.0067 162.144 87.9027 162.891 88.556C163.656 89.2093 164.534 89.536 165.523 89.536C166.27 89.536 166.97 89.3587 167.623 89.004C168.295 88.6307 168.752 88.1453 168.995 87.548L172.215 88.444C171.674 89.564 170.806 90.488 169.611 91.216C168.416 91.9253 167.007 92.28 165.383 92.28ZM161.547 83.488H169.219C169.107 82.3867 168.687 81.5 167.959 80.828C167.25 80.1373 166.382 79.792 165.355 79.792C164.347 79.792 163.479 80.1373 162.751 80.828C162.042 81.5 161.64 82.3867 161.547 83.488ZM195.703 92H191.951V83.768C191.951 82.592 191.746 81.7333 191.335 81.192C190.925 80.6507 190.355 80.38 189.627 80.38C189.123 80.38 188.61 80.5107 188.087 80.772C187.583 81.0333 187.126 81.3973 186.715 81.864C186.305 82.312 186.006 82.8347 185.819 83.432V92H182.067V77.328H185.455V80.044C185.997 79.1293 186.781 78.4107 187.807 77.888C188.834 77.3467 189.991 77.076 191.279 77.076C192.194 77.076 192.941 77.244 193.519 77.58C194.098 77.8973 194.546 78.336 194.863 78.896C195.181 79.4373 195.395 80.0533 195.507 80.744C195.638 81.4347 195.703 82.1347 195.703 82.844V92ZM205.742 92.28C204.136 92.28 202.755 91.9347 201.598 91.244C200.459 90.5347 199.582 89.6013 198.966 88.444C198.35 87.2867 198.042 86.036 198.042 84.692C198.042 83.3293 198.35 82.0693 198.966 80.912C199.6 79.7547 200.487 78.8307 201.626 78.14C202.783 77.4307 204.155 77.076 205.742 77.076C207.328 77.076 208.691 77.4307 209.83 78.14C210.987 78.8307 211.874 79.7547 212.49 80.912C213.106 82.0693 213.414 83.3293 213.414 84.692C213.414 86.036 213.106 87.2867 212.49 88.444C211.874 89.6013 210.987 90.5347 209.83 91.244C208.691 91.9347 207.328 92.28 205.742 92.28ZM201.906 84.692C201.906 85.5507 202.074 86.316 202.41 86.988C202.746 87.6413 203.203 88.1547 203.782 88.528C204.36 88.9013 205.014 89.088 205.742 89.088C206.451 89.088 207.095 88.9013 207.674 88.528C208.252 88.136 208.71 87.6133 209.046 86.96C209.4 86.288 209.578 85.5227 209.578 84.664C209.578 83.824 209.4 83.0773 209.046 82.424C208.71 81.752 208.252 81.2293 207.674 80.856C207.095 80.464 206.451 80.268 205.742 80.268C205.014 80.268 204.36 80.464 203.782 80.856C203.203 81.2293 202.746 81.752 202.41 82.424C202.074 83.0773 201.906 83.8333 201.906 84.692ZM224.52 91.244C224.016 91.468 223.39 91.692 222.644 91.916C221.916 92.14 221.16 92.252 220.376 92.252C219.685 92.252 219.05 92.1307 218.472 91.888C217.893 91.6453 217.426 91.2627 217.072 90.74C216.736 90.1987 216.568 89.4987 216.568 88.64V80.212H214.636V77.328H216.568V72.568H220.32V77.328H223.4V80.212H220.32V87.38C220.32 87.884 220.45 88.248 220.712 88.472C220.992 88.696 221.328 88.808 221.72 88.808C222.112 88.808 222.494 88.7427 222.868 88.612C223.241 88.4813 223.54 88.3693 223.764 88.276L224.52 91.244ZM247.612 75.508H241.256V92H237.42V75.508H231.064V72.12H247.612V75.508ZM253.758 92.28C252.171 92.28 250.799 91.9347 249.642 91.244C248.503 90.5533 247.617 89.6387 246.982 88.5C246.347 87.3427 246.03 86.092 246.03 84.748C246.03 83.3667 246.338 82.0973 246.954 80.94C247.589 79.764 248.485 78.8307 249.642 78.14C250.799 77.4307 252.181 77.076 253.786 77.076C255.391 77.076 256.763 77.4307 257.902 78.14C259.041 78.8307 259.909 79.7547 260.506 80.912C261.122 82.0507 261.43 83.2827 261.43 84.608C261.43 85.0933 261.402 85.5133 261.346 85.868H250.006C250.099 87.0067 250.519 87.9027 251.266 88.556C252.031 89.2093 252.909 89.536 253.898 89.536C254.645 89.536 255.345 89.3587 255.998 89.004C256.67 88.6307 257.127 88.1453 257.37 87.548L260.59 88.444C260.049 89.564 259.181 90.488 257.986 91.216C256.791 91.9253 255.382 92.28 253.758 92.28ZM249.922 83.488H257.594C257.482 82.3867 257.062 81.5 256.334 80.828C255.625 80.1373 254.757 79.792 253.73 79.792C252.722 79.792 251.854 80.1373 251.126 80.828C250.417 81.5 250.015 82.3867 249.922 83.488ZM272.452 80.576C271.313 80.576 270.296 80.8 269.4 81.248C268.504 81.6773 267.86 82.3027 267.468 83.124V92H263.716V77.328H267.16V80.464C267.664 79.456 268.317 78.6627 269.12 78.084C269.941 77.5053 270.8 77.188 271.696 77.132C272.088 77.132 272.34 77.1413 272.452 77.16V80.576ZM283.28 80.576C282.141 80.576 281.124 80.8 280.228 81.248C279.332 81.6773 278.688 82.3027 278.296 83.124V92H274.544V77.328H277.988V80.464C278.492 79.456 279.145 78.6627 279.948 78.084C280.769 77.5053 281.628 77.188 282.524 77.132C282.916 77.132 283.168 77.1413 283.28 77.16V80.576ZM291.957 92.28C290.351 92.28 288.97 91.9347 287.813 91.244C286.674 90.5347 285.797 89.6013 285.181 88.444C284.565 87.2867 284.257 86.036 284.257 84.692C284.257 83.3293 284.565 82.0693 285.181 80.912C285.815 79.7547 286.702 78.8307 287.841 78.14C288.998 77.4307 290.37 77.076 291.957 77.076C293.543 77.076 294.906 77.4307 296.045 78.14C297.202 78.8307 298.089 79.7547 298.705 80.912C299.321 82.0693 299.629 83.3293 299.629 84.692C299.629 86.036 299.321 87.2867 298.705 88.444C298.089 89.6013 297.202 90.5347 296.045 91.244C294.906 91.9347 293.543 92.28 291.957 92.28ZM288.121 84.692C288.121 85.5507 288.289 86.316 288.625 86.988C288.961 87.6413 289.418 88.1547 289.997 88.528C290.575 88.9013 291.229 89.088 291.957 89.088C292.666 89.088 293.31 88.9013 293.889 88.528C294.467 88.136 294.925 87.6133 295.261 86.96C295.615 86.288 295.793 85.5227 295.793 84.664C295.793 83.824 295.615 83.0773 295.261 82.424C294.925 81.752 294.467 81.2293 293.889 80.856C293.31 80.464 292.666 80.268 291.957 80.268C291.229 80.268 290.575 80.464 289.997 80.856C289.418 81.2293 288.961 81.752 288.625 82.424C288.289 83.0773 288.121 83.8333 288.121 84.692ZM310.897 80.576C309.758 80.576 308.741 80.8 307.845 81.248C306.949 81.6773 306.305 82.3027 305.913 83.124V92H302.161V77.328H305.605V80.464C306.109 79.456 306.762 78.6627 307.565 78.084C308.386 77.5053 309.245 77.188 310.141 77.132C310.533 77.132 310.785 77.1413 310.897 77.16V80.576ZM312.989 75.284V71.56H316.741V75.284H312.989ZM312.989 92V77.328H316.741V92H312.989ZM325.53 92.28C324.279 92.28 323.085 92.0747 321.946 91.664C320.807 91.2533 319.827 90.6467 319.006 89.844L320.35 87.408C321.227 88.1173 322.086 88.64 322.926 88.976C323.766 89.312 324.587 89.48 325.39 89.48C326.118 89.48 326.697 89.3493 327.126 89.088C327.574 88.8267 327.798 88.4347 327.798 87.912C327.798 87.3707 327.527 87.0067 326.986 86.82C326.445 86.6147 325.689 86.3627 324.718 86.064C323.635 85.728 322.73 85.3827 322.002 85.028C321.274 84.6733 320.723 84.244 320.35 83.74C319.995 83.236 319.818 82.5827 319.818 81.78C319.818 80.3427 320.359 79.1947 321.442 78.336C322.525 77.4773 323.962 77.048 325.754 77.048C326.799 77.048 327.789 77.216 328.722 77.552C329.655 77.8693 330.505 78.392 331.27 79.12L329.758 81.5C328.321 80.38 326.93 79.82 325.586 79.82C324.989 79.82 324.457 79.932 323.99 80.156C323.542 80.38 323.318 80.772 323.318 81.332C323.318 81.8547 323.533 82.228 323.962 82.452C324.41 82.676 325.082 82.9187 325.978 83.18C327.135 83.5347 328.115 83.88 328.918 84.216C329.739 84.552 330.355 84.9813 330.766 85.504C331.195 86.0267 331.41 86.736 331.41 87.632C331.41 89.088 330.878 90.2267 329.814 91.048C328.75 91.8693 327.322 92.28 325.53 92.28ZM342.672 91.244C342.168 91.468 341.543 91.692 340.796 91.916C340.068 92.14 339.312 92.252 338.528 92.252C337.837 92.252 337.203 92.1307 336.624 91.888C336.045 91.6453 335.579 91.2627 335.224 90.74C334.888 90.1987 334.72 89.4987 334.72 88.64V80.212H332.788V77.328H334.72V72.568H338.472V77.328H341.552V80.212H338.472V87.38C338.472 87.884 338.603 88.248 338.864 88.472C339.144 88.696 339.48 88.808 339.872 88.808C340.264 88.808 340.647 88.7427 341.02 88.612C341.393 88.4813 341.692 88.3693 341.916 88.276L342.672 91.244ZM350.03 92.28C348.779 92.28 347.585 92.0747 346.446 91.664C345.307 91.2533 344.327 90.6467 343.506 89.844L344.85 87.408C345.727 88.1173 346.586 88.64 347.426 88.976C348.266 89.312 349.087 89.48 349.89 89.48C350.618 89.48 351.197 89.3493 351.626 89.088C352.074 88.8267 352.298 88.4347 352.298 87.912C352.298 87.3707 352.027 87.0067 351.486 86.82C350.945 86.6147 350.189 86.3627 349.218 86.064C348.135 85.728 347.23 85.3827 346.502 85.028C345.774 84.6733 345.223 84.244 344.85 83.74C344.495 83.236 344.318 82.5827 344.318 81.78C344.318 80.3427 344.859 79.1947 345.942 78.336C347.025 77.4773 348.462 77.048 350.254 77.048C351.299 77.048 352.289 77.216 353.222 77.552C354.155 77.8693 355.005 78.392 355.77 79.12L354.258 81.5C352.821 80.38 351.43 79.82 350.086 79.82C349.489 79.82 348.957 79.932 348.49 80.156C348.042 80.38 347.818 80.772 347.818 81.332C347.818 81.8547 348.033 82.228 348.462 82.452C348.91 82.676 349.582 82.9187 350.478 83.18C351.635 83.5347 352.615 83.88 353.418 84.216C354.239 84.552 354.855 84.9813 355.266 85.504C355.695 86.0267 355.91 86.736 355.91 87.632C355.91 89.088 355.378 90.2267 354.314 91.048C353.25 91.8693 351.822 92.28 350.03 92.28ZM358.378 92V87.968H361.458V92H358.378ZM362.023 78.588L362.667 75.144H361.547V71.392H365.299V75.228L364.319 78.588H362.023ZM367.287 78.588L367.931 75.144H366.811V71.392H370.563V75.228L369.583 78.588H367.287ZM379.955 83.012V80.576H388.719V83.012H379.955ZM379.955 87.968V85.532H388.719V87.968H379.955Z" fill="white"/>
<path d="M403.077 79.232V92H399.213V72.12H402.293L412.569 85.224V72.148H416.433V92H413.213L403.077 79.232ZM426.734 92.28C425.129 92.28 423.747 91.9347 422.59 91.244C421.451 90.5347 420.574 89.6013 419.958 88.444C419.342 87.2867 419.034 86.036 419.034 84.692C419.034 83.3293 419.342 82.0693 419.958 80.912C420.593 79.7547 421.479 78.8307 422.618 78.14C423.775 77.4307 425.147 77.076 426.734 77.076C428.321 77.076 429.683 77.4307 430.822 78.14C431.979 78.8307 432.866 79.7547 433.482 80.912C434.098 82.0693 434.406 83.3293 434.406 84.692C434.406 86.036 434.098 87.2867 433.482 88.444C432.866 89.6013 431.979 90.5347 430.822 91.244C429.683 91.9347 428.321 92.28 426.734 92.28ZM422.898 84.692C422.898 85.5507 423.066 86.316 423.402 86.988C423.738 87.6413 424.195 88.1547 424.774 88.528C425.353 88.9013 426.006 89.088 426.734 89.088C427.443 89.088 428.087 88.9013 428.666 88.528C429.245 88.136 429.702 87.6133 430.038 86.96C430.393 86.288 430.57 85.5227 430.57 84.664C430.57 83.824 430.393 83.0773 430.038 82.424C429.702 81.752 429.245 81.2293 428.666 80.856C428.087 80.464 427.443 80.268 426.734 80.268C426.006 80.268 425.353 80.464 424.774 80.856C424.195 81.2293 423.738 81.752 423.402 82.424C423.066 83.0773 422.898 83.8333 422.898 84.692ZM445.512 91.244C445.008 91.468 444.382 91.692 443.636 91.916C442.908 92.14 442.152 92.252 441.368 92.252C440.677 92.252 440.042 92.1307 439.464 91.888C438.885 91.6453 438.418 91.2627 438.064 90.74C437.728 90.1987 437.56 89.4987 437.56 88.64V80.212H435.628V77.328H437.56V72.568H441.312V77.328H444.392V80.212H441.312V87.38C441.312 87.884 441.442 88.248 441.704 88.472C441.984 88.696 442.32 88.808 442.712 88.808C443.104 88.808 443.486 88.7427 443.86 88.612C444.233 88.4813 444.532 88.3693 444.756 88.276L445.512 91.244ZM454.556 92V72.12H458.42V92H454.556ZM467.444 92.28C466.193 92.28 464.999 92.0747 463.86 91.664C462.721 91.2533 461.741 90.6467 460.92 89.844L462.264 87.408C463.141 88.1173 464 88.64 464.84 88.976C465.68 89.312 466.501 89.48 467.304 89.48C468.032 89.48 468.611 89.3493 469.04 89.088C469.488 88.8267 469.712 88.4347 469.712 87.912C469.712 87.3707 469.441 87.0067 468.9 86.82C468.359 86.6147 467.603 86.3627 466.632 86.064C465.549 85.728 464.644 85.3827 463.916 85.028C463.188 84.6733 462.637 84.244 462.264 83.74C461.909 83.236 461.732 82.5827 461.732 81.78C461.732 80.3427 462.273 79.1947 463.356 78.336C464.439 77.4773 465.876 77.048 467.668 77.048C468.713 77.048 469.703 77.216 470.636 77.552C471.569 77.8693 472.419 78.392 473.184 79.12L471.672 81.5C470.235 80.38 468.844 79.82 467.5 79.82C466.903 79.82 466.371 79.932 465.904 80.156C465.456 80.38 465.232 80.772 465.232 81.332C465.232 81.8547 465.447 82.228 465.876 82.452C466.324 82.676 466.996 82.9187 467.892 83.18C469.049 83.5347 470.029 83.88 470.832 84.216C471.653 84.552 472.269 84.9813 472.68 85.504C473.109 86.0267 473.324 86.736 473.324 87.632C473.324 89.088 472.792 90.2267 471.728 91.048C470.664 91.8693 469.236 92.28 467.444 92.28ZM475.848 71.56H479.6V87.296C479.6 87.9867 479.712 88.444 479.936 88.668C480.16 88.892 480.468 89.004 480.86 89.004C481.159 89.004 481.467 88.9667 481.784 88.892C482.101 88.8173 482.381 88.724 482.624 88.612L483.128 91.468C482.624 91.7107 482.036 91.8973 481.364 92.028C480.692 92.1587 480.085 92.224 479.544 92.224C478.368 92.224 477.453 91.916 476.8 91.3C476.165 90.6653 475.848 89.7693 475.848 88.612V71.56ZM483.755 87.66C483.755 86.708 484.016 85.8773 484.539 85.168C485.08 84.44 485.827 83.88 486.779 83.488C487.731 83.096 488.823 82.9 490.055 82.9C490.671 82.9 491.296 82.956 491.931 83.068C492.565 83.1613 493.116 83.3013 493.583 83.488V82.704C493.583 81.7707 493.303 81.052 492.743 80.548C492.201 80.044 491.389 79.792 490.307 79.792C489.504 79.792 488.739 79.932 488.011 80.212C487.283 80.492 486.517 80.9027 485.715 81.444L484.511 78.98C485.481 78.3453 486.471 77.8693 487.479 77.552C488.505 77.2347 489.579 77.076 490.699 77.076C492.789 77.076 494.413 77.5987 495.571 78.644C496.747 79.6893 497.335 81.1827 497.335 83.124V87.8C497.335 88.2107 497.4 88.5 497.531 88.668C497.661 88.8173 497.895 88.9107 498.231 88.948V92C497.895 92.0747 497.587 92.1213 497.307 92.14C497.045 92.1773 496.821 92.196 496.635 92.196C495.888 92.196 495.319 92.028 494.927 91.692C494.535 91.356 494.301 90.9453 494.227 90.46L494.143 89.704C493.489 90.544 492.687 91.188 491.735 91.636C490.801 92.0653 489.84 92.28 488.851 92.28C487.861 92.28 486.984 92.084 486.219 91.692C485.453 91.2813 484.847 90.7307 484.399 90.04C483.969 89.3307 483.755 88.5373 483.755 87.66ZM492.883 88.416C493.349 87.968 493.583 87.5387 493.583 87.128V85.644C492.612 85.252 491.632 85.056 490.643 85.056C489.653 85.056 488.851 85.2707 488.235 85.7C487.619 86.1107 487.311 86.6613 487.311 87.352C487.311 87.912 487.535 88.416 487.983 88.864C488.431 89.312 489.075 89.536 489.915 89.536C490.475 89.536 491.016 89.4333 491.539 89.228C492.08 89.0227 492.528 88.752 492.883 88.416ZM523.633 92H519.881V83.768C519.881 82.6107 519.675 81.7613 519.265 81.22C518.873 80.66 518.322 80.38 517.613 80.38C516.866 80.38 516.166 80.6693 515.513 81.248C514.859 81.808 514.393 82.5453 514.113 83.46V92H510.361V83.768C510.361 82.592 510.155 81.7333 509.745 81.192C509.353 80.6507 508.802 80.38 508.093 80.38C507.365 80.38 506.665 80.66 505.993 81.22C505.339 81.78 504.873 82.5173 504.593 83.432V92H500.841V77.328H504.229V80.044C504.77 79.092 505.507 78.364 506.441 77.86C507.393 77.3373 508.475 77.076 509.689 77.076C510.902 77.076 511.845 77.3747 512.517 77.972C513.207 78.5693 513.646 79.3067 513.833 80.184C514.411 79.176 515.167 78.4107 516.101 77.888C517.034 77.3467 518.079 77.076 519.237 77.076C520.151 77.076 520.889 77.244 521.449 77.58C522.027 77.8973 522.475 78.336 522.793 78.896C523.11 79.4373 523.325 80.0533 523.437 80.744C523.567 81.4347 523.633 82.1347 523.633 82.844V92ZM535.691 92.28C534.534 92.28 533.526 92.0187 532.667 91.496C531.809 90.9733 531.137 90.2827 530.651 89.424V97.964H526.899V77.328H530.175V79.848C530.717 78.9893 531.417 78.3173 532.275 77.832C533.153 77.328 534.142 77.076 535.243 77.076C536.569 77.076 537.745 77.4213 538.771 78.112C539.798 78.784 540.61 79.6987 541.207 80.856C541.805 81.9947 542.103 83.2547 542.103 84.636C542.103 86.0733 541.823 87.3707 541.263 88.528C540.722 89.6667 539.966 90.5813 538.995 91.272C538.043 91.944 536.942 92.28 535.691 92.28ZM534.431 89.088C535.197 89.088 535.859 88.8827 536.419 88.472C536.998 88.0427 537.446 87.492 537.763 86.82C538.099 86.1293 538.267 85.4013 538.267 84.636C538.267 83.8147 538.09 83.0773 537.735 82.424C537.381 81.752 536.895 81.2293 536.279 80.856C535.682 80.464 534.991 80.268 534.207 80.268C533.498 80.268 532.789 80.5013 532.079 80.968C531.37 81.4347 530.894 82.0227 530.651 82.732V86.176C530.987 86.9973 531.501 87.688 532.191 88.248C532.882 88.808 533.629 89.088 534.431 89.088ZM558.282 92H554.53V83.768C554.53 82.6293 554.306 81.78 553.858 81.22C553.428 80.66 552.831 80.38 552.066 80.38C551.599 80.38 551.114 80.5107 550.61 80.772C550.124 81.0333 549.676 81.3973 549.266 81.864C548.874 82.312 548.584 82.8347 548.398 83.432V92H544.646V71.56H548.398V80.044C548.939 79.1107 549.676 78.3827 550.61 77.86C551.543 77.3373 552.56 77.076 553.662 77.076C554.912 77.076 555.874 77.356 556.546 77.916C557.218 78.476 557.675 79.1947 557.918 80.072C558.16 80.9493 558.282 81.8733 558.282 82.844V92ZM568.32 92.28C566.715 92.28 565.333 91.9347 564.176 91.244C563.037 90.5347 562.16 89.6013 561.544 88.444C560.928 87.2867 560.62 86.036 560.62 84.692C560.62 83.3293 560.928 82.0693 561.544 80.912C562.179 79.7547 563.065 78.8307 564.204 78.14C565.361 77.4307 566.733 77.076 568.32 77.076C569.907 77.076 571.269 77.4307 572.408 78.14C573.565 78.8307 574.452 79.7547 575.068 80.912C575.684 82.0693 575.992 83.3293 575.992 84.692C575.992 86.036 575.684 87.2867 575.068 88.444C574.452 89.6013 573.565 90.5347 572.408 91.244C571.269 91.9347 569.907 92.28 568.32 92.28ZM564.484 84.692C564.484 85.5507 564.652 86.316 564.988 86.988C565.324 87.6413 565.781 88.1547 566.36 88.528C566.939 88.9013 567.592 89.088 568.32 89.088C569.029 89.088 569.673 88.9013 570.252 88.528C570.831 88.136 571.288 87.6133 571.624 86.96C571.979 86.288 572.156 85.5227 572.156 84.664C572.156 83.824 571.979 83.0773 571.624 82.424C571.288 81.752 570.831 81.2293 570.252 80.856C569.673 80.464 569.029 80.268 568.32 80.268C567.592 80.268 566.939 80.464 566.36 80.856C565.781 81.2293 565.324 81.752 564.988 82.424C564.652 83.0773 564.484 83.8333 564.484 84.692ZM586.868 92.28C585.748 92.28 584.75 92.028 583.872 91.524C582.995 91.02 582.304 90.3293 581.8 89.452V92H578.524V71.56H582.276V79.904C582.799 79.0267 583.48 78.336 584.32 77.832C585.179 77.328 586.178 77.076 587.316 77.076C588.586 77.076 589.696 77.4307 590.648 78.14C591.619 78.8307 592.375 79.7547 592.916 80.912C593.458 82.0693 593.728 83.3387 593.728 84.72C593.728 86.1387 593.43 87.4173 592.832 88.556C592.235 89.6947 591.414 90.6 590.368 91.272C589.342 91.944 588.175 92.28 586.868 92.28ZM585.832 89.088C586.635 89.088 587.335 88.892 587.932 88.5C588.548 88.108 589.024 87.5853 589.36 86.932C589.715 86.26 589.892 85.532 589.892 84.748C589.892 83.9453 589.724 83.208 589.388 82.536C589.071 81.8453 588.623 81.2947 588.044 80.884C587.466 80.4733 586.803 80.268 586.056 80.268C585.235 80.268 584.479 80.548 583.788 81.108C583.116 81.6493 582.612 82.3213 582.276 83.124V86.624C582.519 87.352 582.995 87.9493 583.704 88.416C584.414 88.864 585.123 89.088 585.832 89.088ZM596.271 75.284V71.56H600.023V75.284H596.271ZM596.271 92V77.328H600.023V92H596.271ZM602.399 87.66C602.399 86.708 602.661 85.8773 603.183 85.168C603.725 84.44 604.471 83.88 605.423 83.488C606.375 83.096 607.467 82.9 608.699 82.9C609.315 82.9 609.941 82.956 610.575 83.068C611.21 83.1613 611.761 83.3013 612.227 83.488V82.704C612.227 81.7707 611.947 81.052 611.387 80.548C610.846 80.044 610.034 79.792 608.951 79.792C608.149 79.792 607.383 79.932 606.655 80.212C605.927 80.492 605.162 80.9027 604.359 81.444L603.155 78.98C604.126 78.3453 605.115 77.8693 606.123 77.552C607.15 77.2347 608.223 77.076 609.343 77.076C611.434 77.076 613.058 77.5987 614.215 78.644C615.391 79.6893 615.979 81.1827 615.979 83.124V87.8C615.979 88.2107 616.045 88.5 616.175 88.668C616.306 88.8173 616.539 88.9107 616.875 88.948V92C616.539 92.0747 616.231 92.1213 615.951 92.14C615.69 92.1773 615.466 92.196 615.279 92.196C614.533 92.196 613.963 92.028 613.571 91.692C613.179 91.356 612.946 90.9453 612.871 90.46L612.787 89.704C612.134 90.544 611.331 91.188 610.379 91.636C609.446 92.0653 608.485 92.28 607.495 92.28C606.506 92.28 605.629 92.084 604.863 91.692C604.098 91.2813 603.491 90.7307 603.043 90.04C602.614 89.3307 602.399 88.5373 602.399 87.66ZM611.527 88.416C611.994 87.968 612.227 87.5387 612.227 87.128V85.644C611.257 85.252 610.277 85.056 609.287 85.056C608.298 85.056 607.495 85.2707 606.879 85.7C606.263 86.1107 605.955 86.6613 605.955 87.352C605.955 87.912 606.179 88.416 606.627 88.864C607.075 89.312 607.719 89.536 608.559 89.536C609.119 89.536 609.661 89.4333 610.183 89.228C610.725 89.0227 611.173 88.752 611.527 88.416Z" fill="#10A64A"/>
<path d="M219 32.5L204.641 31.0281L210.546 44.1989L219 32.5ZM99.8908 31.5915C120.069 42.8536 164.537 55.8347 209.189 38.2669L208.273 35.9405C164.511 53.1583 120.839 40.4202 101.109 29.4085L99.8908 31.5915Z" fill="#B40303"/>
<path d="M91 100C106.992 111.57 150.382 128.22 192 125" stroke="#B40303" stroke-width="2.5"/>
<path d="M201.436 127.524V114.924H205.188V127.524H201.436ZM201.436 135V130.772H205.188V135H201.436Z" fill="#B40303"/>
<defs>
<filter id="filter0_d_210_31" x="209.821" y="100" width="63.1787" height="33.2373" filterUnits="userSpaceOnUse" color-interpolation-filters="sRGB">
<feFlood flood-opacity="0" result="BackgroundImageFix"/>
<feColorMatrix in="SourceAlpha" type="matrix" values="0 0 0 0 0 0 0 0 0 0 0 0 0 0 0 0 0 0 127 0" result="hardAlpha"/>
<feOffset dy="4"/>
<feGaussianBlur stdDeviation="2"/>
<feComposite in2="hardAlpha" operator="out"/>
<feColorMatrix type="matrix" values="0 0 0 0 0 0 0 0 0 0 0 0 0 0 0 0 0 0 0.25 0"/>
<feBlend mode="normal" in2="BackgroundImageFix" result="effect1_dropShadow_210_31"/>
<feBlend mode="normal" in="SourceGraphic" in2="effect1_dropShadow_210_31" result="shape"/>
</filter>
<filter id="filter1_d_210_31" x="183.401" y="98.3652" width="39.0859" height="18.3726" filterUnits="userSpaceOnUse" color-interpolation-filters="sRGB">
<feFlood flood-opacity="0" result="BackgroundImageFix"/>
<feColorMatrix in="SourceAlpha" type="matrix" values="0 0 0 0 0 0 0 0 0 0 0 0 0 0 0 0 0 0 127 0" result="hardAlpha"/>
<feOffset dy="4"/>
<feGaussianBlur stdDeviation="2"/>
<feComposite in2="hardAlpha" operator="out"/>
<feColorMatrix type="matrix" values="0 0 0 0 0 0 0 0 0 0 0 0 0 0 0 0 0 0 0.25 0"/>
<feBlend mode="normal" in2="BackgroundImageFix" result="effect1_dropShadow_210_31"/>
<feBlend mode="normal" in="SourceGraphic" in2="effect1_dropShadow_210_31" result="shape"/>
</filter>
</defs>
</svg>
