<svg width="368" height="143" viewBox="0 0 368 143" fill="none" xmlns="http://www.w3.org/2000/svg">
<path d="M1 91.1234C6.38627 87.2975 9.07941 91.1234 14.4657 87.2974C19.8519 83.4715 22.5451 76.6024 27.9314 67.2495C33.3176 57.8965 36.0108 48.5464 41.397 40.5325C46.7833 32.5186 49.4764 27.18 54.8627 27.18C60.249 27.18 62.9421 27.6504 68.3284 35.3474C73.7147 43.0443 76.4078 65.6648 81.7941 65.6648C87.1803 65.6648 89.8735 47.5493 95.2597 35.8045C100.646 24.0597 103.339 6.9409 108.725 6.9409C114.112 6.9409 116.805 28.3465 122.191 28.3465C127.577 28.3465 130.271 23.5733 135.657 23.5733C141.043 23.5733 143.736 83.4593 149.122 83.4593C154.509 83.4593 157.202 83.4593 162.588 83.2484C167.974 83.0374 170.668 19.3476 176.054 19.3476C181.44 19.3476 184.133 19.3476 189.519 26.4969C194.906 33.6462 197.599 55.2257 202.985 71.6984C208.371 88.1711 211.065 108.86 216.451 108.86C221.837 108.86 224.53 48.0418 229.917 48.0418C235.303 48.0418 237.996 48.0418 243.382 50.7443C248.768 53.4467 251.462 63.9788 256.848 63.9788C262.234 63.9788 264.927 3.64462 270.314 3.64462C275.7 3.64462 278.393 6.41409 283.779 23.3457C289.166 40.2773 291.859 88.3025 297.245 88.3025C302.631 88.3025 305.324 88.3026 310.711 79.1979C316.097 70.0933 318.79 38.3972 324.176 38.3972C329.563 38.3972 332.256 54.6368 337.642 54.6368C343.028 54.6368 345.721 54.6368 351.108 48.5833C356.494 42.5298 364.573 12.0979 364.573 12.0979" stroke="#2E8FC1" stroke-width="2"/>
<path d="M13.9001 90.4585C13.0717 90.4585 12.2772 90.1094 11.6914 89.4881C11.1055 88.8667 10.7763 88.024 10.7761 87.1452C10.7759 86.2664 11.1047 85.4235 11.6903 84.8018C12.2758 84.1802 13.0701 83.8307 13.8986 83.8303C14.727 83.8299 15.5216 84.1785 16.1078 84.7995C16.6939 85.4205 17.0235 86.2631 17.0242 87.1419C17.0248 88.0207 16.6963 88.8638 16.1111 89.4857C15.5258 90.1077 14.7317 90.4576 13.9032 90.4585H13.9001Z" fill="#2E8FC1"/>
<path d="M27.1773 70.574C26.3489 70.574 25.5544 70.2249 24.9685 69.6036C24.3827 68.9823 24.0534 68.1395 24.0532 67.2607C24.053 66.3819 24.3819 65.539 24.9674 64.9174C25.553 64.2957 26.3473 63.9462 27.1757 63.9458C28.0041 63.9454 28.7988 64.294 29.3849 64.915C29.9711 65.536 30.3007 66.3786 30.3013 67.2574C30.3019 68.1362 29.9735 68.9793 29.3882 69.6012C28.803 70.2232 28.0088 70.5731 27.1804 70.574H27.1773Z" fill="#2E8FC1"/>
<path d="M41.2354 44.0613C40.407 44.0613 39.6125 43.7123 39.0267 43.0909C38.4408 42.4696 38.1116 41.6269 38.1114 40.7481C38.1112 39.8693 38.44 39.0263 39.0256 38.4047C39.6111 37.7831 40.4055 37.4336 41.2339 37.4331C42.0623 37.4327 42.857 37.7813 43.4431 38.4024C44.0292 39.0234 44.3589 39.8659 44.3595 40.7447C44.3601 41.6236 44.0317 42.4666 43.4464 43.0886C42.8611 43.7105 42.067 44.0604 41.2386 44.0613H41.2354Z" fill="#2E8FC1"/>
<path d="M54.5126 30.805C53.6842 30.805 52.8897 30.4559 52.3039 29.8346C51.718 29.2133 51.3888 28.3705 51.3886 27.4917C51.3884 26.6129 51.7172 25.77 52.3027 25.1484C52.8883 24.5267 53.6826 24.1773 54.511 24.1768C55.3395 24.1764 56.1341 24.525 56.7203 25.146C57.3064 25.767 57.636 26.6096 57.6366 27.4884C57.6373 28.3672 57.3088 29.2103 56.7236 29.8323C56.1383 30.4542 55.3441 30.8041 54.5157 30.805H54.5126Z" fill="#2E8FC1"/>
<path d="M67.7898 38.2617C66.9614 38.2617 66.1669 37.9126 65.581 37.2913C64.9952 36.67 64.6659 35.8272 64.6657 34.9484C64.6655 34.0696 64.9943 33.2267 65.5799 32.6051C66.1655 31.9834 66.9598 31.6339 67.7882 31.6335C68.6166 31.6331 69.4113 31.9817 69.9974 32.6027C70.5836 33.2237 70.9132 34.0663 70.9138 34.9451C70.9144 35.8239 70.586 36.667 70.0007 37.2889C69.4155 37.9109 68.6213 38.2608 67.7929 38.2617H67.7898Z" fill="#2E8FC1"/>
<path d="M81.0669 68.9169C80.2385 68.9169 79.444 68.5679 78.8582 67.9465C78.2723 67.3252 77.9431 66.4825 77.9429 65.6037C77.9427 64.7249 78.2715 63.882 78.8571 63.2603C79.4426 62.6387 80.237 62.2892 81.0654 62.2888C81.8938 62.2883 82.6884 62.637 83.2746 63.258C83.8607 63.879 84.1903 64.7216 84.191 65.6004C84.1916 66.4792 83.8631 67.3222 83.2779 67.9442C82.6926 68.5662 81.8985 68.916 81.07 68.9169H81.0669Z" fill="#2E8FC1"/>
<path d="M95.1251 39.0902C94.2967 39.0902 93.5022 38.7411 92.9163 38.1198C92.3305 37.4985 92.0013 36.6557 92.001 35.7769C92.0008 34.8981 92.3297 34.0552 92.9152 33.4336C93.5008 32.8119 94.2951 32.4625 95.1235 32.462C95.9519 32.4616 96.7466 32.8102 97.3327 33.4312C97.9189 34.0523 98.2485 34.8948 98.2491 35.7736C98.2497 36.6524 97.9213 37.4955 97.336 38.1175C96.7508 38.7394 95.9566 39.0893 95.1282 39.0902H95.1251Z" fill="#2E8FC1"/>
<path d="M108.402 10.092C107.574 10.092 106.779 9.74292 106.193 9.12159C105.608 8.50026 105.278 7.65752 105.278 6.77872C105.278 5.89991 105.607 5.057 106.192 4.43536C106.778 3.81372 107.572 3.46425 108.401 3.46381C109.229 3.46337 110.024 3.812 110.61 4.43302C111.196 5.05404 111.526 5.8966 111.526 6.7754C111.527 7.65421 111.198 8.49729 110.613 9.11925C110.028 9.7412 109.234 10.0911 108.405 10.092L108.402 10.092Z" fill="#2E8FC1"/>
<path d="M121.679 31.6335C120.851 31.6335 120.056 31.2845 119.471 30.6631C118.885 30.0418 118.556 29.1991 118.555 28.3202C118.555 27.4414 118.884 26.5985 119.47 25.9769C120.055 25.3552 120.849 25.0058 121.678 25.0053C122.506 25.0049 123.301 25.3535 123.887 25.9745C124.473 26.5956 124.803 27.4381 124.803 28.3169C124.804 29.1957 124.476 30.0388 123.89 30.6608C123.305 31.2827 122.511 31.6326 121.683 31.6335H121.679Z" fill="#2E8FC1"/>
<path d="M134.957 26.6624C134.128 26.6624 133.334 26.3133 132.748 25.692C132.162 25.0707 131.833 24.2279 131.833 23.3491C131.832 22.4703 132.161 21.6274 132.747 21.0058C133.332 20.3841 134.127 20.0347 134.955 20.0342C135.783 20.0338 136.578 20.3824 137.164 21.0034C137.75 21.6244 138.08 22.467 138.081 23.3458C138.081 24.2246 137.753 25.0677 137.168 25.6897C136.582 26.3116 135.788 26.6615 134.96 26.6624H134.957Z" fill="#B60000"/>
<path d="M149.015 87.1444C148.186 87.1444 147.392 86.7953 146.806 86.174C146.22 85.5527 145.891 84.7099 145.891 83.8311C145.89 82.9523 146.219 82.1094 146.805 81.4878C147.39 80.8661 148.185 80.5167 149.013 80.5162C149.842 80.5158 150.636 80.8644 151.222 81.4854C151.809 82.1064 152.138 82.949 152.139 83.8278C152.139 84.7066 151.811 85.5497 151.226 86.1717C150.64 86.7936 149.846 87.1435 149.018 87.1444H149.015Z" fill="#B60000"/>
<path d="M162.292 86.3159C161.463 86.3159 160.669 85.9668 160.083 85.3455C159.497 84.7242 159.168 83.8814 159.168 83.0026C159.168 82.1238 159.496 81.2809 160.082 80.6593C160.668 80.0376 161.462 79.6881 162.29 79.6877C163.119 79.6873 163.913 80.0359 164.5 80.6569C165.086 81.2779 165.415 82.1205 165.416 82.9993C165.417 83.8781 165.088 84.7212 164.503 85.3431C163.918 85.9651 163.123 86.315 162.295 86.3159H162.292Z" fill="#2E8FC1"/>
<path d="M175.569 22.5198C174.741 22.5198 173.946 22.1707 173.36 21.5494C172.774 20.9281 172.445 20.0853 172.445 19.2065C172.445 18.3277 172.774 17.4848 173.359 16.8632C173.945 16.2415 174.739 15.892 175.567 15.8916C176.396 15.8912 177.191 16.2398 177.777 16.8608C178.363 17.4818 178.692 18.3244 178.693 19.2032C178.694 20.082 178.365 20.9251 177.78 21.547C177.195 22.169 176.401 22.5189 175.572 22.5198H175.569Z" fill="#2E8FC1"/>
<path d="M188.846 29.9765C188.018 29.9765 187.223 29.6274 186.637 29.0061C186.052 28.3848 185.722 27.542 185.722 26.6632C185.722 25.7844 186.051 24.9415 186.636 24.3198C187.222 23.6982 188.016 23.3487 188.845 23.3483C189.673 23.3479 190.468 23.6965 191.054 24.3175C191.64 24.9385 191.97 25.7811 191.97 26.6599C191.971 27.5387 191.642 28.3818 191.057 29.0037C190.472 29.6257 189.678 29.9756 188.849 29.9765H188.846Z" fill="#2E8FC1"/>
<path d="M202.904 74.7166C202.076 74.7166 201.281 74.3675 200.696 73.7462C200.11 73.1249 199.781 72.2821 199.78 71.4033C199.78 70.5245 200.109 69.6816 200.695 69.06C201.28 68.4383 202.074 68.0888 202.903 68.0884C203.731 68.088 204.526 68.4366 205.112 69.0576C205.698 69.6786 206.028 70.5212 206.028 71.4C206.029 72.2788 205.701 73.1219 205.115 73.7439C204.53 74.3658 203.736 74.7157 202.907 74.7166H202.904Z" fill="#2E8FC1"/>
<path d="M216.182 112C215.353 112 214.559 111.651 213.973 111.03C213.387 110.408 213.058 109.566 213.057 108.687C213.057 107.808 213.386 106.965 213.972 106.343C214.557 105.722 215.352 105.372 216.18 105.372C217.008 105.371 217.803 105.72 218.389 106.341C218.975 106.962 219.305 107.805 219.306 108.683C219.306 109.562 218.978 110.405 218.392 111.027C217.807 111.649 217.013 111.999 216.185 112H216.182Z" fill="#2E8FC1"/>
<path d="M229.459 51.518C228.63 51.518 227.836 51.1689 227.25 50.5476C226.664 49.9263 226.335 49.0835 226.335 48.2047C226.334 47.3259 226.663 46.483 227.249 45.8614C227.834 45.2397 228.629 44.8903 229.457 44.8898C230.286 44.8894 231.08 45.238 231.666 45.859C232.252 46.4801 232.582 47.3226 232.583 48.2014C232.583 49.0802 232.255 49.9233 231.67 50.5453C231.084 51.1672 230.29 51.5171 229.462 51.518H229.459Z" fill="#2E8FC1"/>
<path d="M242.736 54.0036C241.907 54.0036 241.113 53.6545 240.527 53.0332C239.941 52.4118 239.612 51.5691 239.612 50.6903C239.612 49.8115 239.94 48.9686 240.526 48.3469C241.112 47.7253 241.906 47.3758 242.734 47.3754C243.563 47.375 244.357 47.7236 244.944 48.3446C245.53 48.9656 245.859 49.8082 245.86 50.687C245.861 51.5658 245.532 52.4089 244.947 53.0308C244.362 53.6528 243.567 54.0027 242.739 54.0036H242.736Z" fill="#2E8FC1"/>
<path d="M256.794 67.2599C255.966 67.2599 255.171 66.9108 254.585 66.2895C253.999 65.6682 253.67 64.8254 253.67 63.9466C253.67 63.0678 253.999 62.2249 254.584 61.6033C255.17 60.9816 255.964 60.6322 256.792 60.6317C257.621 60.6313 258.416 60.9799 259.002 61.6009C259.588 62.2219 259.917 63.0645 259.918 63.9433C259.919 64.8221 259.59 65.6652 259.005 66.2872C258.42 66.9091 257.626 67.259 256.797 67.2599H256.794Z" fill="#2E8FC1"/>
<path d="M270.071 6.77788C269.243 6.77788 268.448 6.42884 267.862 5.80751C267.277 5.18617 266.947 4.34344 266.947 3.46463C266.947 2.58582 267.276 1.74291 267.861 1.12127C268.447 0.499629 269.241 0.150159 270.07 0.14972C270.898 0.14928 271.693 0.497908 272.279 1.11893C272.865 1.73995 273.195 2.58251 273.195 3.46132C273.196 4.34012 272.867 5.18321 272.282 5.80516C271.697 6.42711 270.903 6.777 270.074 6.77788L270.071 6.77788Z" fill="#2E8FC1"/>
<path d="M283.348 26.6624C282.52 26.6624 281.725 26.3133 281.14 25.692C280.554 25.0707 280.225 24.2279 280.224 23.3491C280.224 22.4703 280.553 21.6274 281.138 21.0058C281.724 20.3841 282.518 20.0347 283.347 20.0342C284.175 20.0338 284.97 20.3824 285.556 21.0034C286.142 21.6244 286.472 22.467 286.472 23.3458C286.473 24.2246 286.145 25.0677 285.559 25.6897C284.974 26.3116 284.18 26.6615 283.351 26.6624H283.348Z" fill="#2E8FC1"/>
<path d="M296.625 91.287C295.797 91.287 295.003 90.9379 294.417 90.3166C293.831 89.6953 293.502 88.8525 293.501 87.9737C293.501 87.0949 293.83 86.252 294.416 85.6304C295.001 85.0087 295.795 84.6593 296.624 84.6588C297.452 84.6584 298.247 85.007 298.833 85.628C299.419 86.249 299.749 87.0916 299.75 87.9704C299.75 88.8492 299.422 89.6923 298.836 90.3143C298.251 90.9362 297.457 91.2861 296.629 91.287H296.625Z" fill="#2E8FC1"/>
<path d="M310.684 82.1733C309.855 82.1733 309.061 81.8242 308.475 81.2029C307.889 80.5815 307.56 79.7388 307.56 78.86C307.559 77.9812 307.888 77.1383 308.474 76.5166C309.059 75.895 309.854 75.5455 310.682 75.5451C311.511 75.5447 312.305 75.8933 312.891 76.5143C313.477 77.1353 313.807 77.9779 313.808 78.8567C313.808 79.7355 313.48 80.5786 312.895 81.2005C312.309 81.8225 311.515 82.1724 310.687 82.1733H310.684Z" fill="#2E8FC1"/>
<path d="M323.961 41.5757C323.132 41.5757 322.338 41.2267 321.752 40.6054C321.166 39.984 320.837 39.1413 320.837 38.2625C320.837 37.3837 321.165 36.5408 321.751 35.9191C322.336 35.2975 323.131 34.948 323.959 34.9476C324.788 34.9471 325.582 35.2958 326.168 35.9168C326.755 36.5378 327.084 37.3804 327.085 38.2592C327.085 39.138 326.757 39.9811 326.172 40.603C325.586 41.225 324.792 41.5749 323.964 41.5757H323.961Z" fill="#2E8FC1"/>
<path d="M337.238 58.1462C336.41 58.1462 335.615 57.7971 335.029 57.1758C334.443 56.5544 334.114 55.7117 334.114 54.8329C334.114 53.9541 334.443 53.1112 335.028 52.4895C335.614 51.8679 336.408 51.5184 337.236 51.518C338.065 51.5176 338.859 51.8662 339.446 52.4872C340.032 53.1082 340.361 53.9508 340.362 54.8296C340.363 55.7084 340.034 56.5515 339.449 57.1734C338.864 57.7954 338.069 58.1453 337.241 58.1462H337.238Z" fill="#2E8FC1"/>
<path d="M350.515 51.518C349.687 51.518 348.892 51.1689 348.306 50.5476C347.721 49.9263 347.391 49.0835 347.391 48.2047C347.391 47.3259 347.72 46.483 348.305 45.8614C348.891 45.2397 349.685 44.8903 350.514 44.8898C351.342 44.8894 352.137 45.238 352.723 45.859C353.309 46.4801 353.639 47.3226 353.639 48.2014C353.64 49.0802 353.311 49.9233 352.726 50.5453C352.141 51.1672 351.347 51.5171 350.518 51.518H350.515Z" fill="#2E8FC1"/>
<path d="M364.573 15.0631C363.745 15.0631 362.95 14.714 362.365 14.0927C361.779 13.4714 361.449 12.6286 361.449 11.7498C361.449 10.871 361.778 10.0281 362.363 9.40648C362.949 8.78483 363.743 8.43536 364.572 8.43493C365.4 8.43449 366.195 8.78311 366.781 9.40413C367.367 10.0252 367.697 10.8677 367.697 11.7465C367.698 12.6253 367.37 13.4684 366.784 14.0904C366.199 14.7123 365.405 15.0622 364.576 15.0631L364.573 15.0631Z" fill="#2E8FC1"/>
<path d="M134.802 23.2681C142.222 27.4107 140.66 61.38 148.861 85.8214" stroke="#B60000" stroke-width="3"/>
<path d="M32.36 138V123.8H35.64V135.12H42.52V138H32.36ZM43.7992 126.3V123.4H46.9992V126.3H43.7992ZM43.7992 138V127.5H46.9992V138H43.7992ZM51.9098 138L48.1898 127.5H51.4898L53.7898 135.12L56.0898 127.5H59.0898L55.3898 138H51.9098ZM64.9716 138.2C63.7849 138.2 62.7716 137.953 61.9316 137.46C61.0916 136.967 60.4449 136.313 59.9916 135.5C59.5516 134.687 59.3316 133.807 59.3316 132.86C59.3316 131.847 59.5516 130.92 59.9916 130.08C60.4316 129.24 61.0716 128.567 61.9116 128.06C62.7516 127.553 63.7716 127.3 64.9716 127.3C66.1582 127.3 67.1716 127.553 68.0116 128.06C68.8516 128.567 69.4849 129.233 69.9116 130.06C70.3516 130.887 70.5716 131.773 70.5716 132.72C70.5716 133.107 70.5449 133.447 70.4916 133.74H62.7316C62.7849 134.447 63.0382 134.987 63.4916 135.36C63.9582 135.72 64.4849 135.9 65.0716 135.9C65.5382 135.9 65.9849 135.787 66.4116 135.56C66.8382 135.333 67.1316 135.027 67.2916 134.64L70.0116 135.4C69.5982 136.227 68.9516 136.9 68.0716 137.42C67.2049 137.94 66.1716 138.2 64.9716 138.2ZM62.6516 131.78H67.2116C67.1449 131.113 66.8982 130.587 66.4716 130.2C66.0582 129.8 65.5449 129.6 64.9316 129.6C64.3182 129.6 63.7982 129.8 63.3716 130.2C62.9582 130.6 62.7182 131.127 62.6516 131.78ZM78.6819 130.24C77.9085 130.253 77.2085 130.38 76.5819 130.62C75.9552 130.86 75.5019 131.22 75.2219 131.7V138H72.0219V127.5H74.9619V129.62C75.3219 128.913 75.7885 128.36 76.3619 127.96C76.9352 127.56 77.5352 127.353 78.1619 127.34C78.4285 127.34 78.6019 127.347 78.6819 127.36V130.24ZM86.6697 138.2C85.883 138.2 85.1897 138.033 84.5897 137.7C84.003 137.353 83.5497 136.887 83.2297 136.3V142.26H80.0297V127.5H82.8097V129.2C83.1964 128.6 83.683 128.133 84.2697 127.8C84.8564 127.467 85.543 127.3 86.3297 127.3C87.263 127.3 88.0964 127.547 88.8297 128.04C89.5764 128.52 90.1564 129.167 90.5697 129.98C90.9964 130.793 91.2097 131.707 91.2097 132.72C91.2097 133.76 91.0164 134.693 90.6297 135.52C90.243 136.347 89.703 137 89.0097 137.48C88.3297 137.96 87.5497 138.2 86.6697 138.2ZM85.5897 135.5C86.043 135.5 86.4497 135.373 86.8097 135.12C87.1697 134.853 87.4497 134.513 87.6497 134.1C87.8497 133.673 87.9497 133.207 87.9497 132.7C87.9497 131.927 87.7097 131.287 87.2297 130.78C86.763 130.273 86.163 130.02 85.4297 130.02C84.9897 130.02 84.563 130.153 84.1497 130.42C83.7497 130.673 83.443 131.02 83.2297 131.46V133.62C83.443 134.153 83.763 134.6 84.1897 134.96C84.6297 135.32 85.0964 135.5 85.5897 135.5ZM97.8227 138.2C96.6227 138.2 95.6027 137.947 94.7627 137.44C93.936 136.933 93.3027 136.267 92.8627 135.44C92.4227 134.613 92.2027 133.72 92.2027 132.76C92.2027 131.787 92.4227 130.887 92.8627 130.06C93.3027 129.233 93.9427 128.567 94.7827 128.06C95.6227 127.553 96.636 127.3 97.8227 127.3C99.0093 127.3 100.023 127.553 100.863 128.06C101.703 128.567 102.343 129.233 102.783 130.06C103.223 130.887 103.443 131.787 103.443 132.76C103.443 133.72 103.223 134.613 102.783 135.44C102.343 136.267 101.703 136.933 100.863 137.44C100.023 137.947 99.0093 138.2 97.8227 138.2ZM95.4827 132.76C95.4827 133.573 95.7027 134.233 96.1427 134.74C96.596 135.247 97.156 135.5 97.8227 135.5C98.476 135.5 99.0227 135.247 99.4627 134.74C99.916 134.233 100.143 133.573 100.143 132.76C100.143 131.947 99.916 131.287 99.4627 130.78C99.0227 130.273 98.476 130.02 97.8227 130.02C97.156 130.02 96.596 130.273 96.1427 130.78C95.7027 131.287 95.4827 131.947 95.4827 132.76ZM110.03 138.2C108.83 138.2 107.81 137.947 106.97 137.44C106.143 136.933 105.51 136.267 105.07 135.44C104.63 134.613 104.41 133.72 104.41 132.76C104.41 131.787 104.63 130.887 105.07 130.06C105.51 129.233 106.15 128.567 106.99 128.06C107.83 127.553 108.843 127.3 110.03 127.3C111.216 127.3 112.23 127.553 113.07 128.06C113.91 128.567 114.55 129.233 114.99 130.06C115.43 130.887 115.65 131.787 115.65 132.76C115.65 133.72 115.43 134.613 114.99 135.44C114.55 136.267 113.91 136.933 113.07 137.44C112.23 137.947 111.216 138.2 110.03 138.2ZM107.69 132.76C107.69 133.573 107.91 134.233 108.35 134.74C108.803 135.247 109.363 135.5 110.03 135.5C110.683 135.5 111.23 135.247 111.67 134.74C112.123 134.233 112.35 133.573 112.35 132.76C112.35 131.947 112.123 131.287 111.67 130.78C111.23 130.273 110.683 130.02 110.03 130.02C109.363 130.02 108.803 130.273 108.35 130.78C107.91 131.287 107.69 131.947 107.69 132.76ZM117.197 123.4H120.397V134.26C120.397 134.7 120.477 135.013 120.637 135.2C120.797 135.387 121.023 135.48 121.317 135.48C121.517 135.48 121.717 135.453 121.917 135.4C122.13 135.333 122.317 135.26 122.477 135.18L122.897 137.58C122.497 137.767 122.037 137.913 121.517 138.02C120.997 138.127 120.51 138.18 120.057 138.18C119.15 138.18 118.443 137.94 117.937 137.46C117.443 136.98 117.197 136.287 117.197 135.38V123.4ZM140.096 134.36C140.096 135.173 139.876 135.853 139.436 136.4C138.996 136.933 138.409 137.333 137.676 137.6C136.956 137.867 136.156 138 135.276 138H128.356V123.8H136.256C136.923 123.8 137.496 123.98 137.976 124.34C138.456 124.687 138.829 125.14 139.096 125.7C139.363 126.26 139.496 126.84 139.496 127.44C139.496 128.107 139.323 128.747 138.976 129.36C138.629 129.973 138.123 130.427 137.456 130.72C138.256 130.96 138.896 131.387 139.376 132C139.856 132.613 140.096 133.4 140.096 134.36ZM131.636 126.6V129.54H134.856C135.216 129.54 135.536 129.42 135.816 129.18C136.096 128.94 136.236 128.567 136.236 128.06C136.236 127.593 136.109 127.233 135.856 126.98C135.616 126.727 135.323 126.6 134.976 126.6H131.636ZM136.756 133.7C136.756 133.26 136.629 132.887 136.376 132.58C136.123 132.273 135.803 132.12 135.416 132.12H131.636V135.22H135.276C135.689 135.22 136.036 135.08 136.316 134.8C136.609 134.507 136.756 134.14 136.756 133.7ZM146.768 138.2C145.568 138.2 144.548 137.947 143.708 137.44C142.881 136.933 142.248 136.267 141.808 135.44C141.368 134.613 141.148 133.72 141.148 132.76C141.148 131.787 141.368 130.887 141.808 130.06C142.248 129.233 142.888 128.567 143.728 128.06C144.568 127.553 145.581 127.3 146.768 127.3C147.955 127.3 148.968 127.553 149.808 128.06C150.648 128.567 151.288 129.233 151.728 130.06C152.168 130.887 152.388 131.787 152.388 132.76C152.388 133.72 152.168 134.613 151.728 135.44C151.288 136.267 150.648 136.933 149.808 137.44C148.968 137.947 147.955 138.2 146.768 138.2ZM144.428 132.76C144.428 133.573 144.648 134.233 145.088 134.74C145.541 135.247 146.101 135.5 146.768 135.5C147.421 135.5 147.968 135.247 148.408 134.74C148.861 134.233 149.088 133.573 149.088 132.76C149.088 131.947 148.861 131.287 148.408 130.78C147.968 130.273 147.421 130.02 146.768 130.02C146.101 130.02 145.541 130.273 145.088 130.78C144.648 131.287 144.428 131.947 144.428 132.76ZM170.575 138H167.375V132.1C167.375 131.42 167.248 130.92 166.995 130.6C166.742 130.28 166.415 130.12 166.015 130.12C165.588 130.12 165.168 130.293 164.755 130.64C164.342 130.987 164.048 131.433 163.875 131.98V138H160.675V132.1C160.675 131.407 160.548 130.907 160.295 130.6C160.042 130.28 159.715 130.12 159.315 130.12C158.888 130.12 158.468 130.293 158.055 130.64C157.655 130.987 157.362 131.433 157.175 131.98V138H153.975V127.5H156.855V129.26C157.242 128.633 157.768 128.153 158.435 127.82C159.102 127.473 159.868 127.3 160.735 127.3C161.602 127.3 162.268 127.507 162.735 127.92C163.202 128.32 163.502 128.793 163.635 129.34C164.035 128.7 164.562 128.2 165.215 127.84C165.882 127.48 166.628 127.3 167.455 127.3C168.122 127.3 168.655 127.427 169.055 127.68C169.468 127.92 169.782 128.24 169.995 128.64C170.222 129.04 170.375 129.473 170.455 129.94C170.535 130.393 170.575 130.84 170.575 131.28V138ZM178.966 138.2C178.166 138.2 177.466 138.033 176.866 137.7C176.266 137.353 175.793 136.873 175.446 136.26V138H172.666V123.4H175.866V129.22C176.2 128.62 176.66 128.153 177.246 127.82C177.833 127.473 178.52 127.3 179.306 127.3C180.2 127.3 180.986 127.547 181.666 128.04C182.36 128.533 182.9 129.193 183.286 130.02C183.673 130.847 183.866 131.773 183.866 132.8C183.866 133.813 183.653 134.733 183.226 135.56C182.8 136.373 182.213 137.02 181.466 137.5C180.733 137.967 179.9 138.2 178.966 138.2ZM178.066 135.5C178.813 135.5 179.42 135.24 179.886 134.72C180.353 134.2 180.586 133.56 180.586 132.8C180.586 132.307 180.48 131.847 180.266 131.42C180.066 130.993 179.786 130.653 179.426 130.4C179.08 130.147 178.68 130.02 178.226 130.02C177.72 130.02 177.253 130.193 176.826 130.54C176.4 130.887 176.08 131.32 175.866 131.84V134.04C176.08 134.493 176.386 134.853 176.786 135.12C177.2 135.373 177.626 135.5 178.066 135.5ZM185.459 126.3V123.4H188.659V126.3H185.459ZM185.459 138V127.5H188.659V138H185.459ZM200.97 138H197.77V132.1C197.77 131.407 197.637 130.907 197.37 130.6C197.117 130.28 196.777 130.12 196.35 130.12C195.91 130.12 195.463 130.293 195.01 130.64C194.557 130.987 194.237 131.433 194.05 131.98V138H190.85V127.5H193.73V129.26C194.117 128.647 194.663 128.167 195.37 127.82C196.077 127.473 196.89 127.3 197.81 127.3C198.49 127.3 199.037 127.427 199.45 127.68C199.877 127.92 200.197 128.24 200.41 128.64C200.637 129.027 200.783 129.453 200.85 129.92C200.93 130.387 200.97 130.84 200.97 131.28V138ZM207.176 138.04C206.243 138.04 205.429 137.8 204.736 137.32C204.043 136.84 203.496 136.2 203.096 135.4C202.709 134.6 202.516 133.713 202.516 132.74C202.516 131.713 202.723 130.793 203.136 129.98C203.549 129.153 204.123 128.5 204.856 128.02C205.589 127.54 206.436 127.3 207.396 127.3C208.183 127.3 208.876 127.473 209.476 127.82C210.076 128.153 210.556 128.62 210.916 129.22V127.5H213.696V137.28C213.696 138.347 213.436 139.267 212.916 140.04C212.409 140.813 211.696 141.407 210.776 141.82C209.869 142.247 208.816 142.46 207.616 142.46C206.496 142.46 205.529 142.273 204.716 141.9C203.916 141.54 203.216 141.027 202.616 140.36L204.336 138.62C204.723 139.06 205.203 139.407 205.776 139.66C206.363 139.927 206.976 140.06 207.616 140.06C208.136 140.06 208.609 139.967 209.036 139.78C209.476 139.593 209.829 139.293 210.096 138.88C210.363 138.48 210.496 137.947 210.496 137.28V136.26C210.176 136.847 209.709 137.293 209.096 137.6C208.496 137.893 207.856 138.04 207.176 138.04ZM208.276 135.5C208.769 135.5 209.209 135.367 209.596 135.1C209.983 134.82 210.283 134.467 210.496 134.04V131.84C210.283 131.293 209.956 130.853 209.516 130.52C209.076 130.187 208.609 130.02 208.116 130.02C207.663 130.02 207.256 130.153 206.896 130.42C206.549 130.673 206.276 131.013 206.076 131.44C205.876 131.867 205.776 132.327 205.776 132.82C205.776 133.593 206.016 134.233 206.496 134.74C206.976 135.247 207.569 135.5 208.276 135.5ZM220.057 131.06C220.057 129.7 220.35 128.333 220.937 126.96C221.524 125.587 222.244 124.173 223.097 122.72L225.537 123.72C225.35 124.013 225.117 124.427 224.837 124.96C224.57 125.493 224.297 126.107 224.017 126.8C223.737 127.48 223.504 128.193 223.317 128.94C223.13 129.687 223.037 130.413 223.037 131.12C223.037 132.187 223.264 133.293 223.717 134.44C224.184 135.587 224.764 136.787 225.457 138.04L223.137 139.18C222.577 138.353 222.064 137.493 221.597 136.6C221.13 135.693 220.757 134.773 220.477 133.84C220.197 132.907 220.057 131.98 220.057 131.06ZM235.841 135.12V138H227.201V135.12H230.041V130.02C229.881 130.233 229.608 130.447 229.221 130.66C228.848 130.873 228.434 131.06 227.981 131.22C227.541 131.367 227.148 131.44 226.801 131.44V128.48C227.028 128.48 227.308 128.407 227.641 128.26C227.974 128.113 228.308 127.94 228.641 127.74C228.988 127.527 229.288 127.313 229.541 127.1C229.808 126.887 229.974 126.713 230.041 126.58H233.301V135.12H235.841ZM246.193 135.12V138H237.553V135.12H240.393V130.02C240.233 130.233 239.959 130.447 239.573 130.66C239.199 130.873 238.786 131.06 238.333 131.22C237.893 131.367 237.499 131.44 237.153 131.44V128.48C237.379 128.48 237.659 128.407 237.993 128.26C238.326 128.113 238.659 127.94 238.993 127.74C239.339 127.527 239.639 127.313 239.893 127.1C240.159 126.887 240.326 126.713 240.393 126.58H243.653V135.12H246.193ZM260.824 123.8L250.724 138H247.184L257.284 123.8H260.824ZM270.763 135.12V138H262.123V135.12H264.963V130.02C264.803 130.233 264.529 130.447 264.143 130.66C263.769 130.873 263.356 131.06 262.903 131.22C262.463 131.367 262.069 131.44 261.723 131.44V128.48C261.949 128.48 262.229 128.407 262.563 128.26C262.896 128.113 263.229 127.94 263.563 127.74C263.909 127.527 264.209 127.313 264.463 127.1C264.729 126.887 264.896 126.713 264.963 126.58H268.223V135.12H270.763ZM279.094 133.26C279.921 133.407 280.594 133.813 281.114 134.48C281.634 135.133 281.894 135.927 281.894 136.86C281.894 137.687 281.674 138.407 281.234 139.02C280.794 139.633 280.168 140.107 279.354 140.44C278.541 140.773 277.581 140.94 276.474 140.94C274.461 140.94 272.874 140.347 271.714 139.16L273.434 136.88C273.794 137.253 274.208 137.54 274.674 137.74C275.141 137.927 275.688 138.02 276.314 138.02C277.821 138.02 278.574 137.467 278.574 136.36C278.574 135.76 278.348 135.307 277.894 135C277.441 134.693 276.741 134.54 275.794 134.54H275.194V132.24H275.854C276.588 132.24 277.168 132.087 277.594 131.78C278.021 131.46 278.234 131.053 278.234 130.56C278.234 130.12 278.081 129.787 277.774 129.56C277.468 129.333 277.061 129.22 276.554 129.22C275.434 129.22 274.561 129.72 273.934 130.72L271.914 128.4C272.208 128.027 272.608 127.693 273.114 127.4C273.634 127.107 274.221 126.88 274.874 126.72C275.528 126.56 276.208 126.48 276.914 126.48C277.861 126.48 278.688 126.627 279.394 126.92C280.114 127.213 280.668 127.627 281.054 128.16C281.454 128.68 281.654 129.3 281.654 130.02C281.654 130.54 281.548 131.033 281.334 131.5C281.121 131.953 280.821 132.34 280.434 132.66C280.048 132.967 279.601 133.167 279.094 133.26ZM296.781 123.8L286.681 138H283.141L293.241 123.8H296.781ZM297.54 138C297.54 137.16 297.633 136.433 297.82 135.82C298.007 135.207 298.32 134.66 298.76 134.18C299.213 133.7 299.833 133.247 300.62 132.82C301.46 132.367 302.113 132.013 302.58 131.76C303.06 131.493 303.393 131.267 303.58 131.08C303.78 130.88 303.88 130.653 303.88 130.4C303.88 130.027 303.747 129.727 303.48 129.5C303.213 129.273 302.833 129.16 302.34 129.16C301.793 129.16 301.307 129.3 300.88 129.58C300.453 129.847 300.047 130.2 299.66 130.64L297.64 128.28C297.933 127.973 298.34 127.673 298.86 127.38C299.393 127.087 300 126.847 300.68 126.66C301.373 126.473 302.113 126.38 302.9 126.38C304.327 126.38 305.427 126.7 306.2 127.34C306.973 127.967 307.36 128.807 307.36 129.86C307.36 130.46 307.24 130.973 307 131.4C306.773 131.813 306.473 132.167 306.1 132.46C305.74 132.753 305.367 133.02 304.98 133.26C304.34 133.593 303.78 133.9 303.3 134.18C302.833 134.447 302.413 134.76 302.04 135.12H307.58V138H297.54ZM319.801 132.14C319.801 133.313 319.575 134.36 319.121 135.28C318.668 136.187 318.048 136.9 317.261 137.42C316.475 137.94 315.581 138.2 314.581 138.2C313.581 138.2 312.688 137.94 311.901 137.42C311.115 136.9 310.495 136.187 310.041 135.28C309.588 134.36 309.361 133.313 309.361 132.14C309.361 130.967 309.588 129.927 310.041 129.02C310.495 128.1 311.115 127.38 311.901 126.86C312.688 126.327 313.581 126.06 314.581 126.06C315.581 126.06 316.475 126.327 317.261 126.86C318.048 127.38 318.668 128.1 319.121 129.02C319.575 129.927 319.801 130.967 319.801 132.14ZM316.581 132.14C316.581 131.207 316.388 130.453 316.001 129.88C315.628 129.293 315.155 129 314.581 129C313.981 129 313.495 129.293 313.121 129.88C312.748 130.453 312.561 131.207 312.561 132.14C312.561 133.073 312.748 133.827 313.121 134.4C313.495 134.973 313.981 135.26 314.581 135.26C315.155 135.26 315.628 134.973 316.001 134.4C316.388 133.827 316.581 133.073 316.581 132.14ZM321.427 138C321.427 137.16 321.52 136.433 321.707 135.82C321.893 135.207 322.207 134.66 322.647 134.18C323.1 133.7 323.72 133.247 324.507 132.82C325.347 132.367 326 132.013 326.467 131.76C326.947 131.493 327.28 131.267 327.467 131.08C327.667 130.88 327.767 130.653 327.767 130.4C327.767 130.027 327.633 129.727 327.367 129.5C327.1 129.273 326.72 129.16 326.227 129.16C325.68 129.16 325.193 129.3 324.767 129.58C324.34 129.847 323.933 130.2 323.547 130.64L321.527 128.28C321.82 127.973 322.227 127.673 322.747 127.38C323.28 127.087 323.887 126.847 324.567 126.66C325.26 126.473 326 126.38 326.787 126.38C328.213 126.38 329.313 126.7 330.087 127.34C330.86 127.967 331.247 128.807 331.247 129.86C331.247 130.46 331.127 130.973 330.887 131.4C330.66 131.813 330.36 132.167 329.987 132.46C329.627 132.753 329.253 133.02 328.867 133.26C328.227 133.593 327.667 133.9 327.187 134.18C326.72 134.447 326.3 134.76 325.927 135.12H331.467V138H321.427ZM342.208 135.12V138H333.568V135.12H336.408V130.02C336.248 130.233 335.975 130.447 335.588 130.66C335.215 130.873 334.801 131.06 334.348 131.22C333.908 131.367 333.515 131.44 333.168 131.44V128.48C333.395 128.48 333.675 128.407 334.008 128.26C334.341 128.113 334.675 127.94 335.008 127.74C335.355 127.527 335.655 127.313 335.908 127.1C336.175 126.887 336.341 126.713 336.408 126.58H339.668V135.12H342.208ZM348.56 131.06C348.56 131.98 348.42 132.907 348.14 133.84C347.86 134.773 347.486 135.693 347.02 136.6C346.553 137.493 346.04 138.353 345.48 139.18L343.16 138.04C343.853 136.787 344.426 135.587 344.88 134.44C345.346 133.293 345.58 132.187 345.58 131.12C345.58 130.413 345.486 129.687 345.3 128.94C345.113 128.193 344.88 127.48 344.6 126.8C344.32 126.107 344.04 125.493 343.76 124.96C343.493 124.427 343.266 124.013 343.08 123.72L345.52 122.72C346.373 124.173 347.093 125.587 347.68 126.96C348.266 128.333 348.56 129.7 348.56 131.06Z" fill="white"/>
</svg>
