<svg width="335" height="143" viewBox="0 0 335 143" fill="none" xmlns="http://www.w3.org/2000/svg">
<path d="M4.94971 28.0945C4.94971 28.0945 11.6945 17.5603 16.1911 17.5603C20.6876 17.5603 22.9359 23.9181 27.4325 23.9181C31.929 23.9181 34.1773 23.0796 38.6738 21.9355C43.1704 20.7914 45.4187 18.1974 49.9152 18.1974C54.4118 18.1974 56.6601 20.2526 61.1566 21.6939C65.6532 23.1351 67.9014 25.4037 72.398 25.4037C76.8945 25.4037 79.1428 23.3497 83.6394 23.3497C88.1359 23.3497 90.3842 23.3643 94.8807 23.696C99.3773 24.0277 101.626 25.0082 106.122 25.0082C110.619 25.0082 112.867 21.4275 117.364 21.4275C121.86 21.4275 124.108 21.9973 128.605 22.435C133.101 22.8727 135.35 23.6161 139.846 23.6161C144.343 23.6161 146.591 18.1179 151.088 18.1179C155.584 18.1179 157.832 18.1179 162.329 18.4571C166.826 18.7963 169.074 25.1955 173.57 25.1955C178.067 25.1955 180.315 20.9928 184.812 16.6899C189.308 12.387 191.557 3.68091 196.053 3.68091C200.55 3.68091 202.798 7.29594 207.295 11.5671C211.791 15.8382 214.039 22.647 218.536 25.0367C223.032 27.4263 225.281 27.4263 229.777 27.4263C234.274 27.4263 236.522 25.7712 241.019 24.4756C245.515 23.1799 247.764 20.9481 252.26 20.9481C256.757 20.9481 259.005 21.5791 263.501 22.9478C267.998 24.3165 270.246 26.2932 274.743 27.7918C279.239 29.2904 281.488 30.4408 285.984 30.4408C290.481 30.4408 292.729 28.9466 297.226 28.9466C301.722 28.9466 303.97 31.2119 308.467 31.2119C312.964 31.2119 315.212 31.2119 319.708 30.0098C324.205 28.8077 330.95 20.6842 330.95 20.6842" stroke="#2E8FC1" stroke-width="2"/>
<path d="M24.36 137.98V123.78H30.42C31.1 123.78 31.72 123.92 32.28 124.2C32.8533 124.467 33.3467 124.833 33.76 125.3C34.1733 125.753 34.4933 126.267 34.72 126.84C34.9467 127.413 35.06 127.993 35.06 128.58C35.06 129.407 34.8667 130.187 34.48 130.92C34.1067 131.653 33.58 132.253 32.9 132.72C32.22 133.173 31.4267 133.4 30.52 133.4H27.64V137.98H24.36ZM27.64 130.54H30.32C30.7067 130.54 31.04 130.373 31.32 130.04C31.6 129.707 31.74 129.22 31.74 128.58C31.74 127.927 31.5733 127.447 31.24 127.14C30.92 126.82 30.5733 126.66 30.2 126.66H27.64V130.54ZM35.7642 134.84C35.7642 134.147 35.9576 133.54 36.3442 133.02C36.7309 132.5 37.2642 132.093 37.9442 131.8C38.6242 131.493 39.4042 131.34 40.2842 131.34C40.7109 131.34 41.1309 131.38 41.5442 131.46C41.9576 131.527 42.3176 131.627 42.6242 131.76V131.3C42.6242 130.113 41.9242 129.52 40.5242 129.52C39.9376 129.52 39.3842 129.62 38.8642 129.82C38.3576 130.02 37.8176 130.307 37.2442 130.68L36.2842 128.64C37.6709 127.733 39.1909 127.28 40.8442 127.28C42.4176 127.28 43.6376 127.66 44.5042 128.42C45.3842 129.167 45.8242 130.253 45.8242 131.68V134.42C45.8242 134.74 45.8709 134.967 45.9642 135.1C46.0709 135.233 46.2509 135.307 46.5042 135.32V137.98C46.2242 138.033 45.9709 138.073 45.7442 138.1C45.5176 138.127 45.3176 138.14 45.1442 138.14C44.5442 138.14 44.0842 138.02 43.7642 137.78C43.4576 137.54 43.2642 137.213 43.1842 136.8L43.1242 136.34C42.6576 136.94 42.0976 137.4 41.4442 137.72C40.7909 138.027 40.1176 138.18 39.4242 138.18C38.7309 138.18 38.1042 138.033 37.5442 137.74C36.9976 137.447 36.5642 137.053 36.2442 136.56C35.9242 136.053 35.7642 135.48 35.7642 134.84ZM42.1242 135.24C42.4576 134.973 42.6242 134.7 42.6242 134.42V133.48C42.3442 133.373 42.0376 133.293 41.7042 133.24C41.3842 133.173 41.0909 133.14 40.8242 133.14C40.2242 133.14 39.7309 133.273 39.3442 133.54C38.9709 133.807 38.7842 134.147 38.7842 134.56C38.7842 134.92 38.9242 135.233 39.2042 135.5C39.4976 135.753 39.8842 135.88 40.3642 135.88C40.6842 135.88 41.0042 135.82 41.3242 135.7C41.6442 135.58 41.9109 135.427 42.1242 135.24ZM54.803 130.22C54.0296 130.233 53.3296 130.36 52.703 130.6C52.0763 130.84 51.623 131.2 51.343 131.68V137.98H48.143V127.48H51.083V129.6C51.443 128.893 51.9096 128.34 52.483 127.94C53.0563 127.54 53.6563 127.333 54.283 127.32C54.5496 127.32 54.723 127.327 54.803 127.34V130.22ZM56.1508 126.28V123.38H59.3508V126.28H56.1508ZM56.1508 137.98V127.48H59.3508V137.98H56.1508ZM65.5614 138.18C64.6547 138.18 63.7747 138.033 62.9214 137.74C62.0814 137.433 61.3681 137 60.7814 136.44L61.8814 134.42C63.1747 135.367 64.3681 135.84 65.4614 135.84C65.8747 135.84 66.1947 135.773 66.4214 135.64C66.6481 135.507 66.7614 135.3 66.7614 135.02C66.7614 134.727 66.6081 134.52 66.3014 134.4C65.9947 134.267 65.5414 134.113 64.9414 133.94C64.1414 133.673 63.4747 133.413 62.9414 133.16C62.4081 132.907 62.0081 132.6 61.7414 132.24C61.4747 131.88 61.3414 131.4 61.3414 130.8C61.3414 129.747 61.7347 128.9 62.5214 128.26C63.3081 127.607 64.3747 127.28 65.7214 127.28C66.4414 127.28 67.1414 127.393 67.8214 127.62C68.5147 127.847 69.1614 128.227 69.7614 128.76L68.5214 130.76C67.9214 130.347 67.3881 130.047 66.9214 129.86C66.4547 129.673 66.0014 129.58 65.5614 129.58C65.2147 129.58 64.9214 129.647 64.6814 129.78C64.4414 129.9 64.3214 130.113 64.3214 130.42C64.3214 130.713 64.4547 130.933 64.7214 131.08C64.9881 131.213 65.4014 131.36 65.9614 131.52C66.8147 131.773 67.5281 132.033 68.1014 132.3C68.6881 132.553 69.1214 132.873 69.4014 133.26C69.6947 133.633 69.8414 134.133 69.8414 134.76C69.8414 135.827 69.4547 136.667 68.6814 137.28C67.9081 137.88 66.8681 138.18 65.5614 138.18ZM88.1508 134.34C88.1508 135.153 87.9308 135.833 87.4908 136.38C87.0508 136.913 86.4641 137.313 85.7308 137.58C85.0108 137.847 84.2108 137.98 83.3308 137.98H76.4108V123.78H84.3108C84.9774 123.78 85.5508 123.96 86.0308 124.32C86.5108 124.667 86.8841 125.12 87.1508 125.68C87.4174 126.24 87.5508 126.82 87.5508 127.42C87.5508 128.087 87.3774 128.727 87.0308 129.34C86.6841 129.953 86.1774 130.407 85.5108 130.7C86.3108 130.94 86.9508 131.367 87.4308 131.98C87.9108 132.593 88.1508 133.38 88.1508 134.34ZM79.6908 126.58V129.52H82.9108C83.2708 129.52 83.5908 129.4 83.8708 129.16C84.1508 128.92 84.2908 128.547 84.2908 128.04C84.2908 127.573 84.1641 127.213 83.9108 126.96C83.6708 126.707 83.3774 126.58 83.0308 126.58H79.6908ZM84.8108 133.68C84.8108 133.24 84.6841 132.867 84.4308 132.56C84.1774 132.253 83.8574 132.1 83.4708 132.1H79.6908V135.2H83.3308C83.7441 135.2 84.0908 135.06 84.3708 134.78C84.6641 134.487 84.8108 134.12 84.8108 133.68ZM94.8227 138.18C93.6227 138.18 92.6027 137.927 91.7627 137.42C90.936 136.913 90.3027 136.247 89.8627 135.42C89.4227 134.593 89.2027 133.7 89.2027 132.74C89.2027 131.767 89.4227 130.867 89.8627 130.04C90.3027 129.213 90.9427 128.547 91.7827 128.04C92.6227 127.533 93.636 127.28 94.8227 127.28C96.0093 127.28 97.0227 127.533 97.8627 128.04C98.7027 128.547 99.3427 129.213 99.7827 130.04C100.223 130.867 100.443 131.767 100.443 132.74C100.443 133.7 100.223 134.593 99.7827 135.42C99.3427 136.247 98.7027 136.913 97.8627 137.42C97.0227 137.927 96.0093 138.18 94.8227 138.18ZM92.4827 132.74C92.4827 133.553 92.7027 134.213 93.1427 134.72C93.596 135.227 94.156 135.48 94.8227 135.48C95.476 135.48 96.0227 135.227 96.4627 134.72C96.916 134.213 97.1427 133.553 97.1427 132.74C97.1427 131.927 96.916 131.267 96.4627 130.76C96.0227 130.253 95.476 130 94.8227 130C94.156 130 93.596 130.253 93.1427 130.76C92.7027 131.267 92.4827 131.927 92.4827 132.74ZM118.63 137.98H115.43V132.08C115.43 131.4 115.303 130.9 115.05 130.58C114.796 130.26 114.47 130.1 114.07 130.1C113.643 130.1 113.223 130.273 112.81 130.62C112.396 130.967 112.103 131.413 111.93 131.96V137.98H108.73V132.08C108.73 131.387 108.603 130.887 108.35 130.58C108.096 130.26 107.77 130.1 107.37 130.1C106.943 130.1 106.523 130.273 106.11 130.62C105.71 130.967 105.416 131.413 105.23 131.96V137.98H102.03V127.48H104.91V129.24C105.296 128.613 105.823 128.133 106.49 127.8C107.156 127.453 107.923 127.28 108.79 127.28C109.656 127.28 110.323 127.487 110.79 127.9C111.256 128.3 111.556 128.773 111.69 129.32C112.09 128.68 112.616 128.18 113.27 127.82C113.936 127.46 114.683 127.28 115.51 127.28C116.176 127.28 116.71 127.407 117.11 127.66C117.523 127.9 117.836 128.22 118.05 128.62C118.276 129.02 118.43 129.453 118.51 129.92C118.59 130.373 118.63 130.82 118.63 131.26V137.98ZM127.021 138.18C126.221 138.18 125.521 138.013 124.921 137.68C124.321 137.333 123.848 136.853 123.501 136.24V137.98H120.721V123.38H123.921V129.2C124.254 128.6 124.714 128.133 125.301 127.8C125.888 127.453 126.574 127.28 127.361 127.28C128.254 127.28 129.041 127.527 129.721 128.02C130.414 128.513 130.954 129.173 131.341 130C131.728 130.827 131.921 131.753 131.921 132.78C131.921 133.793 131.708 134.713 131.281 135.54C130.854 136.353 130.268 137 129.521 137.48C128.788 137.947 127.954 138.18 127.021 138.18ZM126.121 135.48C126.868 135.48 127.474 135.22 127.941 134.7C128.408 134.18 128.641 133.54 128.641 132.78C128.641 132.287 128.534 131.827 128.321 131.4C128.121 130.973 127.841 130.633 127.481 130.38C127.134 130.127 126.734 130 126.281 130C125.774 130 125.308 130.173 124.881 130.52C124.454 130.867 124.134 131.3 123.921 131.82V134.02C124.134 134.473 124.441 134.833 124.841 135.1C125.254 135.353 125.681 135.48 126.121 135.48ZM133.514 126.28V123.38H136.714V126.28H133.514ZM133.514 137.98V127.48H136.714V137.98H133.514ZM149.025 137.98H145.825V132.08C145.825 131.387 145.691 130.887 145.425 130.58C145.171 130.26 144.831 130.1 144.405 130.1C143.965 130.1 143.518 130.273 143.065 130.62C142.611 130.967 142.291 131.413 142.105 131.96V137.98H138.905V127.48H141.785V129.24C142.171 128.627 142.718 128.147 143.425 127.8C144.131 127.453 144.945 127.28 145.865 127.28C146.545 127.28 147.091 127.407 147.505 127.66C147.931 127.9 148.251 128.22 148.465 128.62C148.691 129.007 148.838 129.433 148.905 129.9C148.985 130.367 149.025 130.82 149.025 131.26V137.98ZM155.231 138.02C154.297 138.02 153.484 137.78 152.791 137.3C152.097 136.82 151.551 136.18 151.151 135.38C150.764 134.58 150.571 133.693 150.571 132.72C150.571 131.693 150.777 130.773 151.191 129.96C151.604 129.133 152.177 128.48 152.911 128C153.644 127.52 154.491 127.28 155.451 127.28C156.237 127.28 156.931 127.453 157.531 127.8C158.131 128.133 158.611 128.6 158.971 129.2V127.48H161.751V137.26C161.751 138.327 161.491 139.247 160.971 140.02C160.464 140.793 159.751 141.387 158.831 141.8C157.924 142.227 156.871 142.44 155.671 142.44C154.551 142.44 153.584 142.253 152.771 141.88C151.971 141.52 151.271 141.007 150.671 140.34L152.391 138.6C152.777 139.04 153.257 139.387 153.831 139.64C154.417 139.907 155.031 140.04 155.671 140.04C156.191 140.04 156.664 139.947 157.091 139.76C157.531 139.573 157.884 139.273 158.151 138.86C158.417 138.46 158.551 137.927 158.551 137.26V136.24C158.231 136.827 157.764 137.273 157.151 137.58C156.551 137.873 155.911 138.02 155.231 138.02ZM156.331 135.48C156.824 135.48 157.264 135.347 157.651 135.08C158.037 134.8 158.337 134.447 158.551 134.02V131.82C158.337 131.273 158.011 130.833 157.571 130.5C157.131 130.167 156.664 130 156.171 130C155.717 130 155.311 130.133 154.951 130.4C154.604 130.653 154.331 130.993 154.131 131.42C153.931 131.847 153.831 132.307 153.831 132.8C153.831 133.573 154.071 134.213 154.551 134.72C155.031 135.227 155.624 135.48 156.331 135.48ZM167.964 138.18C167.057 138.18 166.177 138.033 165.324 137.74C164.484 137.433 163.77 137 163.184 136.44L164.284 134.42C165.577 135.367 166.77 135.84 167.864 135.84C168.277 135.84 168.597 135.773 168.824 135.64C169.05 135.507 169.164 135.3 169.164 135.02C169.164 134.727 169.01 134.52 168.704 134.4C168.397 134.267 167.944 134.113 167.344 133.94C166.544 133.673 165.877 133.413 165.344 133.16C164.81 132.907 164.41 132.6 164.144 132.24C163.877 131.88 163.744 131.4 163.744 130.8C163.744 129.747 164.137 128.9 164.924 128.26C165.71 127.607 166.777 127.28 168.124 127.28C168.844 127.28 169.544 127.393 170.224 127.62C170.917 127.847 171.564 128.227 172.164 128.76L170.924 130.76C170.324 130.347 169.79 130.047 169.324 129.86C168.857 129.673 168.404 129.58 167.964 129.58C167.617 129.58 167.324 129.647 167.084 129.78C166.844 129.9 166.724 130.113 166.724 130.42C166.724 130.713 166.857 130.933 167.124 131.08C167.39 131.213 167.804 131.36 168.364 131.52C169.217 131.773 169.93 132.033 170.504 132.3C171.09 132.553 171.524 132.873 171.804 133.26C172.097 133.633 172.244 134.133 172.244 134.76C172.244 135.827 171.857 136.667 171.084 137.28C170.31 137.88 169.27 138.18 167.964 138.18ZM178.053 131.04C178.053 129.68 178.346 128.313 178.933 126.94C179.52 125.567 180.24 124.153 181.093 122.7L183.533 123.7C183.346 123.993 183.113 124.407 182.833 124.94C182.566 125.473 182.293 126.087 182.013 126.78C181.733 127.46 181.5 128.173 181.313 128.92C181.126 129.667 181.033 130.393 181.033 131.1C181.033 132.167 181.26 133.273 181.713 134.42C182.18 135.567 182.76 136.767 183.453 138.02L181.133 139.16C180.573 138.333 180.06 137.473 179.593 136.58C179.126 135.673 178.753 134.753 178.473 133.82C178.193 132.887 178.053 131.96 178.053 131.04ZM193.837 135.1V137.98H185.197V135.1H188.037V130C187.877 130.213 187.604 130.427 187.217 130.64C186.844 130.853 186.43 131.04 185.977 131.2C185.537 131.347 185.144 131.42 184.797 131.42V128.46C185.024 128.46 185.304 128.387 185.637 128.24C185.97 128.093 186.304 127.92 186.637 127.72C186.984 127.507 187.284 127.293 187.537 127.08C187.804 126.867 187.97 126.693 188.037 126.56H191.297V135.1H193.837ZM204.189 135.1V137.98H195.549V135.1H198.389V130C198.229 130.213 197.955 130.427 197.569 130.64C197.195 130.853 196.782 131.04 196.329 131.2C195.889 131.347 195.495 131.42 195.149 131.42V128.46C195.375 128.46 195.655 128.387 195.989 128.24C196.322 128.093 196.655 127.92 196.989 127.72C197.335 127.507 197.635 127.293 197.889 127.08C198.155 126.867 198.322 126.693 198.389 126.56H201.649V135.1H204.189ZM218.82 123.78L208.72 137.98H205.18L215.28 123.78H218.82ZM228.759 135.1V137.98H220.119V135.1H222.959V130C222.799 130.213 222.526 130.427 222.139 130.64C221.766 130.853 221.352 131.04 220.899 131.2C220.459 131.347 220.066 131.42 219.719 131.42V128.46C219.946 128.46 220.226 128.387 220.559 128.24C220.892 128.093 221.226 127.92 221.559 127.72C221.906 127.507 222.206 127.293 222.459 127.08C222.726 126.867 222.892 126.693 222.959 126.56H226.219V135.1H228.759ZM237.09 133.24C237.917 133.387 238.59 133.793 239.11 134.46C239.63 135.113 239.89 135.907 239.89 136.84C239.89 137.667 239.67 138.387 239.23 139C238.79 139.613 238.164 140.087 237.35 140.42C236.537 140.753 235.577 140.92 234.47 140.92C232.457 140.92 230.87 140.327 229.71 139.14L231.43 136.86C231.79 137.233 232.204 137.52 232.67 137.72C233.137 137.907 233.684 138 234.31 138C235.817 138 236.57 137.447 236.57 136.34C236.57 135.74 236.344 135.287 235.89 134.98C235.437 134.673 234.737 134.52 233.79 134.52H233.19V132.22H233.85C234.584 132.22 235.164 132.067 235.59 131.76C236.017 131.44 236.23 131.033 236.23 130.54C236.23 130.1 236.077 129.767 235.77 129.54C235.464 129.313 235.057 129.2 234.55 129.2C233.43 129.2 232.557 129.7 231.93 130.7L229.91 128.38C230.204 128.007 230.604 127.673 231.11 127.38C231.63 127.087 232.217 126.86 232.87 126.7C233.524 126.54 234.204 126.46 234.91 126.46C235.857 126.46 236.684 126.607 237.39 126.9C238.11 127.193 238.664 127.607 239.05 128.14C239.45 128.66 239.65 129.28 239.65 130C239.65 130.52 239.544 131.013 239.33 131.48C239.117 131.933 238.817 132.32 238.43 132.64C238.044 132.947 237.597 133.147 237.09 133.24ZM254.777 123.78L244.677 137.98H241.137L251.237 123.78H254.777ZM255.536 137.98C255.536 137.14 255.629 136.413 255.816 135.8C256.003 135.187 256.316 134.64 256.756 134.16C257.209 133.68 257.829 133.227 258.616 132.8C259.456 132.347 260.109 131.993 260.576 131.74C261.056 131.473 261.389 131.247 261.576 131.06C261.776 130.86 261.876 130.633 261.876 130.38C261.876 130.007 261.743 129.707 261.476 129.48C261.209 129.253 260.829 129.14 260.336 129.14C259.789 129.14 259.303 129.28 258.876 129.56C258.449 129.827 258.043 130.18 257.656 130.62L255.636 128.26C255.929 127.953 256.336 127.653 256.856 127.36C257.389 127.067 257.996 126.827 258.676 126.64C259.369 126.453 260.109 126.36 260.896 126.36C262.323 126.36 263.423 126.68 264.196 127.32C264.969 127.947 265.356 128.787 265.356 129.84C265.356 130.44 265.236 130.953 264.996 131.38C264.769 131.793 264.469 132.147 264.096 132.44C263.736 132.733 263.363 133 262.976 133.24C262.336 133.573 261.776 133.88 261.296 134.16C260.829 134.427 260.409 134.74 260.036 135.1H265.576V137.98H255.536ZM277.798 132.12C277.798 133.293 277.571 134.34 277.118 135.26C276.664 136.167 276.044 136.88 275.258 137.4C274.471 137.92 273.578 138.18 272.578 138.18C271.578 138.18 270.684 137.92 269.898 137.4C269.111 136.88 268.491 136.167 268.038 135.26C267.584 134.34 267.358 133.293 267.358 132.12C267.358 130.947 267.584 129.907 268.038 129C268.491 128.08 269.111 127.36 269.898 126.84C270.684 126.307 271.578 126.04 272.578 126.04C273.578 126.04 274.471 126.307 275.258 126.84C276.044 127.36 276.664 128.08 277.118 129C277.571 129.907 277.798 130.947 277.798 132.12ZM274.578 132.12C274.578 131.187 274.384 130.433 273.998 129.86C273.624 129.273 273.151 128.98 272.578 128.98C271.978 128.98 271.491 129.273 271.118 129.86C270.744 130.433 270.558 131.187 270.558 132.12C270.558 133.053 270.744 133.807 271.118 134.38C271.491 134.953 271.978 135.24 272.578 135.24C273.151 135.24 273.624 134.953 273.998 134.38C274.384 133.807 274.578 133.053 274.578 132.12ZM288.603 135.1V137.98H279.963V135.1H282.803V130C282.643 130.213 282.369 130.427 281.983 130.64C281.609 130.853 281.196 131.04 280.743 131.2C280.303 131.347 279.909 131.42 279.563 131.42V128.46C279.789 128.46 280.069 128.387 280.403 128.24C280.736 128.093 281.069 127.92 281.403 127.72C281.749 127.507 282.049 127.293 282.303 127.08C282.569 126.867 282.736 126.693 282.803 126.56H286.063V135.1H288.603ZM294.294 140.96C293.268 140.96 292.341 140.747 291.514 140.32C290.688 139.907 290.054 139.333 289.614 138.6L291.394 136.62C291.781 137.087 292.234 137.46 292.754 137.74C293.274 138.02 293.794 138.16 294.314 138.16C294.928 138.16 295.421 137.98 295.794 137.62C296.181 137.26 296.374 136.78 296.374 136.18C296.374 135.62 296.194 135.167 295.834 134.82C295.488 134.46 295.041 134.28 294.494 134.28C294.134 134.28 293.794 134.36 293.474 134.52C293.168 134.68 292.928 134.907 292.754 135.2H289.974L291.634 126.56H298.694V129.48H293.954L293.554 131.9C293.634 131.807 293.788 131.727 294.014 131.66C294.254 131.58 294.568 131.54 294.954 131.54C295.861 131.54 296.668 131.733 297.374 132.12C298.081 132.507 298.634 133.047 299.034 133.74C299.448 134.433 299.654 135.227 299.654 136.12C299.654 137.08 299.421 137.92 298.954 138.64C298.501 139.373 297.868 139.94 297.054 140.34C296.254 140.753 295.334 140.96 294.294 140.96ZM306.107 131.04C306.107 131.96 305.967 132.887 305.687 133.82C305.407 134.753 305.033 135.673 304.567 136.58C304.1 137.473 303.587 138.333 303.027 139.16L300.707 138.02C301.4 136.767 301.973 135.567 302.427 134.42C302.893 133.273 303.127 132.167 303.127 131.1C303.127 130.393 303.033 129.667 302.847 128.92C302.66 128.173 302.427 127.46 302.147 126.78C301.867 126.087 301.587 125.473 301.307 124.94C301.04 124.407 300.813 123.993 300.627 123.7L303.067 122.7C303.92 124.153 304.64 125.567 305.227 126.94C305.813 128.313 306.107 129.68 306.107 131.04Z" fill="white"/>
<path d="M4.94971 32.1154C3.88901 32.1154 2.87175 31.6943 2.12163 30.9446C1.37152 30.1949 0.949972 29.1781 0.949707 28.1178C0.949442 27.0574 1.37048 26.0404 2.12022 25.2903C2.86996 24.5403 3.88701 24.1186 4.94771 24.1181C6.0084 24.1176 7.02587 24.5382 7.77637 25.2875C8.52686 26.0368 8.94891 27.0534 8.94971 28.1138C8.9505 29.1741 8.52997 30.1913 7.78061 30.9418C7.03124 31.6922 6.0144 32.1143 4.95371 32.1154L4.94971 32.1154Z" fill="#2E8FC1"/>
<path d="M15.9497 21.1191C14.889 21.1191 13.8718 20.698 13.1216 19.9483C12.3715 19.1986 11.95 18.1818 11.9497 17.1214C11.9494 16.0611 12.3705 15.0441 13.1202 14.294C13.87 13.544 14.887 13.1223 15.9477 13.1218C17.0084 13.1213 18.0259 13.5419 18.7764 14.2912C19.5269 15.0405 19.9489 16.0571 19.9497 17.1174C19.9505 18.1778 19.53 19.195 18.7806 19.9454C18.0312 20.6959 17.0144 21.118 15.9537 21.1191L15.9497 21.1191Z" fill="#2E8FC1"/>
<path d="M26.9497 28.1168C25.889 28.1168 24.8718 27.6956 24.1216 26.9459C23.3715 26.1963 22.95 25.1794 22.9497 24.1191C22.9494 23.0588 23.3705 22.0417 24.1202 21.2917C24.87 20.5416 25.887 20.12 26.9477 20.1194C28.0084 20.1189 29.0259 20.5395 29.7764 21.2888C30.5269 22.0381 30.9489 23.0548 30.9497 24.1151C30.9505 25.1754 30.53 26.1927 29.7806 26.9431C29.0312 27.6935 28.0144 28.1157 26.9537 28.1168L26.9497 28.1168Z" fill="#2E8FC1"/>
<path d="M38.9497 26.1174C37.889 26.1174 36.8718 25.6963 36.1216 24.9466C35.3715 24.1969 34.95 23.1801 34.9497 22.1198C34.9494 21.0594 35.3705 20.0424 36.1202 19.2923C36.87 18.5423 37.887 18.1206 38.9477 18.1201C40.0084 18.1196 41.0259 18.5402 41.7764 19.2895C42.5269 20.0388 42.9489 21.0554 42.9497 22.1158C42.9505 23.1761 42.53 24.1933 41.7806 24.9438C41.0312 25.6942 40.0144 26.1164 38.9537 26.1174L38.9497 26.1174Z" fill="#2E8FC1"/>
<path d="M48.9497 22.1188C47.889 22.1188 46.8717 21.6976 46.1216 20.9479C45.3715 20.1983 44.95 19.1814 44.9497 18.1211C44.9494 17.0608 45.3705 16.0437 46.1202 15.2937C46.87 14.5436 47.887 14.122 48.9477 14.1214C50.0084 14.1209 51.0259 14.5416 51.7764 15.2909C52.5269 16.0402 52.9489 17.0568 52.9497 18.1171C52.9505 19.1774 52.53 20.1947 51.7806 20.9451C51.0312 21.6955 50.0144 22.1177 48.9537 22.1188L48.9497 22.1188Z" fill="#2E8FC1"/>
<path d="M60.9497 26.1174C59.889 26.1174 58.8717 25.6963 58.1216 24.9466C57.3715 24.1969 56.95 23.1801 56.9497 22.1198C56.9494 21.0594 57.3705 20.0424 58.1202 19.2923C58.87 18.5423 59.887 18.1206 60.9477 18.1201C62.0084 18.1196 63.0259 18.5402 63.7764 19.2895C64.5269 20.0388 64.9489 21.0554 64.9497 22.1158C64.9505 23.1761 64.53 24.1933 63.7806 24.9438C63.0312 25.6942 62.0144 26.1164 60.9537 26.1174L60.9497 26.1174Z" fill="#2E8FC1"/>
<path d="M71.9497 29.1164C70.889 29.1164 69.8718 28.6953 69.1216 27.9456C68.3715 27.1959 67.95 26.1791 67.9497 25.1188C67.9494 24.0584 68.3705 23.0414 69.1202 22.2913C69.87 21.5413 70.887 21.1196 71.9477 21.1191C73.0084 21.1186 74.0259 21.5392 74.7764 22.2885C75.5269 23.0378 75.9489 24.0544 75.9497 25.1148C75.9505 26.1751 75.53 27.1923 74.7806 27.9428C74.0312 28.6932 73.0144 29.1154 71.9537 29.1164L71.9497 29.1164Z" fill="#2E8FC1"/>
<path d="M82.9497 27.1171C81.889 27.1171 80.8718 26.6959 80.1216 25.9463C79.3715 25.1966 78.95 24.1798 78.9497 23.1194C78.9494 22.0591 79.3705 21.0421 80.1202 20.292C80.87 19.542 81.887 19.1203 82.9477 19.1198C84.0084 19.1192 85.0259 19.5399 85.7764 20.2892C86.5269 21.0385 86.9489 22.0551 86.9497 23.1154C86.9505 24.1758 86.53 25.193 85.7806 25.9434C85.0312 26.6939 84.0144 27.116 82.9537 27.1171L82.9497 27.1171Z" fill="#2E8FC1"/>
<path d="M93.9497 28.1168C92.889 28.1168 91.8718 27.6956 91.1216 26.9459C90.3715 26.1963 89.95 25.1794 89.9497 24.1191C89.9494 23.0588 90.3705 22.0417 91.1202 21.2917C91.87 20.5416 92.887 20.12 93.9477 20.1194C95.0084 20.1189 96.0259 20.5395 96.7764 21.2888C97.5269 22.0381 97.9489 23.0548 97.9497 24.1151C97.9505 25.1754 97.53 26.1927 96.7806 26.9431C96.0312 27.6935 95.0144 28.1157 93.9537 28.1168L93.9497 28.1168Z" fill="#2E8FC1"/>
<path d="M105.95 29.1164C104.889 29.1164 103.872 28.6953 103.122 27.9456C102.372 27.1959 101.95 26.1791 101.95 25.1188C101.949 24.0584 102.37 23.0414 103.12 22.2913C103.87 21.5413 104.887 21.1196 105.948 21.1191C107.008 21.1186 108.026 21.5392 108.776 22.2885C109.527 23.0378 109.949 24.0544 109.95 25.1148C109.951 26.1751 109.53 27.1923 108.781 27.9428C108.031 28.6932 107.014 29.1154 105.954 29.1164L105.95 29.1164Z" fill="#2E8FC1"/>
<path d="M116.95 25.1178C115.889 25.1178 114.872 24.6966 114.122 23.9469C113.372 23.1973 112.95 22.1804 112.95 21.1201C112.949 20.0598 113.37 19.0427 114.12 18.2927C114.87 17.5426 115.887 17.121 116.948 17.1204C118.008 17.1199 119.026 17.5405 119.776 18.2899C120.527 19.0392 120.949 20.0558 120.95 21.1161C120.951 22.1764 120.53 23.1937 119.781 23.9441C119.031 24.6945 118.014 25.1167 116.954 25.1178L116.95 25.1178Z" fill="#2E8FC1"/>
<path d="M127.95 26.1174C126.889 26.1174 125.872 25.6963 125.122 24.9466C124.372 24.1969 123.95 23.1801 123.95 22.1198C123.949 21.0594 124.37 20.0424 125.12 19.2923C125.87 18.5423 126.887 18.1206 127.948 18.1201C129.008 18.1196 130.026 18.5402 130.776 19.2895C131.527 20.0388 131.949 21.0554 131.95 22.1158C131.951 23.1761 131.53 24.1933 130.781 24.9438C130.031 25.6942 129.014 26.1164 127.954 26.1174L127.95 26.1174Z" fill="#2E8FC1"/>
<path d="M138.95 27.1171C137.889 27.1171 136.872 26.6959 136.122 25.9463C135.372 25.1966 134.95 24.1798 134.95 23.1194C134.949 22.0591 135.37 21.0421 136.12 20.292C136.87 19.542 137.887 19.1203 138.948 19.1198C140.008 19.1192 141.026 19.5399 141.776 20.2892C142.527 21.0385 142.949 22.0551 142.95 23.1154C142.951 24.1758 142.53 25.193 141.781 25.9434C141.031 26.6939 140.014 27.116 138.954 27.1171L138.95 27.1171Z" fill="#B60000"/>
<path d="M150.95 22.1188C149.889 22.1188 148.872 21.6976 148.122 20.9479C147.372 20.1983 146.95 19.1814 146.95 18.1211C146.949 17.0608 147.37 16.0437 148.12 15.2937C148.87 14.5436 149.887 14.122 150.948 14.1214C152.008 14.1209 153.026 14.5416 153.776 15.2909C154.527 16.0402 154.949 17.0568 154.95 18.1171C154.951 19.1774 154.53 20.1947 153.781 20.9451C153.031 21.6955 152.014 22.1177 150.954 22.1188L150.95 22.1188Z" fill="#B60000"/>
<path d="M161.95 22.1188C160.889 22.1188 159.872 21.6976 159.122 20.9479C158.372 20.1983 157.95 19.1814 157.95 18.1211C157.949 17.0608 158.37 16.0437 159.12 15.2937C159.87 14.5436 160.887 14.122 161.948 14.1214C163.008 14.1209 164.026 14.5416 164.776 15.2909C165.527 16.0402 165.949 17.0568 165.95 18.1171C165.951 19.1774 165.53 20.1947 164.781 20.9451C164.031 21.6955 163.014 22.1177 161.954 22.1188L161.95 22.1188Z" fill="#B60000"/>
<path d="M172.95 29.1164C171.889 29.1164 170.872 28.6953 170.122 27.9456C169.372 27.1959 168.95 26.1791 168.95 25.1188C168.949 24.0584 169.37 23.0414 170.12 22.2913C170.87 21.5413 171.887 21.1196 172.948 21.1191C174.008 21.1186 175.026 21.5392 175.776 22.2885C176.527 23.0378 176.949 24.0544 176.95 25.1148C176.951 26.1751 176.53 27.1923 175.781 27.9428C175.031 28.6932 174.014 29.1154 172.954 29.1164L172.95 29.1164Z" fill="#2E8FC1"/>
<path d="M183.95 21.1191C182.889 21.1191 181.872 20.698 181.122 19.9483C180.372 19.1986 179.95 18.1818 179.95 17.1214C179.949 16.0611 180.37 15.0441 181.12 14.294C181.87 13.544 182.887 13.1223 183.948 13.1218C185.008 13.1213 186.026 13.5419 186.776 14.2912C187.527 15.0405 187.949 16.0571 187.95 17.1174C187.951 18.1778 187.53 19.195 186.781 19.9454C186.031 20.6959 185.014 21.118 183.954 21.1191L183.95 21.1191Z" fill="#2E8FC1"/>
<path d="M195.95 8.12344C194.889 8.12344 193.872 7.70229 193.122 6.95261C192.372 6.20293 191.95 5.18611 191.95 4.12578C191.949 3.06544 192.37 2.04841 193.12 1.29836C193.87 0.548302 194.887 0.126645 195.948 0.126114C197.008 0.125584 198.026 0.546225 198.776 1.29553C199.527 2.04483 199.949 3.06144 199.95 4.12178C199.951 5.18212 199.53 6.19935 198.781 6.94978C198.031 7.70021 197.014 8.12238 195.954 8.12344L195.95 8.12344Z" fill="#2E8FC1"/>
<path d="M206.95 15.1211C205.889 15.1211 204.872 14.6999 204.122 13.9503C203.372 13.2006 202.95 12.1838 202.95 11.1234C202.949 10.0631 203.37 9.04606 204.12 8.29601C204.87 7.54595 205.887 7.12429 206.948 7.12376C208.008 7.12323 209.026 7.54387 209.776 8.29318C210.527 9.04248 210.949 10.0591 210.95 11.1194C210.951 12.1798 210.53 13.197 209.781 13.9474C209.031 14.6979 208.014 15.12 206.954 15.1211L206.95 15.1211Z" fill="#2E8FC1"/>
<path d="M217.95 29.1164C216.889 29.1164 215.872 28.6953 215.122 27.9456C214.372 27.1959 213.95 26.1791 213.95 25.1188C213.949 24.0584 214.37 23.0414 215.12 22.2913C215.87 21.5413 216.887 21.1196 217.948 21.1191C219.008 21.1186 220.026 21.5392 220.776 22.2885C221.527 23.0378 221.949 24.0544 221.95 25.1148C221.951 26.1751 221.53 27.1923 220.781 27.9428C220.031 28.6932 219.014 29.1154 217.954 29.1164L217.95 29.1164Z" fill="#2E8FC1"/>
<path d="M228.95 31.1157C227.889 31.1157 226.872 30.6946 226.122 29.9449C225.372 29.1952 224.95 28.1784 224.95 27.1181C224.949 26.0577 225.37 25.0407 226.12 24.2907C226.87 23.5406 227.887 23.119 228.948 23.1184C230.008 23.1179 231.026 23.5385 231.776 24.2878C232.527 25.0371 232.949 26.0537 232.95 27.1141C232.951 28.1744 232.53 29.1917 231.781 29.9421C231.031 30.6925 230.014 31.1147 228.954 31.1157L228.95 31.1157Z" fill="#2E8FC1"/>
<path d="M240.95 28.1168C239.889 28.1168 238.872 27.6956 238.122 26.9459C237.372 26.1963 236.95 25.1794 236.95 24.1191C236.949 23.0588 237.37 22.0417 238.12 21.2917C238.87 20.5416 239.887 20.12 240.948 20.1194C242.008 20.1189 243.026 20.5395 243.776 21.2888C244.527 22.0381 244.949 23.0548 244.95 24.1151C244.951 25.1754 244.53 26.1927 243.781 26.9431C243.031 27.6935 242.014 28.1157 240.954 28.1168L240.95 28.1168Z" fill="#2E8FC1"/>
<path d="M251.95 25.1178C250.889 25.1178 249.872 24.6966 249.122 23.9469C248.372 23.1973 247.95 22.1804 247.95 21.1201C247.949 20.0598 248.37 19.0427 249.12 18.2927C249.87 17.5426 250.887 17.121 251.948 17.1204C253.008 17.1199 254.026 17.5405 254.776 18.2899C255.527 19.0392 255.949 20.0558 255.95 21.1161C255.951 22.1764 255.53 23.1937 254.781 23.9441C254.031 24.6945 253.014 25.1167 251.954 25.1178L251.95 25.1178Z" fill="#2E8FC1"/>
<path d="M262.95 27.1171C261.889 27.1171 260.872 26.6959 260.122 25.9463C259.372 25.1966 258.95 24.1798 258.95 23.1194C258.949 22.0591 259.37 21.0421 260.12 20.292C260.87 19.542 261.887 19.1203 262.948 19.1198C264.008 19.1192 265.026 19.5399 265.776 20.2892C266.527 21.0385 266.949 22.0551 266.95 23.1154C266.951 24.1758 266.53 25.193 265.781 25.9434C265.031 26.6939 264.014 27.116 262.954 27.1171L262.95 27.1171Z" fill="#2E8FC1"/>
<path d="M273.95 32.1154C272.889 32.1154 271.872 31.6943 271.122 30.9446C270.372 30.1949 269.95 29.1781 269.95 28.1178C269.949 27.0574 270.37 26.0404 271.12 25.2903C271.87 24.5403 272.887 24.1186 273.948 24.1181C275.008 24.1176 276.026 24.5382 276.776 25.2875C277.527 26.0368 277.949 27.0534 277.95 28.1138C277.951 29.1741 277.53 30.1913 276.781 30.9418C276.031 31.6922 275.014 32.1143 273.954 32.1154L273.95 32.1154Z" fill="#2E8FC1"/>
<path d="M285.95 34.1147C284.889 34.1147 283.872 33.6936 283.122 32.9439C282.372 32.1942 281.95 31.1774 281.95 30.1171C281.949 29.0567 282.37 28.0397 283.12 27.2897C283.87 26.5396 284.887 26.1179 285.948 26.1174C287.008 26.1169 288.026 26.5375 288.776 27.2868C289.527 28.0361 289.949 29.0527 289.95 30.1131C289.951 31.1734 289.53 32.1907 288.781 32.9411C288.031 33.6915 287.014 34.1137 285.954 34.1147L285.95 34.1147Z" fill="#2E8FC1"/>
<path d="M296.95 33.1151C295.889 33.1151 294.872 32.6939 294.122 31.9443C293.372 31.1946 292.95 30.1778 292.95 29.1174C292.949 28.0571 293.37 27.04 294.12 26.29C294.87 25.5399 295.887 25.1183 296.948 25.1178C298.008 25.1172 299.026 25.5379 299.776 26.2872C300.527 27.0365 300.949 28.0531 300.95 29.1134C300.951 30.1738 300.53 31.191 299.781 31.9414C299.031 32.6918 298.014 33.114 296.954 33.1151L296.95 33.1151Z" fill="#2E8FC1"/>
<path d="M307.95 35.1144C306.889 35.1144 305.872 34.6933 305.122 33.9436C304.372 33.1939 303.95 32.1771 303.95 31.1167C303.949 30.0564 304.37 29.0394 305.12 28.2893C305.87 27.5393 306.887 27.1176 307.948 27.1171C309.008 27.1166 310.026 27.5372 310.776 28.2865C311.527 29.0358 311.949 30.0524 311.95 31.1127C311.951 32.1731 311.53 33.1903 310.781 33.9407C310.031 34.6912 309.014 35.1133 307.954 35.1144L307.95 35.1144Z" fill="#2E8FC1"/>
<path d="M318.95 34.1147C317.889 34.1147 316.872 33.6936 316.122 32.9439C315.372 32.1942 314.95 31.1774 314.95 30.1171C314.949 29.0567 315.37 28.0397 316.12 27.2897C316.87 26.5396 317.887 26.1179 318.948 26.1174C320.008 26.1169 321.026 26.5375 321.776 27.2868C322.527 28.0361 322.949 29.0527 322.95 30.1131C322.951 31.1734 322.53 32.1907 321.781 32.9411C321.031 33.6915 320.014 34.1137 318.954 34.1147L318.95 34.1147Z" fill="#2E8FC1"/>
<path d="M330.95 25.1178C329.889 25.1178 328.872 24.6966 328.122 23.9469C327.372 23.1973 326.95 22.1804 326.95 21.1201C326.949 20.0598 327.37 19.0427 328.12 18.2927C328.87 17.5426 329.887 17.121 330.948 17.1204C332.008 17.1199 333.026 17.5405 333.776 18.2899C334.527 19.0392 334.949 20.0558 334.95 21.1161C334.951 22.1764 334.53 23.1937 333.781 23.9441C333.031 24.6945 332.014 25.1167 330.954 25.1178L330.95 25.1178Z" fill="#2E8FC1"/>
<path d="M139 24.9917L150.756 17.994L162 18.6302" stroke="#B60000" stroke-width="3"/>
</svg>
