<svg width="334" height="142" viewBox="0 0 334 142" fill="none" xmlns="http://www.w3.org/2000/svg">
<path d="M3.94971 33.3942C8.7823 32.1142 11.1986 33.3943 16.0312 32.1142C20.8638 30.8341 23.2801 28.5359 28.1127 25.4066C32.9453 22.2774 35.3616 19.1491 40.1942 16.4678C45.0268 13.7866 47.4431 12.0004 52.2757 12.0004C57.1083 12.0004 59.5245 12.1578 64.3571 14.733C69.1897 17.3082 71.606 24.8764 76.4386 24.8764C81.2712 24.8764 83.6875 18.8155 88.5201 14.886C93.3527 10.9565 95.769 5.22896 100.602 5.22896C105.434 5.22896 107.85 12.3907 112.683 12.3907C117.516 12.3907 119.932 10.7937 124.765 10.7937C129.597 10.7937 132.013 30.83 136.846 30.83C141.679 30.83 144.095 30.83 148.928 30.7595C153.76 30.6889 156.176 9.37993 161.009 9.37993C165.842 9.37993 168.258 9.37993 173.091 11.7719C177.923 14.1639 180.339 21.3838 185.172 26.8951C190.005 32.4065 192.421 39.3285 197.253 39.3285C202.086 39.3285 204.502 18.9803 209.335 18.9803C214.168 18.9803 216.584 18.9803 221.416 19.8844C226.249 20.7886 228.665 24.3124 233.498 24.3124C238.331 24.3124 240.747 4.12611 245.579 4.12611C250.412 4.12611 252.828 5.0527 257.661 10.7176C262.494 16.3824 264.91 32.4505 269.742 32.4505C274.575 32.4505 276.991 32.4505 281.824 29.4043C286.656 26.3581 289.073 15.7534 293.905 15.7534C298.738 15.7534 301.154 21.1868 305.987 21.1868C310.819 21.1868 313.236 21.1868 318.068 19.1614C322.901 17.1361 330.15 6.95434 330.15 6.95434" stroke="#2E8FC1" stroke-width="2"/>
<path d="M3.85014 38.0162C2.82919 38.0162 1.85004 37.5713 1.12802 36.7794C0.406007 35.9875 0.000255359 34.9133 1.20491e-07 33.7932C-0.000255118 32.6731 0.405008 31.5988 1.12666 30.8065C1.84831 30.0141 2.82726 29.5687 3.84822 29.5682C4.86917 29.5676 5.84853 30.012 6.5709 30.8035C7.29328 31.595 7.69952 32.6689 7.70029 33.789C7.70105 34.9091 7.29628 35.9837 6.57499 36.7764C5.8537 37.5691 4.87495 38.0151 3.85399 38.0162H3.85014Z" fill="#2E8FC1"/>
<path d="M15.4006 35.9042C14.3796 35.9042 13.4004 35.4593 12.6784 34.6674C11.9564 33.8755 11.5507 32.8013 11.5504 31.6812C11.5502 30.5611 11.9554 29.4868 12.6771 28.6945C13.3987 27.9021 14.3777 27.4567 15.3986 27.4561C16.4196 27.4556 17.3989 27.8999 18.1213 28.6915C18.8437 29.483 19.2499 30.5569 19.2507 31.677C19.2515 32.7971 18.8467 33.8717 18.1254 34.6644C17.4041 35.4571 16.4254 35.9031 15.4044 35.9042H15.4006Z" fill="#2E8FC1"/>
<path d="M27.9136 29.5682C26.8926 29.5682 25.9134 29.1233 25.1914 28.3313C24.4694 27.5394 24.0637 26.4653 24.0634 25.3452C24.0632 24.2251 24.4684 23.1507 25.1901 22.3584C25.9117 21.5661 26.8907 21.1207 27.9116 21.1201C28.9326 21.1196 29.9119 21.5639 30.6343 22.3554C31.3567 23.147 31.7629 24.2209 31.7637 25.341C31.7645 26.4611 31.3597 27.5356 30.6384 28.3284C29.9171 29.1211 28.9384 29.567 27.9174 29.5682L27.9136 29.5682Z" fill="#2E8FC1"/>
<path d="M39.464 21.1201C38.443 21.1201 37.4639 20.6752 36.7419 19.8833C36.0198 19.0914 35.6141 18.0172 35.6138 16.8971C35.6136 15.777 36.0188 14.7027 36.7405 13.9104C37.4621 13.118 38.4411 12.6726 39.4621 12.6721C40.483 12.6715 41.4624 13.1158 42.1847 13.9074C42.9071 14.6989 43.3134 15.7728 43.3141 16.8929C43.3149 18.013 42.9101 19.0876 42.1888 19.8803C41.4675 20.673 40.4888 21.119 39.4678 21.1201L39.464 21.1201Z" fill="#2E8FC1"/>
<path d="M51.9769 15.8401C50.956 15.8401 49.9768 15.3952 49.2548 14.6033C48.5328 13.8113 48.1271 12.7372 48.1268 11.6171C48.1265 10.497 48.5318 9.42268 49.2535 8.63035C49.9751 7.83803 50.9541 7.3926 51.975 7.39204C52.996 7.39148 53.9753 7.83583 54.6977 8.62737C55.4201 9.4189 55.8263 10.4928 55.8271 11.6129C55.8279 12.733 55.4231 13.8076 54.7018 14.6003C53.9805 15.393 53.0017 15.839 51.9808 15.8401L51.9769 15.8401Z" fill="#2E8FC1"/>
<path d="M63.5274 19.0081C62.5064 19.0081 61.5273 18.5632 60.8053 17.7713C60.0833 16.9794 59.6775 15.9052 59.6772 14.7851C59.677 13.665 60.0823 12.5907 60.8039 11.7984C61.5256 11.006 62.5045 10.5606 63.5255 10.5601C64.5464 10.5595 65.5258 11.0038 66.2482 11.7954C66.9705 12.5869 67.3768 13.6608 67.3775 14.7809C67.3783 15.901 66.9735 16.9756 66.2522 17.7683C65.5309 18.561 64.5522 19.007 63.5312 19.0081L63.5274 19.0081Z" fill="#2E8FC1"/>
<path d="M76.0403 29.5682C75.0194 29.5682 74.0402 29.1233 73.3182 28.3313C72.5962 27.5394 72.1904 26.4653 72.1902 25.3452C72.1899 24.2251 72.5952 23.1507 73.3168 22.3584C74.0385 21.5661 75.0175 21.1207 76.0384 21.1201C77.0594 21.1196 78.0387 21.5639 78.7611 22.3554C79.4835 23.147 79.8897 24.2209 79.8905 25.341C79.8912 26.4611 79.4865 27.5356 78.7652 28.3284C78.0439 29.1211 77.0651 29.567 76.0442 29.5682L76.0403 29.5682Z" fill="#2E8FC1"/>
<path d="M87.5908 19.0081C86.5699 19.0081 85.5907 18.5632 84.8687 17.7713C84.1467 16.9794 83.7409 15.9052 83.7407 14.7851C83.7404 13.665 84.1457 12.5907 84.8673 11.7984C85.589 11.006 86.5679 10.5606 87.5889 10.5601C88.6098 10.5595 89.5892 11.0038 90.3116 11.7954C91.0339 12.5869 91.4402 13.6608 91.4409 14.7809C91.4417 15.901 91.0369 16.9756 90.3157 17.7683C89.5944 18.561 88.6156 19.007 87.5947 19.0081L87.5908 19.0081Z" fill="#2E8FC1"/>
<path d="M100.104 9.50406C99.0828 9.50406 98.1036 9.05917 97.3816 8.26724C96.6596 7.47531 96.2539 6.40119 96.2536 5.28109C96.2533 4.16099 96.6586 3.08664 97.3803 2.29432C98.1019 1.50199 99.0809 1.05657 100.102 1.05601C101.123 1.05545 102.102 1.4998 102.825 2.29133C103.547 3.08287 103.953 4.15677 103.954 5.27687C103.955 6.39696 103.55 7.47153 102.829 8.26425C102.107 9.05697 101.129 9.50293 100.108 9.50405L100.104 9.50406Z" fill="#2E8FC1"/>
<path d="M112.617 16.8961C111.596 16.8961 110.617 16.4512 109.895 15.6593C109.173 14.8674 108.767 13.7932 108.767 12.6731C108.766 11.553 109.172 10.4787 109.893 9.68636C110.615 8.89403 111.594 8.44861 112.615 8.44805C113.636 8.44749 114.615 8.89184 115.338 9.68338C116.06 10.4749 116.466 11.5488 116.467 12.6689C116.468 13.789 116.063 14.8636 115.342 15.6563C114.62 16.449 113.642 16.895 112.621 16.8961L112.617 16.8961Z" fill="#2E8FC1"/>
<path d="M124.167 14.7841C123.146 14.7841 122.167 14.3392 121.445 13.5473C120.723 12.7553 120.317 11.6812 120.317 10.5611C120.317 9.44102 120.722 8.36667 121.444 7.57435C122.165 6.78202 123.144 6.3366 124.165 6.33604C125.186 6.33548 126.166 6.77983 126.888 7.57136C127.61 8.36289 128.017 9.4368 128.017 10.5569C128.018 11.677 127.613 12.7516 126.892 13.5443C126.171 14.337 125.192 14.783 124.171 14.7841L124.167 14.7841Z" fill="#2E8FC1"/>
<path d="M136.68 34.8482C135.659 34.8482 134.68 34.4033 133.958 33.6114C133.236 32.8195 132.83 31.7453 132.83 30.6252C132.83 29.5051 133.235 28.4308 133.957 27.6385C134.678 26.8461 135.657 26.4007 136.678 26.4002C137.699 26.3996 138.678 26.8439 139.401 27.6355C140.123 28.427 140.529 29.5009 140.53 30.621C140.531 31.7411 140.126 32.8157 139.405 33.6084C138.684 34.4011 137.705 34.8471 136.684 34.8482H136.68Z" fill="#2E8FC1"/>
<path d="M148.231 34.8482C147.21 34.8482 146.23 34.4033 145.508 33.6114C144.786 32.8195 144.381 31.7453 144.38 30.6252C144.38 29.5051 144.785 28.4308 145.507 27.6385C146.229 26.8461 147.208 26.4007 148.229 26.4002C149.25 26.3996 150.229 26.8439 150.951 27.6355C151.674 28.427 152.08 29.5009 152.081 30.621C152.081 31.7411 151.677 32.8157 150.955 33.6084C150.234 34.4011 149.255 34.8471 148.234 34.8482H148.231Z" fill="#2E8FC1"/>
<path d="M160.744 13.7281C159.723 13.7281 158.743 13.2832 158.021 12.4913C157.299 11.6993 156.894 10.6252 156.893 9.50512C156.893 8.38502 157.298 7.31068 158.02 6.51835C158.742 5.72602 159.721 5.2806 160.742 5.28004C161.763 5.27948 162.742 5.72383 163.464 6.51537C164.187 7.3069 164.593 8.3808 164.594 9.5009C164.594 10.621 164.19 11.6956 163.468 12.4883C162.747 13.281 161.768 13.727 160.747 13.7281L160.744 13.7281Z" fill="#2E8FC1"/>
<path d="M172.294 15.8401C171.273 15.8401 170.294 15.3952 169.572 14.6033C168.85 13.8113 168.444 12.7372 168.444 11.6171C168.444 10.497 168.849 9.42268 169.57 8.63035C170.292 7.83803 171.271 7.3926 172.292 7.39204C173.313 7.39148 174.292 7.83583 175.015 8.62737C175.737 9.4189 176.143 10.4928 176.144 11.6129C176.145 12.733 175.74 13.8076 175.019 14.6003C174.297 15.393 173.319 15.839 172.298 15.8401L172.294 15.8401Z" fill="#2E8FC1"/>
<path d="M184.807 30.6242C183.786 30.6242 182.807 30.1793 182.085 29.3874C181.363 28.5954 180.957 27.5213 180.957 26.4012C180.957 25.2811 181.362 24.2068 182.083 23.4144C182.805 22.6221 183.784 22.1767 184.805 22.1761C185.826 22.1756 186.805 22.6199 187.528 23.4115C188.25 24.203 188.656 25.2769 188.657 26.397C188.658 27.5171 188.253 28.5917 187.532 29.3844C186.81 30.1771 185.832 30.6231 184.811 30.6242L184.807 30.6242Z" fill="#2E8FC1"/>
<path d="M196.357 43.2962C195.336 43.2962 194.357 42.8514 193.635 42.0594C192.913 41.2675 192.507 40.1934 192.507 39.0733C192.507 37.9532 192.912 36.8788 193.634 36.0865C194.356 35.2942 195.334 34.8488 196.355 34.8482C197.376 34.8476 198.356 35.292 199.078 36.0835C199.8 36.8751 200.207 37.949 200.207 39.0691C200.208 40.1892 199.803 41.2637 199.082 42.0564C198.361 42.8492 197.382 43.2951 196.361 43.2962H196.357Z" fill="#2E8FC1"/>
<path d="M208.87 23.2321C207.849 23.2321 206.87 22.7873 206.148 21.9953C205.426 21.2034 205.02 20.1293 205.02 19.0092C205.02 17.8891 205.425 16.8147 206.147 16.0224C206.868 15.2301 207.847 14.7846 208.868 14.7841C209.889 14.7835 210.869 15.2279 211.591 16.0194C212.313 16.8109 212.72 17.8848 212.72 19.0049C212.721 20.125 212.316 21.1996 211.595 21.9923C210.874 22.7851 209.895 23.231 208.874 23.2321L208.87 23.2321Z" fill="#2E8FC1"/>
<path d="M221.383 24.2881C220.362 24.2881 219.383 23.8433 218.661 23.0513C217.939 22.2594 217.533 21.1853 217.533 20.0652C217.533 18.9451 217.938 17.8707 218.66 17.0784C219.381 16.2861 220.36 15.8407 221.381 15.8401C222.402 15.8395 223.382 16.2839 224.104 17.0754C224.826 17.867 225.233 18.9409 225.233 20.061C225.234 21.1811 224.829 22.2556 224.108 23.0483C223.387 23.8411 222.408 24.287 221.387 24.2881L221.383 24.2881Z" fill="#B60000"/>
<path d="M232.934 28.5122C231.913 28.5122 230.934 28.0673 230.212 27.2753C229.49 26.4834 229.084 25.4093 229.084 24.2892C229.083 23.1691 229.489 22.0947 230.21 21.3024C230.932 20.5101 231.911 20.0647 232.932 20.0641C233.953 20.0635 234.932 20.5079 235.654 21.2994C236.377 22.091 236.783 23.1649 236.784 24.285C236.785 25.4051 236.38 26.4796 235.659 27.2723C234.937 28.0651 233.959 28.511 232.938 28.5121L232.934 28.5122Z" fill="#B60000"/>
<path d="M245.447 8.44805C244.426 8.44805 243.447 8.00316 242.725 7.21123C242.003 6.41931 241.597 5.34518 241.597 4.22508C241.596 3.10498 242.002 2.03064 242.723 1.23831C243.445 0.445983 244.424 0.000560578 245.445 5.28763e-07C246.466 -0.00055952 247.445 0.443791 248.167 1.23532C248.89 2.02686 249.296 3.10076 249.297 4.22086C249.298 5.34096 248.893 6.41552 248.172 7.20825C247.45 8.00097 246.472 8.44692 245.451 8.44805L245.447 8.44805Z" fill="#B60000"/>
<path d="M256.997 14.7841C255.976 14.7841 254.997 14.3392 254.275 13.5473C253.553 12.7553 253.147 11.6812 253.147 10.5611C253.147 9.44102 253.552 8.36667 254.274 7.57435C254.995 6.78202 255.974 6.3366 256.995 6.33604C258.016 6.33548 258.996 6.77983 259.718 7.57136C260.44 8.36289 260.846 9.4368 260.847 10.5569C260.848 11.677 260.443 12.7516 259.722 13.5443C259.001 14.337 258.022 14.783 257.001 14.7841L256.997 14.7841Z" fill="#2E8FC1"/>
<path d="M269.51 36.9602C268.489 36.9602 267.51 36.5153 266.788 35.7234C266.066 34.9315 265.66 33.8573 265.66 32.7372C265.66 31.6171 266.065 30.5428 266.787 29.7505C267.508 28.9581 268.487 28.5127 269.508 28.5122C270.529 28.5116 271.508 28.956 272.231 29.7475C272.953 30.539 273.359 31.6129 273.36 32.733C273.361 33.8531 272.956 34.9277 272.235 35.7204C271.514 36.5131 270.535 36.9591 269.514 36.9602H269.51Z" fill="#2E8FC1"/>
<path d="M281.06 33.7922C280.04 33.7922 279.06 33.3473 278.338 32.5554C277.616 31.7635 277.211 30.6893 277.21 29.5692C277.21 28.4491 277.615 27.3748 278.337 26.5825C279.059 25.7901 280.038 25.3447 281.059 25.3441C282.079 25.3436 283.059 25.7879 283.781 26.5795C284.504 27.371 284.91 28.4449 284.911 29.565C284.911 30.6851 284.507 31.7597 283.785 32.5524C283.064 33.3451 282.085 33.7911 281.064 33.7922H281.06Z" fill="#2E8FC1"/>
<path d="M293.573 20.0641C292.553 20.0641 291.573 19.6192 290.851 18.8273C290.129 18.0354 289.724 16.9612 289.723 15.8411C289.723 14.721 290.128 13.6467 290.85 12.8544C291.572 12.062 292.551 11.6166 293.572 11.6161C294.592 11.6155 295.572 12.0599 296.294 12.8514C297.017 13.6429 297.423 14.7168 297.424 15.8369C297.424 16.957 297.02 18.0316 296.298 18.8243C295.577 19.617 294.598 20.063 293.577 20.0641L293.573 20.0641Z" fill="#2E8FC1"/>
<path d="M305.124 25.3441C304.103 25.3441 303.124 24.8993 302.402 24.1073C301.68 23.3154 301.274 22.2413 301.274 21.1212C301.274 20.0011 301.679 18.9267 302.4 18.1344C303.122 17.3421 304.101 16.8967 305.122 16.8961C306.143 16.8955 307.122 17.3399 307.845 18.1314C308.567 18.9229 308.973 19.9969 308.974 21.1169C308.975 22.237 308.57 23.3116 307.849 24.1043C307.128 24.8971 306.149 25.343 305.128 25.3441L305.124 25.3441Z" fill="#2E8FC1"/>
<path d="M317.637 23.2321C316.616 23.2321 315.637 22.7873 314.915 21.9953C314.193 21.2034 313.787 20.1293 313.787 19.0092C313.786 17.8891 314.192 16.8147 314.913 16.0224C315.635 15.2301 316.614 14.7846 317.635 14.7841C318.656 14.7835 319.635 15.2279 320.358 16.0194C321.08 16.8109 321.486 17.8848 321.487 19.0049C321.488 20.125 321.083 21.1996 320.362 21.9923C319.64 22.7851 318.662 23.231 317.641 23.2321L317.637 23.2321Z" fill="#2E8FC1"/>
<path d="M330.15 11.6161C329.129 11.6161 328.15 11.1712 327.428 10.3792C326.706 9.58732 326.3 8.51319 326.3 7.39309C326.299 6.27299 326.705 5.19865 327.426 4.40632C328.148 3.61399 329.127 3.16857 330.148 3.16801C331.169 3.16745 332.148 3.6118 332.871 4.40333C333.593 5.19487 333.999 6.26877 334 7.38887C334.001 8.50897 333.596 9.58353 332.875 10.3763C332.153 11.169 331.175 11.6149 330.154 11.6161L330.15 11.6161Z" fill="#2E8FC1"/>
<path d="M25.1 132.866C25.1 133.679 24.88 134.359 24.44 134.906C24 135.439 23.4133 135.839 22.68 136.106C21.96 136.373 21.16 136.506 20.28 136.506H13.36V122.306H21.26C21.9267 122.306 22.5 122.486 22.98 122.846C23.46 123.193 23.8333 123.646 24.1 124.206C24.3667 124.766 24.5 125.346 24.5 125.946C24.5 126.613 24.3267 127.253 23.98 127.866C23.6333 128.479 23.1267 128.933 22.46 129.226C23.26 129.466 23.9 129.893 24.38 130.506C24.86 131.119 25.1 131.906 25.1 132.866ZM16.64 125.106V128.046H19.86C20.22 128.046 20.54 127.926 20.82 127.686C21.1 127.446 21.24 127.073 21.24 126.566C21.24 126.099 21.1133 125.739 20.86 125.486C20.62 125.233 20.3267 125.106 19.98 125.106H16.64ZM21.76 132.206C21.76 131.766 21.6333 131.393 21.38 131.086C21.1267 130.779 20.8067 130.626 20.42 130.626H16.64V133.726H20.28C20.6933 133.726 21.04 133.586 21.32 133.306C21.6133 133.013 21.76 132.646 21.76 132.206ZM33.4319 128.746C32.6585 128.759 31.9585 128.886 31.3319 129.126C30.7052 129.366 30.2519 129.726 29.9719 130.206V136.506H26.7719V126.006H29.7119V128.126C30.0719 127.419 30.5385 126.866 31.1119 126.466C31.6852 126.066 32.2852 125.859 32.9119 125.846C33.1785 125.846 33.3519 125.853 33.4319 125.866V128.746ZM34.6797 132.726V126.006H37.8797V132.026C37.8797 133.346 38.3664 134.006 39.3397 134.006C39.7664 134.006 40.1797 133.893 40.5797 133.666C40.9797 133.426 41.333 133.033 41.6397 132.486V126.006H44.8397V132.946C44.8397 133.266 44.8864 133.493 44.9797 133.626C45.0864 133.759 45.2664 133.833 45.5197 133.846V136.506C45.213 136.559 44.953 136.599 44.7397 136.626C44.5264 136.653 44.333 136.666 44.1597 136.666C43.013 136.666 42.3597 136.219 42.1997 135.326L42.1397 134.686C41.6597 135.379 41.0597 135.893 40.3397 136.226C39.633 136.546 38.8397 136.706 37.9597 136.706C36.893 136.706 36.0797 136.366 35.5197 135.686C34.9597 135.006 34.6797 134.019 34.6797 132.726ZM51.3388 136.706C50.4321 136.706 49.5521 136.559 48.6988 136.266C47.8588 135.959 47.1454 135.526 46.5588 134.966L47.6588 132.946C48.9521 133.893 50.1454 134.366 51.2388 134.366C51.6521 134.366 51.9721 134.299 52.1988 134.166C52.4254 134.033 52.5388 133.826 52.5388 133.546C52.5388 133.253 52.3854 133.046 52.0788 132.926C51.7721 132.793 51.3188 132.639 50.7188 132.466C49.9188 132.199 49.2521 131.939 48.7188 131.686C48.1854 131.433 47.7854 131.126 47.5188 130.766C47.2521 130.406 47.1188 129.926 47.1188 129.326C47.1188 128.273 47.5121 127.426 48.2988 126.786C49.0854 126.133 50.1521 125.806 51.4987 125.806C52.2188 125.806 52.9188 125.919 53.5988 126.146C54.2921 126.373 54.9388 126.753 55.5388 127.286L54.2988 129.286C53.6988 128.873 53.1654 128.573 52.6988 128.386C52.2321 128.199 51.7788 128.106 51.3388 128.106C50.9921 128.106 50.6988 128.173 50.4588 128.306C50.2188 128.426 50.0988 128.639 50.0988 128.946C50.0988 129.239 50.2321 129.459 50.4988 129.606C50.7654 129.739 51.1788 129.886 51.7388 130.046C52.5921 130.299 53.3054 130.559 53.8788 130.826C54.4654 131.079 54.8988 131.399 55.1788 131.786C55.4721 132.159 55.6188 132.659 55.6188 133.286C55.6188 134.353 55.2321 135.193 54.4588 135.806C53.6854 136.406 52.6454 136.706 51.3388 136.706ZM61.2802 136.706C60.3735 136.706 59.4935 136.559 58.6402 136.266C57.8002 135.959 57.0868 135.526 56.5002 134.966L57.6002 132.946C58.8935 133.893 60.0868 134.366 61.1802 134.366C61.5935 134.366 61.9135 134.299 62.1402 134.166C62.3668 134.033 62.4802 133.826 62.4802 133.546C62.4802 133.253 62.3268 133.046 62.0202 132.926C61.7135 132.793 61.2602 132.639 60.6602 132.466C59.8602 132.199 59.1935 131.939 58.6602 131.686C58.1268 131.433 57.7268 131.126 57.4602 130.766C57.1935 130.406 57.0602 129.926 57.0602 129.326C57.0602 128.273 57.4535 127.426 58.2402 126.786C59.0268 126.133 60.0935 125.806 61.4402 125.806C62.1602 125.806 62.8602 125.919 63.5402 126.146C64.2335 126.373 64.8802 126.753 65.4802 127.286L64.2402 129.286C63.6402 128.873 63.1068 128.573 62.6402 128.386C62.1735 128.199 61.7202 128.106 61.2802 128.106C60.9335 128.106 60.6402 128.173 60.4002 128.306C60.1602 128.426 60.0402 128.639 60.0402 128.946C60.0402 129.239 60.1735 129.459 60.4402 129.606C60.7068 129.739 61.1202 129.886 61.6802 130.046C62.5335 130.299 63.2468 130.559 63.8202 130.826C64.4068 131.079 64.8402 131.399 65.1202 131.786C65.4135 132.159 65.5602 132.659 65.5602 133.286C65.5602 134.353 65.1735 135.193 64.4002 135.806C63.6268 136.406 62.5868 136.706 61.2802 136.706ZM72.2216 136.706C71.0349 136.706 70.0216 136.459 69.1816 135.966C68.3416 135.473 67.6949 134.819 67.2416 134.006C66.8016 133.193 66.5816 132.313 66.5816 131.366C66.5816 130.353 66.8016 129.426 67.2416 128.586C67.6816 127.746 68.3216 127.073 69.1616 126.566C70.0016 126.059 71.0216 125.806 72.2216 125.806C73.4082 125.806 74.4216 126.059 75.2616 126.566C76.1016 127.073 76.7349 127.739 77.1616 128.566C77.6016 129.393 77.8216 130.279 77.8216 131.226C77.8216 131.613 77.7949 131.953 77.7416 132.246H69.9816C70.0349 132.953 70.2882 133.493 70.7416 133.866C71.2082 134.226 71.7349 134.406 72.3216 134.406C72.7882 134.406 73.2349 134.293 73.6616 134.066C74.0882 133.839 74.3816 133.533 74.5416 133.146L77.2616 133.906C76.8482 134.733 76.2016 135.406 75.3216 135.926C74.4549 136.446 73.4216 136.706 72.2216 136.706ZM69.9016 130.286H74.4616C74.3949 129.619 74.1482 129.093 73.7216 128.706C73.3082 128.306 72.7949 128.106 72.1816 128.106C71.5682 128.106 71.0482 128.306 70.6216 128.706C70.2082 129.106 69.9682 129.633 69.9016 130.286ZM79.2319 121.906H82.4319V132.766C82.4319 133.206 82.5119 133.519 82.6719 133.706C82.8319 133.893 83.0585 133.986 83.3519 133.986C83.5519 133.986 83.7519 133.959 83.9519 133.906C84.1652 133.839 84.3519 133.766 84.5119 133.686L84.9319 136.086C84.5319 136.273 84.0719 136.419 83.5519 136.526C83.0319 136.633 82.5452 136.686 82.0919 136.686C81.1852 136.686 80.4785 136.446 79.9719 135.966C79.4785 135.486 79.2319 134.793 79.2319 133.886V121.906ZM89.9911 136.706C89.0844 136.706 88.2044 136.559 87.3511 136.266C86.5111 135.959 85.7978 135.526 85.2111 134.966L86.3111 132.946C87.6044 133.893 88.7978 134.366 89.8911 134.366C90.3044 134.366 90.6244 134.299 90.8511 134.166C91.0778 134.033 91.1911 133.826 91.1911 133.546C91.1911 133.253 91.0378 133.046 90.7311 132.926C90.4244 132.793 89.9711 132.639 89.3711 132.466C88.5711 132.199 87.9044 131.939 87.3711 131.686C86.8378 131.433 86.4378 131.126 86.1711 130.766C85.9044 130.406 85.7711 129.926 85.7711 129.326C85.7711 128.273 86.1644 127.426 86.9511 126.786C87.7378 126.133 88.8044 125.806 90.1511 125.806C90.8711 125.806 91.5711 125.919 92.2511 126.146C92.9444 126.373 93.5911 126.753 94.1911 127.286L92.9511 129.286C92.3511 128.873 91.8178 128.573 91.3511 128.386C90.8844 128.199 90.4311 128.106 89.9911 128.106C89.6444 128.106 89.3511 128.173 89.1111 128.306C88.8711 128.426 88.7511 128.639 88.7511 128.946C88.7511 129.239 88.8844 129.459 89.1511 129.606C89.4178 129.739 89.8311 129.886 90.3911 130.046C91.2444 130.299 91.9578 130.559 92.5311 130.826C93.1178 131.079 93.5511 131.399 93.8311 131.786C94.1244 132.159 94.2711 132.659 94.2711 133.286C94.2711 134.353 93.8844 135.193 93.1111 135.806C92.3378 136.406 91.2978 136.706 89.9911 136.706ZM112.58 132.866C112.58 133.679 112.36 134.359 111.92 134.906C111.48 135.439 110.894 135.839 110.16 136.106C109.44 136.373 108.64 136.506 107.76 136.506H100.84V122.306H108.74C109.407 122.306 109.98 122.486 110.46 122.846C110.94 123.193 111.314 123.646 111.58 124.206C111.847 124.766 111.98 125.346 111.98 125.946C111.98 126.613 111.807 127.253 111.46 127.866C111.114 128.479 110.607 128.933 109.94 129.226C110.74 129.466 111.38 129.893 111.86 130.506C112.34 131.119 112.58 131.906 112.58 132.866ZM104.12 125.106V128.046H107.34C107.7 128.046 108.02 127.926 108.3 127.686C108.58 127.446 108.72 127.073 108.72 126.566C108.72 126.099 108.594 125.739 108.34 125.486C108.1 125.233 107.807 125.106 107.46 125.106H104.12ZM109.24 132.206C109.24 131.766 109.114 131.393 108.86 131.086C108.607 130.779 108.287 130.626 107.9 130.626H104.12V133.726H107.76C108.174 133.726 108.52 133.586 108.8 133.306C109.094 133.013 109.24 132.646 109.24 132.206ZM119.252 136.706C118.052 136.706 117.032 136.453 116.192 135.946C115.366 135.439 114.732 134.773 114.292 133.946C113.852 133.119 113.632 132.226 113.632 131.266C113.632 130.293 113.852 129.393 114.292 128.566C114.732 127.739 115.372 127.073 116.212 126.566C117.052 126.059 118.066 125.806 119.252 125.806C120.439 125.806 121.452 126.059 122.292 126.566C123.132 127.073 123.772 127.739 124.212 128.566C124.652 129.393 124.872 130.293 124.872 131.266C124.872 132.226 124.652 133.119 124.212 133.946C123.772 134.773 123.132 135.439 122.292 135.946C121.452 136.453 120.439 136.706 119.252 136.706ZM116.912 131.266C116.912 132.079 117.132 132.739 117.572 133.246C118.026 133.753 118.586 134.006 119.252 134.006C119.906 134.006 120.452 133.753 120.892 133.246C121.346 132.739 121.572 132.079 121.572 131.266C121.572 130.453 121.346 129.793 120.892 129.286C120.452 128.779 119.906 128.526 119.252 128.526C118.586 128.526 118.026 128.779 117.572 129.286C117.132 129.793 116.912 130.453 116.912 131.266ZM143.059 136.506H139.859V130.606C139.859 129.926 139.733 129.426 139.479 129.106C139.226 128.786 138.899 128.626 138.499 128.626C138.073 128.626 137.653 128.799 137.239 129.146C136.826 129.493 136.533 129.939 136.359 130.486V136.506H133.159V130.606C133.159 129.913 133.033 129.413 132.779 129.106C132.526 128.786 132.199 128.626 131.799 128.626C131.373 128.626 130.953 128.799 130.539 129.146C130.139 129.493 129.846 129.939 129.659 130.486V136.506H126.459V126.006H129.339V127.766C129.726 127.139 130.253 126.659 130.919 126.326C131.586 125.979 132.353 125.806 133.219 125.806C134.086 125.806 134.753 126.013 135.219 126.426C135.686 126.826 135.986 127.299 136.119 127.846C136.519 127.206 137.046 126.706 137.699 126.346C138.366 125.986 139.113 125.806 139.939 125.806C140.606 125.806 141.139 125.933 141.539 126.186C141.953 126.426 142.266 126.746 142.479 127.146C142.706 127.546 142.859 127.979 142.939 128.446C143.019 128.899 143.059 129.346 143.059 129.786V136.506ZM151.451 136.706C150.651 136.706 149.951 136.539 149.351 136.206C148.751 135.859 148.277 135.379 147.931 134.766V136.506H145.151V121.906H148.351V127.726C148.684 127.126 149.144 126.659 149.731 126.326C150.317 125.979 151.004 125.806 151.791 125.806C152.684 125.806 153.471 126.053 154.151 126.546C154.844 127.039 155.384 127.699 155.771 128.526C156.157 129.353 156.351 130.279 156.351 131.306C156.351 132.319 156.137 133.239 155.711 134.066C155.284 134.879 154.697 135.526 153.951 136.006C153.217 136.473 152.384 136.706 151.451 136.706ZM150.551 134.006C151.297 134.006 151.904 133.746 152.371 133.226C152.837 132.706 153.071 132.066 153.071 131.306C153.071 130.813 152.964 130.353 152.751 129.926C152.551 129.499 152.271 129.159 151.911 128.906C151.564 128.653 151.164 128.526 150.711 128.526C150.204 128.526 149.737 128.699 149.311 129.046C148.884 129.393 148.564 129.826 148.351 130.346V132.546C148.564 132.999 148.871 133.359 149.271 133.626C149.684 133.879 150.111 134.006 150.551 134.006ZM157.944 124.806V121.906H161.144V124.806H157.944ZM157.944 136.506V126.006H161.144V136.506H157.944ZM173.454 136.506H170.254V130.606C170.254 129.913 170.121 129.413 169.854 129.106C169.601 128.786 169.261 128.626 168.834 128.626C168.394 128.626 167.948 128.799 167.494 129.146C167.041 129.493 166.721 129.939 166.534 130.486V136.506H163.334V126.006H166.214V127.766C166.601 127.153 167.148 126.673 167.854 126.326C168.561 125.979 169.374 125.806 170.294 125.806C170.974 125.806 171.521 125.933 171.934 126.186C172.361 126.426 172.681 126.746 172.894 127.146C173.121 127.533 173.268 127.959 173.334 128.426C173.414 128.893 173.454 129.346 173.454 129.786V136.506ZM179.66 136.546C178.727 136.546 177.914 136.306 177.22 135.826C176.527 135.346 175.98 134.706 175.58 133.906C175.194 133.106 175 132.219 175 131.246C175 130.219 175.207 129.299 175.62 128.486C176.034 127.659 176.607 127.006 177.34 126.526C178.074 126.046 178.92 125.806 179.88 125.806C180.667 125.806 181.36 125.979 181.96 126.326C182.56 126.659 183.04 127.126 183.4 127.726V126.006H186.18V135.786C186.18 136.853 185.92 137.773 185.4 138.546C184.894 139.319 184.18 139.913 183.26 140.326C182.354 140.753 181.3 140.966 180.1 140.966C178.98 140.966 178.014 140.779 177.2 140.406C176.4 140.046 175.7 139.533 175.1 138.866L176.82 137.126C177.207 137.566 177.687 137.913 178.26 138.166C178.847 138.433 179.46 138.566 180.1 138.566C180.62 138.566 181.094 138.473 181.52 138.286C181.96 138.099 182.314 137.799 182.58 137.386C182.847 136.986 182.98 136.453 182.98 135.786V134.766C182.66 135.353 182.194 135.799 181.58 136.106C180.98 136.399 180.34 136.546 179.66 136.546ZM180.76 134.006C181.254 134.006 181.694 133.873 182.08 133.606C182.467 133.326 182.767 132.973 182.98 132.546V130.346C182.767 129.799 182.44 129.359 182 129.026C181.56 128.693 181.094 128.526 180.6 128.526C180.147 128.526 179.74 128.659 179.38 128.926C179.034 129.179 178.76 129.519 178.56 129.946C178.36 130.373 178.26 130.833 178.26 131.326C178.26 132.099 178.5 132.739 178.98 133.246C179.46 133.753 180.054 134.006 180.76 134.006ZM192.541 129.566C192.541 128.206 192.835 126.839 193.421 125.466C194.008 124.093 194.728 122.679 195.581 121.226L198.021 122.226C197.835 122.519 197.601 122.933 197.321 123.466C197.055 123.999 196.781 124.613 196.501 125.306C196.221 125.986 195.988 126.699 195.801 127.446C195.615 128.193 195.521 128.919 195.521 129.626C195.521 130.693 195.748 131.799 196.201 132.946C196.668 134.093 197.248 135.293 197.941 136.546L195.621 137.686C195.061 136.859 194.548 135.999 194.081 135.106C193.615 134.199 193.241 133.279 192.961 132.346C192.681 131.413 192.541 130.486 192.541 129.566ZM209.493 130.646C209.493 131.819 209.266 132.866 208.813 133.786C208.359 134.693 207.739 135.406 206.953 135.926C206.166 136.446 205.273 136.706 204.273 136.706C203.273 136.706 202.379 136.446 201.593 135.926C200.806 135.406 200.186 134.693 199.733 133.786C199.279 132.866 199.053 131.819 199.053 130.646C199.053 129.473 199.279 128.433 199.733 127.526C200.186 126.606 200.806 125.886 201.593 125.366C202.379 124.833 203.273 124.566 204.273 124.566C205.273 124.566 206.166 124.833 206.953 125.366C207.739 125.886 208.359 126.606 208.813 127.526C209.266 128.433 209.493 129.473 209.493 130.646ZM206.273 130.646C206.273 129.713 206.079 128.959 205.693 128.386C205.319 127.799 204.846 127.506 204.273 127.506C203.673 127.506 203.186 127.799 202.813 128.386C202.439 128.959 202.253 129.713 202.253 130.646C202.253 131.579 202.439 132.333 202.813 132.906C203.186 133.479 203.673 133.766 204.273 133.766C204.846 133.766 205.319 133.479 205.693 132.906C206.079 132.333 206.273 131.579 206.273 130.646ZM218.278 131.766C219.105 131.913 219.778 132.319 220.298 132.986C220.818 133.639 221.078 134.433 221.078 135.366C221.078 136.193 220.858 136.913 220.418 137.526C219.978 138.139 219.351 138.613 218.538 138.946C217.725 139.279 216.765 139.446 215.658 139.446C213.645 139.446 212.058 138.853 210.898 137.666L212.618 135.386C212.978 135.759 213.391 136.046 213.858 136.246C214.325 136.433 214.871 136.526 215.498 136.526C217.005 136.526 217.758 135.973 217.758 134.866C217.758 134.266 217.531 133.813 217.078 133.506C216.625 133.199 215.925 133.046 214.978 133.046H214.378V130.746H215.038C215.771 130.746 216.351 130.593 216.778 130.286C217.205 129.966 217.418 129.559 217.418 129.066C217.418 128.626 217.265 128.293 216.958 128.066C216.651 127.839 216.245 127.726 215.738 127.726C214.618 127.726 213.745 128.226 213.118 129.226L211.098 126.906C211.391 126.533 211.791 126.199 212.298 125.906C212.818 125.613 213.405 125.386 214.058 125.226C214.711 125.066 215.391 124.986 216.098 124.986C217.045 124.986 217.871 125.133 218.578 125.426C219.298 125.719 219.851 126.133 220.238 126.666C220.638 127.186 220.838 127.806 220.838 128.526C220.838 129.046 220.731 129.539 220.518 130.006C220.305 130.459 220.005 130.846 219.618 131.166C219.231 131.473 218.785 131.673 218.278 131.766ZM235.965 122.306L225.865 136.506H222.325L232.425 122.306H235.965ZM236.723 136.506C236.723 135.666 236.817 134.939 237.003 134.326C237.19 133.713 237.503 133.166 237.943 132.686C238.397 132.206 239.017 131.753 239.803 131.326C240.643 130.873 241.297 130.519 241.763 130.266C242.243 129.999 242.577 129.773 242.763 129.586C242.963 129.386 243.063 129.159 243.063 128.906C243.063 128.533 242.93 128.233 242.663 128.006C242.397 127.779 242.017 127.666 241.523 127.666C240.977 127.666 240.49 127.806 240.063 128.086C239.637 128.353 239.23 128.706 238.843 129.146L236.823 126.786C237.117 126.479 237.523 126.179 238.043 125.886C238.577 125.593 239.183 125.353 239.863 125.166C240.557 124.979 241.297 124.886 242.083 124.886C243.51 124.886 244.61 125.206 245.383 125.846C246.157 126.473 246.543 127.313 246.543 128.366C246.543 128.966 246.423 129.479 246.183 129.906C245.957 130.319 245.657 130.673 245.283 130.966C244.923 131.259 244.55 131.526 244.163 131.766C243.523 132.099 242.963 132.406 242.483 132.686C242.017 132.953 241.597 133.266 241.223 133.626H246.763V136.506H236.723ZM248.325 136.506C248.325 135.666 248.418 134.939 248.605 134.326C248.792 133.713 249.105 133.166 249.545 132.686C249.998 132.206 250.618 131.753 251.405 131.326C252.245 130.873 252.898 130.519 253.365 130.266C253.845 129.999 254.178 129.773 254.365 129.586C254.565 129.386 254.665 129.159 254.665 128.906C254.665 128.533 254.532 128.233 254.265 128.006C253.998 127.779 253.618 127.666 253.125 127.666C252.578 127.666 252.092 127.806 251.665 128.086C251.238 128.353 250.832 128.706 250.445 129.146L248.425 126.786C248.718 126.479 249.125 126.179 249.645 125.886C250.178 125.593 250.785 125.353 251.465 125.166C252.158 124.979 252.898 124.886 253.685 124.886C255.112 124.886 256.212 125.206 256.985 125.846C257.758 126.473 258.145 127.313 258.145 128.366C258.145 128.966 258.025 129.479 257.785 129.906C257.558 130.319 257.258 130.673 256.885 130.966C256.525 131.259 256.152 131.526 255.765 131.766C255.125 132.099 254.565 132.406 254.085 132.686C253.618 132.953 253.198 133.266 252.825 133.626H258.365V136.506H248.325ZM273.387 122.306L263.287 136.506H259.747L269.847 122.306H273.387ZM274.145 136.506C274.145 135.666 274.239 134.939 274.425 134.326C274.612 133.713 274.925 133.166 275.365 132.686C275.819 132.206 276.439 131.753 277.225 131.326C278.065 130.873 278.719 130.519 279.185 130.266C279.665 129.999 279.999 129.773 280.185 129.586C280.385 129.386 280.485 129.159 280.485 128.906C280.485 128.533 280.352 128.233 280.085 128.006C279.819 127.779 279.439 127.666 278.945 127.666C278.399 127.666 277.912 127.806 277.485 128.086C277.059 128.353 276.652 128.706 276.265 129.146L274.245 126.786C274.539 126.479 274.945 126.179 275.465 125.886C275.999 125.593 276.605 125.353 277.285 125.166C277.979 124.979 278.719 124.886 279.505 124.886C280.932 124.886 282.032 125.206 282.805 125.846C283.579 126.473 283.965 127.313 283.965 128.366C283.965 128.966 283.845 129.479 283.605 129.906C283.379 130.319 283.079 130.673 282.705 130.966C282.345 131.259 281.972 131.526 281.585 131.766C280.945 132.099 280.385 132.406 279.905 132.686C279.439 132.953 279.019 133.266 278.645 133.626H284.185V136.506H274.145ZM296.407 130.646C296.407 131.819 296.18 132.866 295.727 133.786C295.274 134.693 294.654 135.406 293.867 135.926C293.08 136.446 292.187 136.706 291.187 136.706C290.187 136.706 289.294 136.446 288.507 135.926C287.72 135.406 287.1 134.693 286.647 133.786C286.194 132.866 285.967 131.819 285.967 130.646C285.967 129.473 286.194 128.433 286.647 127.526C287.1 126.606 287.72 125.886 288.507 125.366C289.294 124.833 290.187 124.566 291.187 124.566C292.187 124.566 293.08 124.833 293.867 125.366C294.654 125.886 295.274 126.606 295.727 127.526C296.18 128.433 296.407 129.473 296.407 130.646ZM293.187 130.646C293.187 129.713 292.994 128.959 292.607 128.386C292.234 127.799 291.76 127.506 291.187 127.506C290.587 127.506 290.1 127.799 289.727 128.386C289.354 128.959 289.167 129.713 289.167 130.646C289.167 131.579 289.354 132.333 289.727 132.906C290.1 133.479 290.587 133.766 291.187 133.766C291.76 133.766 292.234 133.479 292.607 132.906C292.994 132.333 293.187 131.579 293.187 130.646ZM307.212 133.626V136.506H298.572V133.626H301.412V128.526C301.252 128.739 300.979 128.953 300.592 129.166C300.219 129.379 299.805 129.566 299.352 129.726C298.912 129.873 298.519 129.946 298.172 129.946V126.986C298.399 126.986 298.679 126.913 299.012 126.766C299.345 126.619 299.679 126.446 300.012 126.246C300.359 126.033 300.659 125.819 300.912 125.606C301.179 125.393 301.345 125.219 301.412 125.086H304.672V133.626H307.212ZM319.064 131.726C319.064 132.659 318.83 133.506 318.364 134.266C317.91 135.013 317.284 135.606 316.484 136.046C315.697 136.486 314.81 136.706 313.824 136.706C312.17 136.706 310.877 136.113 309.944 134.926C309.01 133.739 308.544 132.086 308.544 129.966C308.544 128.313 308.77 126.906 309.224 125.746C309.677 124.586 310.317 123.706 311.144 123.106C311.984 122.493 312.984 122.186 314.144 122.186C315.01 122.186 315.824 122.366 316.584 122.726C317.344 123.086 318.01 123.606 318.584 124.286L316.784 126.326C316.45 125.899 316.05 125.566 315.584 125.326C315.117 125.086 314.617 124.966 314.084 124.966C313.31 124.966 312.69 125.253 312.224 125.826C311.757 126.386 311.51 127.173 311.484 128.186C312.057 127.426 312.93 127.046 314.104 127.046C315.037 127.046 315.877 127.253 316.624 127.666C317.384 128.079 317.977 128.639 318.404 129.346C318.844 130.053 319.064 130.846 319.064 131.726ZM313.824 134.006C314.21 134.006 314.57 133.906 314.904 133.706C315.237 133.493 315.504 133.213 315.704 132.866C315.917 132.519 316.024 132.139 316.024 131.726C316.024 131.126 315.804 130.619 315.364 130.206C314.937 129.779 314.424 129.566 313.824 129.566C313.21 129.566 312.69 129.779 312.264 130.206C311.837 130.619 311.624 131.126 311.624 131.726C311.624 132.139 311.724 132.519 311.924 132.866C312.137 133.213 312.404 133.493 312.724 133.706C313.057 133.906 313.424 134.006 313.824 134.006ZM325.732 129.566C325.732 130.486 325.592 131.413 325.312 132.346C325.032 133.279 324.658 134.199 324.192 135.106C323.725 135.999 323.212 136.859 322.652 137.686L320.332 136.546C321.025 135.293 321.598 134.093 322.052 132.946C322.518 131.799 322.752 130.693 322.752 129.626C322.752 128.919 322.658 128.193 322.472 127.446C322.285 126.699 322.052 125.986 321.772 125.306C321.492 124.613 321.212 123.999 320.932 123.466C320.665 122.933 320.438 122.519 320.252 122.226L322.692 121.226C323.545 122.679 324.265 124.093 324.852 125.466C325.438 126.839 325.732 128.206 325.732 129.566Z" fill="white"/>
<path d="M222.346 19.5415C225.554 21.3015 232.21 25.8603 232.934 25.3495C239.671 20.5975 239.19 8.98143 245.447 3.7014" stroke="#B60000" stroke-width="3"/>
</svg>
